{
.appVersion = "3108";
DisplayStrings = (
"Alina/space Starkov,/space Novokribirsk,/space Ravka./space \012"
);
customParameters = (
{
name = panose;
value = (
0,
0,
0,
0,
0,
0,
0,
0,
0,
0
);
},
{
name = unicodeRanges;
value = (
0,
1,
5,
9,
31,
33,
38
);
},
{
name = codePageRanges;
value = (
1252,
1250,
1251
);
},
{
name = fsType;
value = (
);
},
{
name = vendorID;
value = "    ";
},
{
name = Axes;
value = (
{
Name = Weight;
Tag = wght;
},
{
Name = Width;
Tag = wdth;
}
);
}
);
date = "2021-12-18 00:15:22 +0000";
designer = "Christian Thalmann & David J. Peterson";
designerURL = "https://www.myfonts.com/foundry/Catharsis_Fonts/";
familyName = "Ravkan Grotesk";
featurePrefixes = (
{
code = "lookup lookup_0 {\012sub f_ravkan by f_alt_ravkan;\012sub fy_ravkan by fy_alt_ravkan;\012} lookup_0;\012";
name = lookup_0;
},
{
automatic = 1;
code = "languagesystem DFLT dflt;\012\012languagesystem latn dflt;\012languagesystem latn NLD;\012";
name = Languagesystems;
}
);
features = (
{
automatic = 1;
code = "feature locl;\012feature case;\012feature ss01;\012";
name = aalt;
},
{

glyphs = (
{
glyphname = A;
lastChange = "2021-12-17 23:42:19 +0000";
layers = (
{
anchors = (
{
name = bottom;
position = "{1071, 0}";
},
{
name = ogonek;
position = "{1927, 10}";
},
{
name = top;
position = "{1071, 1850}";
}
);
layerId = "E4BC606E-CD30-42C5-8BF2-1DD2ABB89119";
paths = (
{
closed = 1;
nodes = (
"934 0 LINE",
"934 79 LINE",
"764 79 OFFCURVE",
"740 141 OFFCURVE",
"740 494 CURVE SMOOTH",
"740 1380 LINE SMOOTH",
"740 1672 OFFCURVE",
"804 1740 OFFCURVE",
"1070 1740 CURVE SMOOTH",
"1337 1740 OFFCURVE",
"1401 1672 OFFCURVE",
"1401 1380 CURVE SMOOTH",
"1401 494 LINE SMOOTH",
"1401 141 OFFCURVE",
"1377 79 OFFCURVE",
"1207 79 CURVE",
"1207 0 LINE",
"2081 0 LINE",
"2081 79 LINE",
"1885 79 OFFCURVE",
"1851 141 OFFCURVE",
"1851 494 CURVE SMOOTH",
"1851 1380 LINE SMOOTH",
"1851 1702 OFFCURVE",
"1710 1850 OFFCURVE",
"1401 1850 CURVE SMOOTH",
"740 1850 LINE SMOOTH",
"431 1850 OFFCURVE",
"290 1702 OFFCURVE",
"290 1380 CURVE SMOOTH",
"290 494 LINE SMOOTH",
"290 141 OFFCURVE",
"256 79 OFFCURVE",
"60 79 CURVE",
"60 0 LINE"
);
},
{
closed = 1;
nodes = (
"1538 764 LINE",
"1538 884 LINE",
"616 884 LINE",
"616 764 LINE"
);
}
);
userData = {
assembly = "PUSHW[ ]	/* 1 value pushed */
0 
CALL[ ]	/* CallFunction */
SVTCA[0]	/* SetFreedomAndProjectionVectorToAxis */
PUSHW[ ]	/* 1 value pushed */
0 
RCVT[ ]	/* ReadCVT */
IF[ ]	/* If */
PUSHW[ ]	/* 1 value pushed */
8 
MDAP[1]	/* MoveDirectAbsPt */
ELSE[ ]	/* Else */
PUSHW[ ]	/* 2 values pushed */
8 7 
MIAP[0]	/* MoveIndirectAbsPt */
EIF[ ]	/* EndIf */
PUSHW[ ]	/* 1 value pushed */
0 
RCVT[ ]	/* ReadCVT */
IF[ ]	/* If */
PUSHW[ ]	/* 1 value pushed */
18 
MDAP[1]	/* MoveDirectAbsPt */
ELSE[ ]	/* Else */
PUSHW[ ]	/* 2 values pushed */
18 1 
MIAP[0]	/* MoveIndirectAbsPt */
EIF[ ]	/* EndIf */
PUSHW[ ]	/* 1 value pushed */
0 
RCVT[ ]	/* ReadCVT */
IF[ ]	/* If */
PUSHW[ ]	/* 1 value pushed */
25 
MDAP[1]	/* MoveDirectAbsPt */
ELSE[ ]	/* Else */
PUSHW[ ]	/* 2 values pushed */
25 1 
MIAP[0]	/* MoveIndirectAbsPt */
EIF[ ]	/* EndIf */
PUSHW[ ]	/* 1 value pushed */
0 
RCVT[ ]	/* ReadCVT */
IF[ ]	/* If */
PUSHW[ ]	/* 1 value pushed */
32 
MDAP[1]	/* MoveDirectAbsPt */
ELSE[ ]	/* Else */
PUSHW[ ]	/* 2 values pushed */
32 1 
MIAP[0]	/* MoveIndirectAbsPt */
EIF[ ]	/* EndIf */
PUSHW[ ]	/* 3 values pushed */
35 46 3 
CALL[ ]	/* CallFunction */
PUSHW[ ]	/* 1 value pushed */
32 
SRP0[ ]	/* SetRefPoint0 */
PUSHW[ ]	/* 1 value pushed */
0 
MDRP[11100]	/* MoveDirectRelPt */
PUSHW[ ]	/* 1 value pushed */
17 
MDRP[10000]	/* MoveDirectRelPt */
PUSHW[ ]	/* 1 value pushed */
8 
SRP0[ ]	/* SetRefPoint0 */
PUSHW[ ]	/* 1 value pushed */
38 
MDRP[11100]	/* MoveDirectRelPt */
NPUSHW[ ]	/* 5 values pushed */
217 38 233 38 2 
DELTAP1[ ]	/* DeltaExceptionP1 */
NPUSHW[ ]	/* 27 values pushed */
8 38 24 38 40 38 56 38 72 38 88 38 104 38 120 38 136 38 152 38 168 38 184 38 200 38 13 
DELTAP1[ ]	/* DeltaExceptionP1 */
PUSHW[ ]	/* 1 value pushed */
17 
SRP0[ ]	/* SetRefPoint0 */
PUSHW[ ]	/* 1 value pushed */
43 
MDRP[10000]	/* MoveDirectRelPt */
IUP[0]	/* InterpolateUntPts */
IUP[1]	/* InterpolateUntPts */";
};
width = 2141;
},
{
associatedMasterId = "E4BC606E-CD30-42C5-8BF2-1DD2ABB89119";
layerId = "E389A5C2-11C0-44CB-BC42-14093034D3F5";
name = "11 Dec 21, 17:35";
paths = (
{
closed = 1;
nodes = (
"431 1850 OFFCURVE",
"290 1702 OFFCURVE",
"290 1380 CURVE SMOOTH",
"290 430 LINE SMOOTH",
"290 185 OFFCURVE",
"227 80 OFFCURVE",
"80 80 CURVE",
"80 0 LINE",
"380 0 LINE SMOOTH",
"695 0 OFFCURVE",
"740 44 OFFCURVE",
"740 350 CURVE SMOOTH",
"740 1380 LINE SMOOTH",
"740 1672 OFFCURVE",
"797 1740 OFFCURVE",
"1040 1740 CURVE SMOOTH",
"1284 1740 OFFCURVE",
"1341 1672 OFFCURVE",
"1341 1380 CURVE SMOOTH",
"1341 350 LINE SMOOTH",
"1341 44 OFFCURVE",
"1386 0 OFFCURVE",
"1701 0 CURVE SMOOTH",
"2001 0 LINE",
"2001 80 LINE",
"1854 80 OFFCURVE",
"1791 185 OFFCURVE",
"1791 430 CURVE SMOOTH",
"1791 1380 LINE SMOOTH",
"1791 1702 OFFCURVE",
"1650 1850 OFFCURVE",
"1341 1850 CURVE SMOOTH",
"740 1850 LINE SMOOTH"
);
},
{
closed = 1;
nodes = (
"1478 764 LINE",
"1478 884 LINE",
"616 884 LINE",
"616 764 LINE"
);
}
);
userData = {
assembly = "PUSHW[ ]	/* 1 value pushed */
0 
CALL[ ]	/* CallFunction */
SVTCA[0]	/* SetFreedomAndProjectionVectorToAxis */
PUSHW[ ]	/* 1 value pushed */
0 
RCVT[ ]	/* ReadCVT */
IF[ ]	/* If */
PUSHW[ ]	/* 1 value pushed */
8 
MDAP[1]	/* MoveDirectAbsPt */
ELSE[ ]	/* Else */
PUSHW[ ]	/* 2 values pushed */
8 7 
MIAP[0]	/* MoveIndirectAbsPt */
EIF[ ]	/* EndIf */
PUSHW[ ]	/* 1 value pushed */
0 
RCVT[ ]	/* ReadCVT */
IF[ ]	/* If */
PUSHW[ ]	/* 1 value pushed */
18 
MDAP[1]	/* MoveDirectAbsPt */
ELSE[ ]	/* Else */
PUSHW[ ]	/* 2 values pushed */
18 1 
MIAP[0]	/* MoveIndirectAbsPt */
EIF[ ]	/* EndIf */
PUSHW[ ]	/* 1 value pushed */
0 
RCVT[ ]	/* ReadCVT */
IF[ ]	/* If */
PUSHW[ ]	/* 1 value pushed */
25 
MDAP[1]	/* MoveDirectAbsPt */
ELSE[ ]	/* Else */
PUSHW[ ]	/* 2 values pushed */
25 1 
MIAP[0]	/* MoveIndirectAbsPt */
EIF[ ]	/* EndIf */
PUSHW[ ]	/* 1 value pushed */
0 
RCVT[ ]	/* ReadCVT */
IF[ ]	/* If */
PUSHW[ ]	/* 1 value pushed */
32 
MDAP[1]	/* MoveDirectAbsPt */
ELSE[ ]	/* Else */
PUSHW[ ]	/* 2 values pushed */
32 1 
MIAP[0]	/* MoveIndirectAbsPt */
EIF[ ]	/* EndIf */
PUSHW[ ]	/* 3 values pushed */
35 46 3 
CALL[ ]	/* CallFunction */
PUSHW[ ]	/* 1 value pushed */
32 
SRP0[ ]	/* SetRefPoint0 */
PUSHW[ ]	/* 1 value pushed */
0 
MDRP[11100]	/* MoveDirectRelPt */
PUSHW[ ]	/* 1 value pushed */
17 
MDRP[10000]	/* MoveDirectRelPt */
PUSHW[ ]	/* 1 value pushed */
8 
SRP0[ ]	/* SetRefPoint0 */
PUSHW[ ]	/* 1 value pushed */
38 
MDRP[11100]	/* MoveDirectRelPt */
NPUSHW[ ]	/* 5 values pushed */
217 38 233 38 2 
DELTAP1[ ]	/* DeltaExceptionP1 */
NPUSHW[ ]	/* 27 values pushed */
8 38 24 38 40 38 56 38 72 38 88 38 104 38 120 38 136 38 152 38 168 38 184 38 200 38 13 
DELTAP1[ ]	/* DeltaExceptionP1 */
PUSHW[ ]	/* 1 value pushed */
17 
SRP0[ ]	/* SetRefPoint0 */
PUSHW[ ]	/* 1 value pushed */
43 
MDRP[10000]	/* MoveDirectRelPt */
IUP[0]	/* InterpolateUntPts */
IUP[1]	/* InterpolateUntPts */";
};
width = 2081;
}
);
leftKerningGroup = uni042F;
note = A;
rightKerningGroup = uni0410;
unicode = 0041;
},
{
glyphname = AE;
lastChange = "2021-12-17 23:42:19 +0000";
layers = (
{
anchors = (
{
name = bottom;
position = "{1609, 0}";
},
{
name = top;
position = "{1597, 1850}";
}
);
background = {
paths = (
{
closed = 0;
nodes = (
"1401 1850 LINE",
"740 1850 LINE SMOOTH",
"431 1850 OFFCURVE",
"290 1702 OFFCURVE",
"290 1380 CURVE SMOOTH",
"290 494 LINE SMOOTH",
"290 141 OFFCURVE",
"256 79 OFFCURVE",
"60 79 CURVE",
"60 0 LINE",
"934 0 LINE",
"934 79 LINE",
"764 79 OFFCURVE",
"740 141 OFFCURVE",
"740 494 CURVE SMOOTH",
"740 1380 LINE SMOOTH",
"740 1672 OFFCURVE",
"804 1740 OFFCURVE",
"1070 1740 CURVE SMOOTH",
"1337 1740 OFFCURVE",
"1401 1672 OFFCURVE",
"1401 1380 CURVE SMOOTH",
"1401 494 LINE SMOOTH",
"1401 141 OFFCURVE",
"1377 79 OFFCURVE",
"1207 79 CURVE",
"1207 0 LINE",
"2081 0 LINE",
"2081 79 LINE",
"1885 79 OFFCURVE",
"1851 141 OFFCURVE",
"1851 494 CURVE SMOOTH",
"1851 1380 LINE SMOOTH"
);
},
{
closed = 1;
nodes = (
"1538 764 LINE",
"1538 884 LINE",
"616 884 LINE",
"616 764 LINE"
);
},
{
closed = 1;
nodes = (
"3802 0 LINE",
"3752 570 LINE",
"3652 570 LINE",
"3618 264 OFFCURVE",
"3485 120 OFFCURVE",
"3185 120 CURVE SMOOTH",
"3000 120 OFFCURVE",
"2961 175 OFFCURVE",
"2961 493 CURVE SMOOTH",
"2961 1357 LINE SMOOTH",
"2961 1675 OFFCURVE",
"3000 1730 OFFCURVE",
"3185 1730 CURVE SMOOTH",
"3485 1730 OFFCURVE",
"3618 1586 OFFCURVE",
"3652 1280 CURVE",
"3752 1280 LINE",
"3802 1850 LINE",
"2221 1850 LINE",
"2221 1771 LINE",
"2476 1771 OFFCURVE",
"2521 1709 OFFCURVE",
"2521 1357 CURVE SMOOTH",
"2521 494 LINE SMOOTH",
"2521 141 OFFCURVE",
"2476 79 OFFCURVE",
"2221 79 CURVE",
"2221 0 LINE"
);
},
{
closed = 1;
nodes = (
"3489 854 LINE",
"3489 994 LINE",
"2597 994 LINE",
"2597 854 LINE"
);
}
);
};
layerId = "E4BC606E-CD30-42C5-8BF2-1DD2ABB89119";
paths = (
{
closed = 1;
nodes = (
"740 1850 LINE SMOOTH",
"429 1850 OFFCURVE",
"290 1702 OFFCURVE",
"290 1380 CURVE SMOOTH",
"290 494 LINE SMOOTH",
"290 141 OFFCURVE",
"256 79 OFFCURVE",
"60 79 CURVE",
"60 0 LINE",
"934 0 LINE",
"934 79 LINE",
"764 79 OFFCURVE",
"740 141 OFFCURVE",
"740 494 CURVE SMOOTH",
"740 1380 LINE SMOOTH",
"740 1672 OFFCURVE",
"804 1740 OFFCURVE",
"1070 1740 CURVE SMOOTH",
"1317 1740 OFFCURVE",
"1381 1672 OFFCURVE",
"1381 1380 CURVE SMOOTH",
"1381 494 LINE SMOOTH",
"1381 141 OFFCURVE",
"1357 79 OFFCURVE",
"1187 79 CURVE",
"1187 0 LINE",
"2628 0 LINE",
"2578 570 LINE",
"2478 570 LINE",
"2444 264 OFFCURVE",
"2311 120 OFFCURVE",
"2051 120 CURVE SMOOTH",
"1866 120 OFFCURVE",
"1827 175 OFFCURVE",
"1827 493 CURVE SMOOTH",
"1827 1357 LINE SMOOTH",
"1827 1675 OFFCURVE",
"1866 1730 OFFCURVE",
"2051 1730 CURVE SMOOTH",
"2311 1730 OFFCURVE",
"2444 1586 OFFCURVE",
"2478 1280 CURVE",
"2578 1280 LINE",
"2628 1850 LINE"
);
},
{
closed = 1;
nodes = (
"2315 834 LINE",
"2315 974 LINE",
"583 974 LINE",
"583 834 LINE"
);
}
);
width = 2733;
}
);
leftMetricsKey = A;
rightMetricsKey = E;
unicode = 00C6;
},
{
glyphname = B;
lastChange = "2021-12-17 23:42:19 +0000";
layers = (
{
anchors = (
{
name = bottom;
position = "{1079, 0}";
},
{
name = center;
position = "{597, 925}";
},
{
name = top;
position = "{1079, 1850}";
}
);
background = {
paths = (
{
closed = 1;
nodes = (
"1730 1404 LINE",
"1625 1404 LINE",
"1625 1694 OFFCURVE",
"1455 1850 OFFCURVE",
"1160 1850 CURVE SMOOTH",
"720 1850 LINE SMOOTH",
"428 1850 OFFCURVE",
"260 1710 OFFCURVE",
"260 1450 CURVE SMOOTH",
"260 1270 LINE SMOOTH",
"260 1010 OFFCURVE",
"428 870 OFFCURVE",
"720 870 CURVE SMOOTH",
"1280 870 LINE SMOOTH",
"1573 870 OFFCURVE",
"1730 1010 OFFCURVE",
"1730 1270 CURVE SMOOTH"
);
},
{
closed = 1;
nodes = (
"1290 970 LINE",
"1020 970 LINE SMOOTH",
"772 970 OFFCURVE",
"710 1030 OFFCURVE",
"710 1270 CURVE SMOOTH",
"710 1450 LINE SMOOTH",
"710 1690 OFFCURVE",
"772 1750 OFFCURVE",
"1020 1750 CURVE SMOOTH",
"1225 1750 OFFCURVE",
"1290 1690 OFFCURVE",
"1290 1450 CURVE SMOOTH"
);
},
{
closed = 1;
nodes = (
"1290 1010 OFFCURVE",
"1447 870 OFFCURVE",
"1740 870 CURVE SMOOTH",
"2300 870 LINE SMOOTH",
"2592 870 OFFCURVE",
"2760 1010 OFFCURVE",
"2760 1270 CURVE SMOOTH",
"2760 1450 LINE SMOOTH",
"2760 1710 OFFCURVE",
"2592 1850 OFFCURVE",
"2300 1850 CURVE SMOOTH",
"1860 1850 LINE SMOOTH",
"1555 1850 OFFCURVE",
"1380 1694 OFFCURVE",
"1380 1404 CURVE",
"1290 1404 LINE",
"1290 1270 LINE SMOOTH"
);
},
{
closed = 1;
nodes = (
"1730 1690 OFFCURVE",
"1795 1750 OFFCURVE",
"2000 1750 CURVE SMOOTH",
"2230 1750 OFFCURVE",
"2310 1690 OFFCURVE",
"2310 1450 CURVE SMOOTH",
"2310 1270 LINE SMOOTH",
"2310 1030 OFFCURVE",
"2230 970 OFFCURVE",
"2000 970 CURVE SMOOTH",
"1730 970 LINE",
"1730 1450 LINE SMOOTH"
);
},
{
closed = 1;
nodes = (
"2055 0 LINE",
"2055 80 LINE",
"1772 80 OFFCURVE",
"1730 128 OFFCURVE",
"1730 400 CURVE SMOOTH",
"1730 1312 LINE",
"1290 1312 LINE",
"1290 400 LINE SMOOTH",
"1290 128 OFFCURVE",
"1248 80 OFFCURVE",
"965 80 CURVE",
"965 0 LINE"
);
},
{
closed = 1;
nodes = (
"502 944 OFFCURVE",
"290 743 OFFCURVE",
"290 467 CURVE SMOOTH",
"290 230 OFFCURVE",
"207 80 OFFCURVE",
"40 80 CURVE",
"40 0 LINE",
"330 0 LINE SMOOTH",
"627 0 OFFCURVE",
"745 124 OFFCURVE",
"745 510 CURVE SMOOTH",
"745 752 OFFCURVE",
"830 872 OFFCURVE",
"1030 872 CURVE",
"1030 944 LINE",
"750 944 LINE SMOOTH"
);
},
{
closed = 1;
nodes = (
"1990 944 LINE",
"1990 872 LINE",
"2190 872 OFFCURVE",
"2275 752 OFFCURVE",
"2275 510 CURVE SMOOTH",
"2275 124 OFFCURVE",
"2393 0 OFFCURVE",
"2690 0 CURVE SMOOTH",
"2980 0 LINE",
"2980 80 LINE",
"2813 80 OFFCURVE",
"2730 230 OFFCURVE",
"2730 467 CURVE SMOOTH",
"2730 743 OFFCURVE",
"2518 944 OFFCURVE",
"2270 944 CURVE SMOOTH"
);
}
);
};
layerId = "E4BC606E-CD30-42C5-8BF2-1DD2ABB89119";
paths = (
{
closed = 1;
nodes = (
"1390 0 LINE SMOOTH",
"1676 0 OFFCURVE",
"1840 140 OFFCURVE",
"1840 400 CURVE SMOOTH",
"1840 590 LINE SMOOTH",
"1840 850 OFFCURVE",
"1650 990 OFFCURVE",
"1320 990 CURVE SMOOTH",
"1030 990 LINE",
"1030 890 LINE",
"1320 890 LINE SMOOTH",
"1619 890 OFFCURVE",
"1790 1023 OFFCURVE",
"1790 1270 CURVE SMOOTH",
"1790 1450 LINE SMOOTH",
"1790 1710 OFFCURVE",
"1626 1850 OFFCURVE",
"1340 1850 CURVE SMOOTH",
"100 1850 LINE",
"100 1771 LINE",
"338 1771 OFFCURVE",
"380 1709 OFFCURVE",
"380 1356 CURVE SMOOTH",
"380 494 LINE SMOOTH",
"380 141 OFFCURVE",
"338 79 OFFCURVE",
"100 79 CURVE",
"100 0 LINE"
);
},
{
closed = 1;
nodes = (
"820 100 OFFCURVE",
"820 100 OFFCURVE",
"820 400 CURVE SMOOTH",
"820 890 LINE",
"1090 890 LINE SMOOTH",
"1320 890 OFFCURVE",
"1400 830 OFFCURVE",
"1400 590 CURVE SMOOTH",
"1400 400 LINE SMOOTH",
"1400 160 OFFCURVE",
"1320 100 OFFCURVE",
"1090 100 CURVE SMOOTH"
);
},
{
closed = 1;
nodes = (
"820 1450 LINE SMOOTH",
"820 1750 OFFCURVE",
"820 1750 OFFCURVE",
"1040 1750 CURVE SMOOTH",
"1270 1750 OFFCURVE",
"1350 1690 OFFCURVE",
"1350 1450 CURVE SMOOTH",
"1350 1270 LINE SMOOTH",
"1350 1046 OFFCURVE",
"1283 990 OFFCURVE",
"1090 990 CURVE SMOOTH",
"820 990 LINE"
);
}
);
userData = {
assembly = "PUSHW[ ]	/* 1 value pushed */
0 
CALL[ ]	/* CallFunction */
SVTCA[0]	/* SetFreedomAndProjectionVectorToAxis */
PUSHW[ ]	/* 1 value pushed */
0 
RCVT[ ]	/* ReadCVT */
IF[ ]	/* If */
PUSHW[ ]	/* 1 value pushed */
0 
MDAP[1]	/* MoveDirectAbsPt */
ELSE[ ]	/* Else */
PUSHW[ ]	/* 2 values pushed */
0 7 
MIAP[0]	/* MoveIndirectAbsPt */
EIF[ ]	/* EndIf */
PUSHW[ ]	/* 1 value pushed */
0 
RCVT[ ]	/* ReadCVT */
IF[ ]	/* If */
PUSHW[ ]	/* 1 value pushed */
7 
MDAP[1]	/* MoveDirectAbsPt */
ELSE[ ]	/* Else */
PUSHW[ ]	/* 2 values pushed */
7 7 
MIAP[0]	/* MoveIndirectAbsPt */
EIF[ ]	/* EndIf */
PUSHW[ ]	/* 1 value pushed */
0 
RCVT[ ]	/* ReadCVT */
IF[ ]	/* If */
PUSHW[ ]	/* 1 value pushed */
26 
MDAP[1]	/* MoveDirectAbsPt */
ELSE[ ]	/* Else */
PUSHW[ ]	/* 2 values pushed */
26 1 
MIAP[0]	/* MoveIndirectAbsPt */
EIF[ ]	/* EndIf */
PUSHW[ ]	/* 1 value pushed */
0 
RCVT[ ]	/* ReadCVT */
IF[ ]	/* If */
PUSHW[ ]	/* 1 value pushed */
33 
MDAP[1]	/* MoveDirectAbsPt */
ELSE[ ]	/* Else */
PUSHW[ ]	/* 2 values pushed */
33 1 
MIAP[0]	/* MoveIndirectAbsPt */
EIF[ ]	/* EndIf */
PUSHW[ ]	/* 3 values pushed */
50 48 3 
CALL[ ]	/* CallFunction */
PUSHW[ ]	/* 3 values pushed */
17 48 50 
SRP1[ ]	/* SetRefPoint1 */
SRP2[ ]	/* SetRefPoint2 */
IP[ ]	/* InterpolatePts */
PUSHW[ ]	/* 1 value pushed */
33 
SRP0[ ]	/* SetRefPoint0 */
PUSHW[ ]	/* 1 value pushed */
35 
MDRP[11100]	/* MoveDirectRelPt */
PUSHW[ ]	/* 1 value pushed */
0 
SRP0[ ]	/* SetRefPoint0 */
PUSHW[ ]	/* 1 value pushed */
40 
MDRP[11100]	/* MoveDirectRelPt */
PUSHW[ ]	/* 1 value pushed */
35 
SRP0[ ]	/* SetRefPoint0 */
PUSHW[ ]	/* 1 value pushed */
43 
MDRP[10000]	/* MoveDirectRelPt */
PUSHW[ ]	/* 1 value pushed */
40 
SRP0[ ]	/* SetRefPoint0 */
PUSHW[ ]	/* 1 value pushed */
55 
MDRP[10000]	/* MoveDirectRelPt */
IUP[0]	/* InterpolateUntPts */
IUP[1]	/* InterpolateUntPts */";
};
width = 2042;
},
{
anchors = (
{
name = bottom;
position = "{1079, 0}";
},
{
name = center;
position = "{597, 925}";
},
{
name = top;
position = "{1079, 1850}";
}
);
associatedMasterId = "E4BC606E-CD30-42C5-8BF2-1DD2ABB89119";
background = {
paths = (
{
closed = 1;
nodes = (
"1473 0 LINE SMOOTH",
"1790 0 OFFCURVE",
"1973 173 OFFCURVE",
"1973 493 CURVE SMOOTH",
"1973 1357 LINE SMOOTH",
"1973 1677 OFFCURVE",
"1790 1850 OFFCURVE",
"1473 1850 CURVE SMOOTH",
"100 1850 LINE",
"100 1771 LINE",
"338 1771 OFFCURVE",
"380 1709 OFFCURVE",
"380 1356 CURVE SMOOTH",
"380 494 LINE SMOOTH",
"380 141 OFFCURVE",
"338 79 OFFCURVE",
"100 79 CURVE",
"100 0 LINE"
);
},
{
closed = 1;
nodes = (
"820 123 OFFCURVE",
"820 123 OFFCURVE",
"820 494 CURVE SMOOTH",
"820 1356 LINE SMOOTH",
"820 1727 OFFCURVE",
"820 1727 OFFCURVE",
"1153 1727 CURVE SMOOTH",
"1449 1727 OFFCURVE",
"1523 1653 OFFCURVE",
"1523 1357 CURVE SMOOTH",
"1523 493 LINE SMOOTH",
"1523 197 OFFCURVE",
"1449 123 OFFCURVE",
"1153 123 CURVE SMOOTH"
);
}
);
};
layerId = "E2087303-049B-48FD-83F5-4B4C5CD6BD86";
name = "11 Dec 21, 12:01";
paths = (
{
closed = 1;
nodes = (
"1473 0 LINE SMOOTH",
"1790 0 OFFCURVE",
"1973 173 OFFCURVE",
"1973 493 CURVE SMOOTH",
"1973 1357 LINE SMOOTH",
"1973 1677 OFFCURVE",
"1790 1850 OFFCURVE",
"1473 1850 CURVE SMOOTH",
"100 1850 LINE",
"100 1771 LINE",
"338 1771 OFFCURVE",
"380 1709 OFFCURVE",
"380 1356 CURVE SMOOTH",
"380 494 LINE SMOOTH",
"380 141 OFFCURVE",
"338 79 OFFCURVE",
"100 79 CURVE",
"100 0 LINE"
);
},
{
closed = 1;
nodes = (
"820 123 OFFCURVE",
"820 123 OFFCURVE",
"820 494 CURVE SMOOTH",
"820 1356 LINE SMOOTH",
"820 1727 OFFCURVE",
"820 1727 OFFCURVE",
"1153 1727 CURVE SMOOTH",
"1449 1727 OFFCURVE",
"1523 1653 OFFCURVE",
"1523 1357 CURVE SMOOTH",
"1523 493 LINE SMOOTH",
"1523 197 OFFCURVE",
"1449 123 OFFCURVE",
"1153 123 CURVE SMOOTH"
);
}
);
userData = {
assembly = "PUSHW[ ]	/* 1 value pushed */
0 
CALL[ ]	/* CallFunction */
SVTCA[0]	/* SetFreedomAndProjectionVectorToAxis */
PUSHW[ ]	/* 1 value pushed */
0 
RCVT[ ]	/* ReadCVT */
IF[ ]	/* If */
PUSHW[ ]	/* 1 value pushed */
0 
MDAP[1]	/* MoveDirectAbsPt */
ELSE[ ]	/* Else */
PUSHW[ ]	/* 2 values pushed */
0 7 
MIAP[0]	/* MoveIndirectAbsPt */
EIF[ ]	/* EndIf */
PUSHW[ ]	/* 1 value pushed */
0 
RCVT[ ]	/* ReadCVT */
IF[ ]	/* If */
PUSHW[ ]	/* 1 value pushed */
7 
MDAP[1]	/* MoveDirectAbsPt */
ELSE[ ]	/* Else */
PUSHW[ ]	/* 2 values pushed */
7 7 
MIAP[0]	/* MoveIndirectAbsPt */
EIF[ ]	/* EndIf */
PUSHW[ ]	/* 1 value pushed */
0 
RCVT[ ]	/* ReadCVT */
IF[ ]	/* If */
PUSHW[ ]	/* 1 value pushed */
26 
MDAP[1]	/* MoveDirectAbsPt */
ELSE[ ]	/* Else */
PUSHW[ ]	/* 2 values pushed */
26 1 
MIAP[0]	/* MoveIndirectAbsPt */
EIF[ ]	/* EndIf */
PUSHW[ ]	/* 1 value pushed */
0 
RCVT[ ]	/* ReadCVT */
IF[ ]	/* If */
PUSHW[ ]	/* 1 value pushed */
33 
MDAP[1]	/* MoveDirectAbsPt */
ELSE[ ]	/* Else */
PUSHW[ ]	/* 2 values pushed */
33 1 
MIAP[0]	/* MoveIndirectAbsPt */
EIF[ ]	/* EndIf */
PUSHW[ ]	/* 3 values pushed */
50 48 3 
CALL[ ]	/* CallFunction */
PUSHW[ ]	/* 3 values pushed */
17 48 50 
SRP1[ ]	/* SetRefPoint1 */
SRP2[ ]	/* SetRefPoint2 */
IP[ ]	/* InterpolatePts */
PUSHW[ ]	/* 1 value pushed */
33 
SRP0[ ]	/* SetRefPoint0 */
PUSHW[ ]	/* 1 value pushed */
35 
MDRP[11100]	/* MoveDirectRelPt */
PUSHW[ ]	/* 1 value pushed */
0 
SRP0[ ]	/* SetRefPoint0 */
PUSHW[ ]	/* 1 value pushed */
40 
MDRP[11100]	/* MoveDirectRelPt */
PUSHW[ ]	/* 1 value pushed */
35 
SRP0[ ]	/* SetRefPoint0 */
PUSHW[ ]	/* 1 value pushed */
43 
MDRP[10000]	/* MoveDirectRelPt */
PUSHW[ ]	/* 1 value pushed */
40 
SRP0[ ]	/* SetRefPoint0 */
PUSHW[ ]	/* 1 value pushed */
55 
MDRP[10000]	/* MoveDirectRelPt */
IUP[0]	/* InterpolateUntPts */
IUP[1]	/* InterpolateUntPts */";
};
width = 2158;
}
);
leftKerningGroup = uni0412;
note = B;
rightKerningGroup = uni041E;
unicode = 0042;
},
{
glyphname = C;
lastChange = "2021-12-17 23:42:19 +0000";
layers = (
{
anchors = (
{
name = bottom;
position = "{955, 0}";
},
{
name = top;
position = "{955, 1850}";
}
);
layerId = "E4BC606E-CD30-42C5-8BF2-1DD2ABB89119";
paths = (
{
closed = 1;
nodes = (
"655 1357 LINE SMOOTH",
"655 1653 OFFCURVE",
"726 1727 OFFCURVE",
"965 1727 CURVE SMOOTH",
"1223 1727 OFFCURVE",
"1295 1734 OFFCURVE",
"1295 1670 CURVE SMOOTH",
"1295 1625 OFFCURVE",
"1233 1596 OFFCURVE",
"1233 1469 CURVE SMOOTH",
"1233 1339 OFFCURVE",
"1331 1252 OFFCURVE",
"1464 1252 CURVE SMOOTH",
"1615 1252 OFFCURVE",
"1705 1354 OFFCURVE",
"1705 1508 CURVE SMOOTH",
"1705 1730 OFFCURVE",
"1537 1850 OFFCURVE",
"1225 1850 CURVE SMOOTH",
"685 1850 LINE SMOOTH",
"368 1850 OFFCURVE",
"185 1677 OFFCURVE",
"185 1357 CURVE SMOOTH",
"185 493 LINE SMOOTH",
"185 173 OFFCURVE",
"368 0 OFFCURVE",
"685 0 CURVE SMOOTH",
"1225 0 LINE SMOOTH",
"1537 0 OFFCURVE",
"1705 120 OFFCURVE",
"1705 342 CURVE SMOOTH",
"1705 496 OFFCURVE",
"1615 598 OFFCURVE",
"1464 598 CURVE SMOOTH",
"1331 598 OFFCURVE",
"1233 511 OFFCURVE",
"1233 381 CURVE SMOOTH",
"1233 254 OFFCURVE",
"1295 225 OFFCURVE",
"1295 180 CURVE SMOOTH",
"1295 116 OFFCURVE",
"1223 123 OFFCURVE",
"965 123 CURVE SMOOTH",
"726 123 OFFCURVE",
"655 197 OFFCURVE",
"655 493 CURVE SMOOTH"
);
}
);
userData = {
assembly = "PUSHW[ ]	/* 1 value pushed */
0 
CALL[ ]	/* CallFunction */
SVTCA[0]	/* SetFreedomAndProjectionVectorToAxis */
PUSHW[ ]	/* 1 value pushed */
0 
RCVT[ ]	/* ReadCVT */
IF[ ]	/* If */
PUSHW[ ]	/* 1 value pushed */
6 
MDAP[1]	/* MoveDirectAbsPt */
ELSE[ ]	/* Else */
PUSHW[ ]	/* 2 values pushed */
6 7 
MIAP[0]	/* MoveIndirectAbsPt */
EIF[ ]	/* EndIf */
PUSHW[ ]	/* 1 value pushed */
0 
RCVT[ ]	/* ReadCVT */
IF[ ]	/* If */
PUSHW[ ]	/* 1 value pushed */
28 
MDAP[1]	/* MoveDirectAbsPt */
ELSE[ ]	/* Else */
PUSHW[ ]	/* 2 values pushed */
28 1 
MIAP[0]	/* MoveIndirectAbsPt */
EIF[ ]	/* EndIf */
PUSHW[ ]	/* 1 value pushed */
6 
SRP0[ ]	/* SetRefPoint0 */
PUSHW[ ]	/* 1 value pushed */
15 
MDRP[11100]	/* MoveDirectRelPt */
NPUSHW[ ]	/* 5 values pushed */
217 15 233 15 2 
DELTAP1[ ]	/* DeltaExceptionP1 */
NPUSHW[ ]	/* 27 values pushed */
8 15 24 15 40 15 56 15 72 15 88 15 104 15 120 15 136 15 152 15 168 15 184 15 200 15 13 
DELTAP1[ ]	/* DeltaExceptionP1 */
PUSHW[ ]	/* 1 value pushed */
28 
SRP0[ ]	/* SetRefPoint0 */
PUSHW[ ]	/* 1 value pushed */
20 
MDRP[11100]	/* MoveDirectRelPt */
NPUSHW[ ]	/* 27 values pushed */
7 20 23 20 39 20 55 20 71 20 87 20 103 20 119 20 135 20 151 20 167 20 183 20 199 20 13 
DELTAP1[ ]	/* DeltaExceptionP1 */
NPUSHW[ ]	/* 5 values pushed */
214 20 230 20 2 
DELTAP1[ ]	/* DeltaExceptionP1 */
IUP[0]	/* InterpolateUntPts */
IUP[1]	/* InterpolateUntPts */";
};
width = 1810;
}
);
leftKerningGroup = uni041E;
leftMetricsKey = O;
note = C;
rightKerningGroup = uni0421;
unicode = 0043;
},
{
glyphname = D;
lastChange = "2021-12-17 23:42:19 +0000";
layers = (
{
anchors = (
{
name = bottom;
position = "{1079, 0}";
},
{
name = center;
position = "{597, 925}";
},
{
name = top;
position = "{1079, 1850}";
}
);
layerId = "E4BC606E-CD30-42C5-8BF2-1DD2ABB89119";
paths = (
{
closed = 1;
nodes = (
"1453 0 LINE SMOOTH",
"1770 0 OFFCURVE",
"1953 173 OFFCURVE",
"1953 493 CURVE SMOOTH",
"1953 1357 LINE SMOOTH",
"1953 1677 OFFCURVE",
"1770 1850 OFFCURVE",
"1453 1850 CURVE SMOOTH",
"100 1850 LINE",
"100 1771 LINE",
"338 1771 OFFCURVE",
"380 1709 OFFCURVE",
"380 1356 CURVE SMOOTH",
"380 494 LINE SMOOTH",
"380 141 OFFCURVE",
"338 79 OFFCURVE",
"100 79 CURVE",
"100 0 LINE"
);
},
{
closed = 1;
nodes = (
"820 123 OFFCURVE",
"820 123 OFFCURVE",
"820 494 CURVE SMOOTH",
"820 1356 LINE SMOOTH",
"820 1727 OFFCURVE",
"820 1727 OFFCURVE",
"1133 1727 CURVE SMOOTH",
"1429 1727 OFFCURVE",
"1503 1653 OFFCURVE",
"1503 1357 CURVE SMOOTH",
"1503 493 LINE SMOOTH",
"1503 197 OFFCURVE",
"1429 123 OFFCURVE",
"1133 123 CURVE SMOOTH"
);
}
);
userData = {
assembly = "PUSHW[ ]	/* 1 value pushed */
0 
CALL[ ]	/* CallFunction */
SVTCA[0]	/* SetFreedomAndProjectionVectorToAxis */
PUSHW[ ]	/* 1 value pushed */
0 
RCVT[ ]	/* ReadCVT */
IF[ ]	/* If */
PUSHW[ ]	/* 1 value pushed */
6 
MDAP[1]	/* MoveDirectAbsPt */
ELSE[ ]	/* Else */
PUSHW[ ]	/* 2 values pushed */
6 7 
MIAP[0]	/* MoveIndirectAbsPt */
EIF[ ]	/* EndIf */
PUSHW[ ]	/* 1 value pushed */
0 
RCVT[ ]	/* ReadCVT */
IF[ ]	/* If */
PUSHW[ ]	/* 1 value pushed */
13 
MDAP[1]	/* MoveDirectAbsPt */
ELSE[ ]	/* Else */
PUSHW[ ]	/* 2 values pushed */
13 7 
MIAP[0]	/* MoveIndirectAbsPt */
EIF[ ]	/* EndIf */
PUSHW[ ]	/* 1 value pushed */
0 
RCVT[ ]	/* ReadCVT */
IF[ ]	/* If */
PUSHW[ ]	/* 1 value pushed */
25 
MDAP[1]	/* MoveDirectAbsPt */
ELSE[ ]	/* Else */
PUSHW[ ]	/* 2 values pushed */
25 1 
MIAP[0]	/* MoveIndirectAbsPt */
EIF[ ]	/* EndIf */
PUSHW[ ]	/* 1 value pushed */
0 
RCVT[ ]	/* ReadCVT */
IF[ ]	/* If */
PUSHW[ ]	/* 1 value pushed */
32 
MDAP[1]	/* MoveDirectAbsPt */
ELSE[ ]	/* Else */
PUSHW[ ]	/* 2 values pushed */
32 1 
MIAP[0]	/* MoveIndirectAbsPt */
EIF[ ]	/* EndIf */
PUSHW[ ]	/* 1 value pushed */
0 
MDRP[11100]	/* MoveDirectRelPt */
PUSHW[ ]	/* 1 value pushed */
6 
SRP0[ ]	/* SetRefPoint0 */
PUSHW[ ]	/* 1 value pushed */
5 
MDRP[11100]	/* MoveDirectRelPt */
PUSHW[ ]	/* 1 value pushed */
0 
SRP0[ ]	/* SetRefPoint0 */
PUSHW[ ]	/* 1 value pushed */
36 
MDRP[10000]	/* MoveDirectRelPt */
PUSHW[ ]	/* 1 value pushed */
5 
SRP0[ ]	/* SetRefPoint0 */
PUSHW[ ]	/* 1 value pushed */
41 
MDRP[10000]	/* MoveDirectRelPt */
IUP[0]	/* InterpolateUntPts */
IUP[1]	/* InterpolateUntPts */";
};
width = 2138;
}
);
leftKerningGroup = uni0412;
note = D;
rightKerningGroup = uni041E;
rightMetricsKey = O;
unicode = 0044;
},
{
glyphname = Eth;
lastChange = "2021-12-17 23:42:19 +0000";
layers = (
{
anchors = (
{
name = bottom;
position = "{1079, 0}";
},
{
name = center;
position = "{597, 925}";
},
{
name = top;
position = "{1079, 1850}";
}
);
layerId = "E4BC606E-CD30-42C5-8BF2-1DD2ABB89119";
paths = (
{
closed = 1;
nodes = (
"1473 0 LINE SMOOTH",
"1790 0 OFFCURVE",
"1973 173 OFFCURVE",
"1973 493 CURVE SMOOTH",
"1973 1357 LINE SMOOTH",
"1973 1677 OFFCURVE",
"1790 1850 OFFCURVE",
"1473 1850 CURVE SMOOTH",
"100 1850 LINE",
"100 1771 LINE",
"338 1771 OFFCURVE",
"380 1709 OFFCURVE",
"380 1356 CURVE SMOOTH",
"380 494 LINE SMOOTH",
"380 141 OFFCURVE",
"338 79 OFFCURVE",
"100 79 CURVE",
"100 0 LINE"
);
},
{
closed = 1;
nodes = (
"820 123 OFFCURVE",
"820 123 OFFCURVE",
"820 494 CURVE SMOOTH",
"820 1356 LINE SMOOTH",
"820 1727 OFFCURVE",
"820 1727 OFFCURVE",
"1153 1727 CURVE SMOOTH",
"1449 1727 OFFCURVE",
"1523 1653 OFFCURVE",
"1523 1357 CURVE SMOOTH",
"1523 493 LINE SMOOTH",
"1523 197 OFFCURVE",
"1449 123 OFFCURVE",
"1153 123 CURVE SMOOTH"
);
},
{
closed = 1;
nodes = (
"1148 854 LINE",
"1148 994 LINE",
"156 994 LINE",
"156 854 LINE"
);
}
);
width = 2158;
}
);
unicode = 00D0;
},
{
glyphname = E;
lastChange = "2021-12-17 23:42:19 +0000";
layers = (
{
anchors = (
{
name = bottom;
position = "{883, 0}";
},
{
name = ogonek;
position = "{1589, 10}";
},
{
name = top;
position = "{913, 1850}";
},
{
name = topleft;
position = "{20, 1850}";
}
);
layerId = "E4BC606E-CD30-42C5-8BF2-1DD2ABB89119";
paths = (
{
closed = 1;
nodes = (
"1661 0 LINE",
"1611 570 LINE",
"1511 570 LINE",
"1477 264 OFFCURVE",
"1344 120 OFFCURVE",
"1044 120 CURVE SMOOTH",
"859 120 OFFCURVE",
"820 175 OFFCURVE",
"820 493 CURVE SMOOTH",
"820 1357 LINE SMOOTH",
"820 1675 OFFCURVE",
"859 1730 OFFCURVE",
"1044 1730 CURVE SMOOTH",
"1344 1730 OFFCURVE",
"1477 1586 OFFCURVE",
"1511 1280 CURVE",
"1611 1280 LINE",
"1661 1850 LINE",
"80 1850 LINE",
"80 1771 LINE",
"335 1771 OFFCURVE",
"380 1709 OFFCURVE",
"380 1357 CURVE SMOOTH",
"380 494 LINE SMOOTH",
"380 141 OFFCURVE",
"335 79 OFFCURVE",
"80 79 CURVE",
"80 0 LINE"
);
},
{
closed = 1;
nodes = (
"1348 854 LINE",
"1348 994 LINE",
"456 994 LINE",
"456 854 LINE"
);
}
);
userData = {
assembly = "PUSHW[ ]	/* 1 value pushed */
0 
CALL[ ]	/* CallFunction */
SVTCA[0]	/* SetFreedomAndProjectionVectorToAxis */
PUSHW[ ]	/* 1 value pushed */
0 
RCVT[ ]	/* ReadCVT */
IF[ ]	/* If */
PUSHW[ ]	/* 1 value pushed */
0 
MDAP[1]	/* MoveDirectAbsPt */
ELSE[ ]	/* Else */
PUSHW[ ]	/* 2 values pushed */
0 7 
MIAP[0]	/* MoveIndirectAbsPt */
EIF[ ]	/* EndIf */
PUSHW[ ]	/* 1 value pushed */
0 
RCVT[ ]	/* ReadCVT */
IF[ ]	/* If */
PUSHW[ ]	/* 1 value pushed */
7 
MDAP[1]	/* MoveDirectAbsPt */
ELSE[ ]	/* Else */
PUSHW[ ]	/* 2 values pushed */
7 7 
MIAP[0]	/* MoveIndirectAbsPt */
EIF[ ]	/* EndIf */
PUSHW[ ]	/* 1 value pushed */
0 
RCVT[ ]	/* ReadCVT */
IF[ ]	/* If */
PUSHW[ ]	/* 1 value pushed */
37 
MDAP[1]	/* MoveDirectAbsPt */
ELSE[ ]	/* Else */
PUSHW[ ]	/* 2 values pushed */
37 1 
MIAP[0]	/* MoveIndirectAbsPt */
EIF[ ]	/* EndIf */
PUSHW[ ]	/* 1 value pushed */
0 
RCVT[ ]	/* ReadCVT */
IF[ ]	/* If */
PUSHW[ ]	/* 1 value pushed */
44 
MDAP[1]	/* MoveDirectAbsPt */
ELSE[ ]	/* Else */
PUSHW[ ]	/* 2 values pushed */
44 1 
MIAP[0]	/* MoveIndirectAbsPt */
EIF[ ]	/* EndIf */
PUSHW[ ]	/* 3 values pushed */
22 23 3 
CALL[ ]	/* CallFunction */
PUSHW[ ]	/* 1 value pushed */
7 
SRP0[ ]	/* SetRefPoint0 */
PUSHW[ ]	/* 1 value pushed */
17 
MDRP[11100]	/* MoveDirectRelPt */
PUSHW[ ]	/* 1 value pushed */
44 
SRP0[ ]	/* SetRefPoint0 */
PUSHW[ ]	/* 1 value pushed */
27 
MDRP[11100]	/* MoveDirectRelPt */
PUSHW[ ]	/* 1 value pushed */
28 
MDRP[10000]	/* MoveDirectRelPt */
PUSHW[ ]	/* 1 value pushed */
46 
MDRP[10000]	/* MoveDirectRelPt */
PUSHW[ ]	/* 1 value pushed */
17 
SRP0[ ]	/* SetRefPoint0 */
PUSHW[ ]	/* 1 value pushed */
51 
MDRP[10000]	/* MoveDirectRelPt */
SVTCA[1]	/* SetFreedomAndProjectionVectorToAxis */
PUSHW[ ]	/* 3 values pushed */
9 10 3 
CALL[ ]	/* CallFunction */
PUSHW[ ]	/* 1 value pushed */
10 
SRP0[ ]	/* SetRefPoint0 */
PUSHW[ ]	/* 1 value pushed */
35 
MDRP[10000]	/* MoveDirectRelPt */
PUSHW[ ]	/* 1 value pushed */
9 
SRP0[ ]	/* SetRefPoint0 */
PUSHW[ ]	/* 1 value pushed */
36 
MDRP[10000]	/* MoveDirectRelPt */
PUSHW[ ]	/* 1 value pushed */
9 
SRP0[ ]	/* SetRefPoint0 */
PUSHW[ ]	/* 1 value pushed */
53 
MDRP[11100]	/* MoveDirectRelPt */
IUP[0]	/* InterpolateUntPts */
IUP[1]	/* InterpolateUntPts */";
};
width = 1766;
}
);
leftKerningGroup = uni0412;
note = E;
rightKerningGroup = uni0421;
rightMetricsKey = C;
unicode = 0045;
},
{
glyphname = F;
lastChange = "2021-12-17 23:42:19 +0000";
layers = (
{
anchors = (
{
name = bottom;
position = "{883, 0}";
},
{
name = ogonek;
position = "{1589, 10}";
},
{
name = top;
position = "{913, 1850}";
},
{
name = topleft;
position = "{20, 1850}";
}
);
layerId = "E4BC606E-CD30-42C5-8BF2-1DD2ABB89119";
paths = (
{
closed = 1;
nodes = (
"1270 0 LINE",
"1270 79 LINE",
"877 79 OFFCURVE",
"820 131 OFFCURVE",
"820 494 CURVE SMOOTH",
"820 1357 LINE SMOOTH",
"820 1675 OFFCURVE",
"861 1730 OFFCURVE",
"1054 1730 CURVE SMOOTH",
"1335 1730 OFFCURVE",
"1458 1586 OFFCURVE",
"1491 1280 CURVE",
"1591 1280 LINE",
"1641 1850 LINE",
"80 1850 LINE",
"80 1771 LINE",
"335 1771 OFFCURVE",
"380 1709 OFFCURVE",
"380 1357 CURVE SMOOTH",
"380 494 LINE SMOOTH",
"380 141 OFFCURVE",
"335 79 OFFCURVE",
"80 79 CURVE",
"80 0 LINE"
);
},
{
closed = 1;
nodes = (
"1348 804 LINE",
"1348 944 LINE",
"456 944 LINE",
"456 804 LINE"
);
}
);
userData = {
assembly = "PUSHW[ ]	/* 1 value pushed */
0 
CALL[ ]	/* CallFunction */
SVTCA[0]	/* SetFreedomAndProjectionVectorToAxis */
PUSHW[ ]	/* 1 value pushed */
0 
RCVT[ ]	/* ReadCVT */
IF[ ]	/* If */
PUSHW[ ]	/* 1 value pushed */
7 
MDAP[1]	/* MoveDirectAbsPt */
ELSE[ ]	/* Else */
PUSHW[ ]	/* 2 values pushed */
7 7 
MIAP[0]	/* MoveIndirectAbsPt */
EIF[ ]	/* EndIf */
PUSHW[ ]	/* 1 value pushed */
0 
RCVT[ ]	/* ReadCVT */
IF[ ]	/* If */
PUSHW[ ]	/* 1 value pushed */
14 
MDAP[1]	/* MoveDirectAbsPt */
ELSE[ ]	/* Else */
PUSHW[ ]	/* 2 values pushed */
14 7 
MIAP[0]	/* MoveIndirectAbsPt */
EIF[ ]	/* EndIf */
PUSHW[ ]	/* 1 value pushed */
0 
RCVT[ ]	/* ReadCVT */
IF[ ]	/* If */
PUSHW[ ]	/* 1 value pushed */
0 
MDAP[1]	/* MoveDirectAbsPt */
ELSE[ ]	/* Else */
PUSHW[ ]	/* 2 values pushed */
0 1 
MIAP[0]	/* MoveIndirectAbsPt */
EIF[ ]	/* EndIf */
PUSHW[ ]	/* 1 value pushed */
0 
RCVT[ ]	/* ReadCVT */
IF[ ]	/* If */
PUSHW[ ]	/* 1 value pushed */
35 
MDAP[1]	/* MoveDirectAbsPt */
ELSE[ ]	/* Else */
PUSHW[ ]	/* 2 values pushed */
35 1 
MIAP[0]	/* MoveIndirectAbsPt */
EIF[ ]	/* EndIf */
PUSHW[ ]	/* 3 values pushed */
29 30 3 
CALL[ ]	/* CallFunction */
PUSHW[ ]	/* 1 value pushed */
0 
SRP0[ ]	/* SetRefPoint0 */
PUSHW[ ]	/* 1 value pushed */
1 
MDRP[11100]	/* MoveDirectRelPt */
PUSHW[ ]	/* 1 value pushed */
7 
SRP0[ ]	/* SetRefPoint0 */
PUSHW[ ]	/* 1 value pushed */
6 
MDRP[11100]	/* MoveDirectRelPt */
PUSHW[ ]	/* 1 value pushed */
24 
MDRP[10000]	/* MoveDirectRelPt */
PUSHW[ ]	/* 1 value pushed */
25 
MDRP[10000]	/* MoveDirectRelPt */
PUSHW[ ]	/* 1 value pushed */
1 
SRP0[ ]	/* SetRefPoint0 */
PUSHW[ ]	/* 1 value pushed */
34 
MDRP[10000]	/* MoveDirectRelPt */
SVTCA[1]	/* SetFreedomAndProjectionVectorToAxis */
PUSHW[ ]	/* 3 values pushed */
16 17 3 
CALL[ ]	/* CallFunction */
PUSHW[ ]	/* 1 value pushed */
16 
SRP0[ ]	/* SetRefPoint0 */
PUSHW[ ]	/* 1 value pushed */
44 
MDRP[11100]	/* MoveDirectRelPt */
IUP[0]	/* InterpolateUntPts */
IUP[1]	/* InterpolateUntPts */";
};
width = 1706;
}
);
leftKerningGroup = uni0412;
note = F;
rightKerningGroup = F;
unicode = 0046;
},
{
glyphname = G;
lastChange = "2021-12-17 23:42:19 +0000";
layers = (
{
anchors = (
{
name = bottom;
position = "{1000, 0}";
},
{
name = top;
position = "{950, 1850}";
}
);
layerId = "E4BC606E-CD30-42C5-8BF2-1DD2ABB89119";
paths = (
{
closed = 1;
nodes = (
"1723 0 LINE",
"1723 474 LINE SMOOTH",
"1723 801 OFFCURVE",
"1745 855 OFFCURVE",
"1880 855 CURVE",
"1880 934 LINE",
"1019 934 LINE",
"1019 855 LINE",
"1265 855 OFFCURVE",
"1282 829 OFFCURVE",
"1282 440 CURVE SMOOTH",
"1282 123 LINE",
"985 123 LINE SMOOTH",
"731 123 OFFCURVE",
"655 197 OFFCURVE",
"655 493 CURVE SMOOTH",
"655 1357 LINE SMOOTH",
"655 1653 OFFCURVE",
"731 1727 OFFCURVE",
"985 1727 CURVE SMOOTH",
"1263 1727 OFFCURVE",
"1335 1734 OFFCURVE",
"1335 1670 CURVE SMOOTH",
"1335 1625 OFFCURVE",
"1273 1596 OFFCURVE",
"1273 1469 CURVE SMOOTH",
"1273 1339 OFFCURVE",
"1371 1252 OFFCURVE",
"1504 1252 CURVE SMOOTH",
"1655 1252 OFFCURVE",
"1745 1354 OFFCURVE",
"1745 1508 CURVE SMOOTH",
"1745 1730 OFFCURVE",
"1577 1850 OFFCURVE",
"1265 1850 CURVE SMOOTH",
"685 1850 LINE SMOOTH",
"368 1850 OFFCURVE",
"185 1677 OFFCURVE",
"185 1357 CURVE SMOOTH",
"185 493 LINE SMOOTH",
"185 173 OFFCURVE",
"368 0 OFFCURVE",
"685 0 CURVE SMOOTH"
);
}
);
userData = {
assembly = "PUSHW[ ]	/* 1 value pushed */
0 
CALL[ ]	/* CallFunction */
SVTCA[0]	/* SetFreedomAndProjectionVectorToAxis */
PUSHW[ ]	/* 1 value pushed */
0 
RCVT[ ]	/* ReadCVT */
IF[ ]	/* If */
PUSHW[ ]	/* 1 value pushed */
5 
MDAP[1]	/* MoveDirectAbsPt */
ELSE[ ]	/* Else */
PUSHW[ ]	/* 2 values pushed */
5 7 
MIAP[0]	/* MoveIndirectAbsPt */
EIF[ ]	/* EndIf */
PUSHW[ ]	/* 1 value pushed */
0 
RCVT[ ]	/* ReadCVT */
IF[ ]	/* If */
PUSHW[ ]	/* 1 value pushed */
40 
MDAP[1]	/* MoveDirectAbsPt */
ELSE[ ]	/* Else */
PUSHW[ ]	/* 2 values pushed */
40 1 
MIAP[0]	/* MoveIndirectAbsPt */
EIF[ ]	/* EndIf */
PUSHW[ ]	/* 3 values pushed */
24 23 3 
CALL[ ]	/* CallFunction */
PUSHW[ ]	/* 1 value pushed */
5 
SRP0[ ]	/* SetRefPoint0 */
PUSHW[ ]	/* 1 value pushed */
14 
MDRP[11100]	/* MoveDirectRelPt */
NPUSHW[ ]	/* 5 values pushed */
217 14 233 14 2 
DELTAP1[ ]	/* DeltaExceptionP1 */
NPUSHW[ ]	/* 27 values pushed */
8 14 24 14 40 14 56 14 72 14 88 14 104 14 120 14 136 14 152 14 168 14 184 14 200 14 13 
DELTAP1[ ]	/* DeltaExceptionP1 */
PUSHW[ ]	/* 1 value pushed */
40 
SRP0[ ]	/* SetRefPoint0 */
PUSHW[ ]	/* 1 value pushed */
19 
MDRP[11100]	/* MoveDirectRelPt */
NPUSHW[ ]	/* 27 values pushed */
7 19 23 19 39 19 55 19 71 19 87 19 103 19 119 19 135 19 151 19 167 19 183 19 199 19 13 
DELTAP1[ ]	/* DeltaExceptionP1 */
NPUSHW[ ]	/* 5 values pushed */
214 19 230 19 2 
DELTAP1[ ]	/* DeltaExceptionP1 */
PUSHW[ ]	/* 1 value pushed */
24 
SRP0[ ]	/* SetRefPoint0 */
PUSHW[ ]	/* 1 value pushed */
31 
MDRP[10000]	/* MoveDirectRelPt */
PUSHW[ ]	/* 3 values pushed */
32 40 5 
SRP1[ ]	/* SetRefPoint1 */
SRP2[ ]	/* SetRefPoint2 */
IP[ ]	/* InterpolatePts */
PUSHW[ ]	/* 1 value pushed */
23 
SRP0[ ]	/* SetRefPoint0 */
PUSHW[ ]	/* 1 value pushed */
33 
MDRP[10000]	/* MoveDirectRelPt */
IUP[0]	/* InterpolateUntPts */
IUP[1]	/* InterpolateUntPts */";
};
width = 1940;
}
);
leftKerningGroup = uni041E;
note = G;
rightKerningGroup = uni041E;
unicode = 0047;
},
{
glyphname = H;
lastChange = "2021-12-17 23:42:19 +0000";
layers = (
{
anchors = (
{
name = bottom;
position = "{1189, 0}";
},
{
name = center;
position = "{1189, 925}";
},
{
name = top;
position = "{1189, 1850}";
},
{
name = topleft;
position = "{30, 1850}";
}
);
background = {
paths = (
{
closed = 1;
nodes = (
"2128 0 LINE",
"2128 79 LINE",
"1898 79 OFFCURVE",
"1857 141 OFFCURVE",
"1857 493 CURVE SMOOTH",
"1857 1357 LINE SMOOTH",
"1857 1709 OFFCURVE",
"1898 1771 OFFCURVE",
"2128 1771 CURVE",
"2128 1850 LINE",
"1161 1850 LINE",
"1161 1730 LINE",
"1366 1730 OFFCURVE",
"1417 1674 OFFCURVE",
"1417 1357 CURVE SMOOTH",
"1417 493 LINE SMOOTH",
"1417 176 OFFCURVE",
"1366 120 OFFCURVE",
"1161 120 CURVE",
"1161 0 LINE"
);
},
{
closed = 1;
nodes = (
"1021 0 LINE",
"1021 120 LINE",
"803 120 OFFCURVE",
"760 176 OFFCURVE",
"760 493 CURVE SMOOTH",
"760 1357 LINE SMOOTH",
"760 1674 OFFCURVE",
"803 1730 OFFCURVE",
"1021 1730 CURVE",
"1021 1850 LINE",
"70 1850 LINE",
"70 1771 LINE",
"283 1771 OFFCURVE",
"320 1709 OFFCURVE",
"320 1357 CURVE SMOOTH",
"320 493 LINE SMOOTH",
"320 141 OFFCURVE",
"283 79 OFFCURVE",
"70 79 CURVE",
"70 0 LINE"
);
}
);
};
layerId = "E4BC606E-CD30-42C5-8BF2-1DD2ABB89119";
paths = (
{
closed = 1;
nodes = (
"2258 0 LINE",
"2258 79 LINE",
"2019 79 OFFCURVE",
"1977 141 OFFCURVE",
"1977 494 CURVE SMOOTH",
"1977 1356 LINE SMOOTH",
"1977 1709 OFFCURVE",
"2019 1771 OFFCURVE",
"2258 1771 CURVE",
"2258 1850 LINE",
"1274 1850 LINE",
"1274 1771 LINE",
"1498 1771 OFFCURVE",
"1537 1709 OFFCURVE",
"1537 1356 CURVE SMOOTH",
"1537 494 LINE SMOOTH",
"1537 141 OFFCURVE",
"1498 79 OFFCURVE",
"1274 79 CURVE",
"1274 0 LINE"
);
},
{
closed = 1;
nodes = (
"1084 0 LINE",
"1084 79 LINE",
"860 79 OFFCURVE",
"820 141 OFFCURVE",
"820 494 CURVE SMOOTH",
"820 1356 LINE SMOOTH",
"820 1709 OFFCURVE",
"860 1771 OFFCURVE",
"1084 1771 CURVE",
"1084 1850 LINE",
"100 1850 LINE",
"100 1771 LINE",
"338 1771 OFFCURVE",
"380 1709 OFFCURVE",
"380 1356 CURVE SMOOTH",
"380 494 LINE SMOOTH",
"380 141 OFFCURVE",
"338 79 OFFCURVE",
"100 79 CURVE",
"100 0 LINE"
);
},
{
closed = 1;
nodes = (
"1718 864 LINE",
"1718 984 LINE",
"456 984 LINE",
"456 864 LINE"
);
}
);
userData = {
assembly = "PUSHW[ ]	/* 1 value pushed */
0 
CALL[ ]	/* CallFunction */
SVTCA[0]	/* SetFreedomAndProjectionVectorToAxis */
PUSHW[ ]	/* 1 value pushed */
0 
RCVT[ ]	/* ReadCVT */
IF[ ]	/* If */
PUSHW[ ]	/* 1 value pushed */
0 
MDAP[1]	/* MoveDirectAbsPt */
ELSE[ ]	/* Else */
PUSHW[ ]	/* 2 values pushed */
0 7 
MIAP[0]	/* MoveIndirectAbsPt */
EIF[ ]	/* EndIf */
PUSHW[ ]	/* 1 value pushed */
0 
RCVT[ ]	/* ReadCVT */
IF[ ]	/* If */
PUSHW[ ]	/* 1 value pushed */
7 
MDAP[1]	/* MoveDirectAbsPt */
ELSE[ ]	/* Else */
PUSHW[ ]	/* 2 values pushed */
7 7 
MIAP[0]	/* MoveIndirectAbsPt */
EIF[ ]	/* EndIf */
PUSHW[ ]	/* 1 value pushed */
0 
RCVT[ ]	/* ReadCVT */
IF[ ]	/* If */
PUSHW[ ]	/* 1 value pushed */
17 
MDAP[1]	/* MoveDirectAbsPt */
ELSE[ ]	/* Else */
PUSHW[ ]	/* 2 values pushed */
17 7 
MIAP[0]	/* MoveIndirectAbsPt */
EIF[ ]	/* EndIf */
PUSHW[ ]	/* 1 value pushed */
0 
RCVT[ ]	/* ReadCVT */
IF[ ]	/* If */
PUSHW[ ]	/* 1 value pushed */
24 
MDAP[1]	/* MoveDirectAbsPt */
ELSE[ ]	/* Else */
PUSHW[ ]	/* 2 values pushed */
24 7 
MIAP[0]	/* MoveIndirectAbsPt */
EIF[ ]	/* EndIf */
PUSHW[ ]	/* 1 value pushed */
0 
RCVT[ ]	/* ReadCVT */
IF[ ]	/* If */
PUSHW[ ]	/* 1 value pushed */
32 
MDAP[1]	/* MoveDirectAbsPt */
ELSE[ ]	/* Else */
PUSHW[ ]	/* 2 values pushed */
32 1 
MIAP[0]	/* MoveIndirectAbsPt */
EIF[ ]	/* EndIf */
PUSHW[ ]	/* 1 value pushed */
0 
RCVT[ ]	/* ReadCVT */
IF[ ]	/* If */
PUSHW[ ]	/* 1 value pushed */
39 
MDAP[1]	/* MoveDirectAbsPt */
ELSE[ ]	/* Else */
PUSHW[ ]	/* 2 values pushed */
39 1 
MIAP[0]	/* MoveIndirectAbsPt */
EIF[ ]	/* EndIf */
PUSHW[ ]	/* 1 value pushed */
0 
RCVT[ ]	/* ReadCVT */
IF[ ]	/* If */
PUSHW[ ]	/* 1 value pushed */
49 
MDAP[1]	/* MoveDirectAbsPt */
ELSE[ ]	/* Else */
PUSHW[ ]	/* 2 values pushed */
49 1 
MIAP[0]	/* MoveIndirectAbsPt */
EIF[ ]	/* EndIf */
PUSHW[ ]	/* 1 value pushed */
0 
RCVT[ ]	/* ReadCVT */
IF[ ]	/* If */
PUSHW[ ]	/* 1 value pushed */
56 
MDAP[1]	/* MoveDirectAbsPt */
ELSE[ ]	/* Else */
PUSHW[ ]	/* 2 values pushed */
56 1 
MIAP[0]	/* MoveIndirectAbsPt */
EIF[ ]	/* EndIf */
PUSHW[ ]	/* 3 values pushed */
13 44 3 
CALL[ ]	/* CallFunction */
PUSHW[ ]	/* 1 value pushed */
17 
SRP0[ ]	/* SetRefPoint0 */
PUSHW[ ]	/* 1 value pushed */
9 
MDRP[11100]	/* MoveDirectRelPt */
PUSHW[ ]	/* 1 value pushed */
16 
MDRP[10000]	/* MoveDirectRelPt */
PUSHW[ ]	/* 1 value pushed */
26 
MDRP[10000]	/* MoveDirectRelPt */
PUSHW[ ]	/* 1 value pushed */
32 
SRP0[ ]	/* SetRefPoint0 */
PUSHW[ ]	/* 1 value pushed */
31 
MDRP[11100]	/* MoveDirectRelPt */
PUSHW[ ]	/* 1 value pushed */
41 
MDRP[10000]	/* MoveDirectRelPt */
PUSHW[ ]	/* 1 value pushed */
48 
MDRP[10000]	/* MoveDirectRelPt */
PUSHW[ ]	/* 1 value pushed */
58 
MDRP[10000]	/* MoveDirectRelPt */
PUSHW[ ]	/* 1 value pushed */
26 
SRP0[ ]	/* SetRefPoint0 */
PUSHW[ ]	/* 1 value pushed */
63 
MDRP[10000]	/* MoveDirectRelPt */
IUP[0]	/* InterpolateUntPts */
IUP[1]	/* InterpolateUntPts */";
};
width = 2358;
}
);
leftKerningGroup = uni0412;
note = H;
rightKerningGroup = uni042F;
unicode = 0048;
},
{
glyphname = I;
lastChange = "2021-12-17 23:42:19 +0000";
layers = (
{
anchors = (
{
name = bottom;
position = "{605, 0}";
},
{
name = ogonek;
position = "{1089, 10}";
},
{
name = top;
position = "{605, 1850}";
},
{
name = topleft;
position = "{20, 1850}";
}
);
background = {
paths = (
{
closed = 0;
nodes = (
"1084 79 LINE",
"860 79 OFFCURVE",
"820 141 OFFCURVE",
"820 494 CURVE SMOOTH",
"820 1356 LINE SMOOTH",
"820 1709 OFFCURVE",
"860 1771 OFFCURVE",
"1084 1771 CURVE"
);
}
);
};
layerId = "E4BC606E-CD30-42C5-8BF2-1DD2ABB89119";
paths = (
{
closed = 1;
nodes = (
"1110 0 LINE",
"1110 79 LINE",
"872 79 OFFCURVE",
"830 141 OFFCURVE",
"830 494 CURVE SMOOTH",
"830 1356 LINE SMOOTH",
"830 1709 OFFCURVE",
"872 1771 OFFCURVE",
"1110 1771 CURVE",
"1110 1850 LINE",
"100 1850 LINE",
"100 1771 LINE",
"338 1771 OFFCURVE",
"380 1709 OFFCURVE",
"380 1356 CURVE SMOOTH",
"380 494 LINE SMOOTH",
"380 141 OFFCURVE",
"338 79 OFFCURVE",
"100 79 CURVE",
"100 0 LINE"
);
}
);
userData = {
assembly = "PUSHW[ ]	/* 1 value pushed */
0 
CALL[ ]	/* CallFunction */
SVTCA[0]	/* SetFreedomAndProjectionVectorToAxis */
PUSHW[ ]	/* 1 value pushed */
0 
RCVT[ ]	/* ReadCVT */
IF[ ]	/* If */
PUSHW[ ]	/* 1 value pushed */
0 
MDAP[1]	/* MoveDirectAbsPt */
ELSE[ ]	/* Else */
PUSHW[ ]	/* 2 values pushed */
0 7 
MIAP[0]	/* MoveIndirectAbsPt */
EIF[ ]	/* EndIf */
PUSHW[ ]	/* 1 value pushed */
0 
RCVT[ ]	/* ReadCVT */
IF[ ]	/* If */
PUSHW[ ]	/* 1 value pushed */
7 
MDAP[1]	/* MoveDirectAbsPt */
ELSE[ ]	/* Else */
PUSHW[ ]	/* 2 values pushed */
7 7 
MIAP[0]	/* MoveIndirectAbsPt */
EIF[ ]	/* EndIf */
PUSHW[ ]	/* 1 value pushed */
0 
RCVT[ ]	/* ReadCVT */
IF[ ]	/* If */
PUSHW[ ]	/* 1 value pushed */
15 
MDAP[1]	/* MoveDirectAbsPt */
ELSE[ ]	/* Else */
PUSHW[ ]	/* 2 values pushed */
15 1 
MIAP[0]	/* MoveIndirectAbsPt */
EIF[ ]	/* EndIf */
PUSHW[ ]	/* 1 value pushed */
0 
RCVT[ ]	/* ReadCVT */
IF[ ]	/* If */
PUSHW[ ]	/* 1 value pushed */
22 
MDAP[1]	/* MoveDirectAbsPt */
ELSE[ ]	/* Else */
PUSHW[ ]	/* 2 values pushed */
22 1 
MIAP[0]	/* MoveIndirectAbsPt */
EIF[ ]	/* EndIf */
PUSHW[ ]	/* 1 value pushed */
7 
SRP0[ ]	/* SetRefPoint0 */
PUSHW[ ]	/* 1 value pushed */
9 
MDRP[11100]	/* MoveDirectRelPt */
PUSHW[ ]	/* 1 value pushed */
15 
SRP0[ ]	/* SetRefPoint0 */
PUSHW[ ]	/* 1 value pushed */
14 
MDRP[11100]	/* MoveDirectRelPt */
PUSHW[ ]	/* 1 value pushed */
24 
MDRP[10000]	/* MoveDirectRelPt */
PUSHW[ ]	/* 1 value pushed */
9 
SRP0[ ]	/* SetRefPoint0 */
PUSHW[ ]	/* 1 value pushed */
29 
MDRP[10000]	/* MoveDirectRelPt */
IUP[0]	/* InterpolateUntPts */
IUP[1]	/* InterpolateUntPts */";
};
width = 1210;
}
);
leftKerningGroup = uni0412;
note = I;
rightKerningGroup = uni042F;
unicode = 0049;
},
{
glyphname = J;
lastChange = "2021-12-17 23:42:19 +0000";
layers = (
{
anchors = (
{
name = bottom;
position = "{815, 0}";
},
{
name = top;
position = "{885, 1850}";
}
);
layerId = "E4BC606E-CD30-42C5-8BF2-1DD2ABB89119";
paths = (
{
closed = 1;
nodes = (
"1020 130 OFFCURVE",
"963 70 OFFCURVE",
"766 70 CURVE SMOOTH",
"588 70 OFFCURVE",
"528 109 OFFCURVE",
"528 138 CURVE SMOOTH",
"528 191 OFFCURVE",
"613 224 OFFCURVE",
"613 371 CURVE SMOOTH",
"613 513 OFFCURVE",
"523 608 OFFCURVE",
"387 608 CURVE SMOOTH",
"245 608 OFFCURVE",
"147 510 OFFCURVE",
"147 362 CURVE SMOOTH",
"147 162 OFFCURVE",
"273 -30 OFFCURVE",
"771 -30 CURVE SMOOTH",
"1277 -30 OFFCURVE",
"1470 111 OFFCURVE",
"1470 490 CURVE SMOOTH",
"1470 1450 LINE SMOOTH",
"1470 1722 OFFCURVE",
"1496 1770 OFFCURVE",
"1640 1770 CURVE",
"1640 1850 LINE",
"170 1850 LINE",
"220 1280 LINE",
"306 1280 LINE",
"356 1643 OFFCURVE",
"524 1730 OFFCURVE",
"695 1730 CURVE SMOOTH",
"959 1730 OFFCURVE",
"1020 1688 OFFCURVE",
"1020 1450 CURVE SMOOTH",
"1020 370 LINE SMOOTH"
);
}
);
userData = {
assembly = "PUSHW[ ]	/* 1 value pushed */
0 
CALL[ ]	/* CallFunction */
SVTCA[0]	/* SetFreedomAndProjectionVectorToAxis */
PUSHW[ ]	/* 1 value pushed */
0 
RCVT[ ]	/* ReadCVT */
IF[ ]	/* If */
PUSHW[ ]	/* 1 value pushed */
6 
MDAP[1]	/* MoveDirectAbsPt */
ELSE[ ]	/* Else */
PUSHW[ ]	/* 2 values pushed */
6 7 
MIAP[0]	/* MoveIndirectAbsPt */
EIF[ ]	/* EndIf */
PUSHW[ ]	/* 1 value pushed */
0 
RCVT[ ]	/* ReadCVT */
IF[ ]	/* If */
PUSHW[ ]	/* 1 value pushed */
13 
MDAP[1]	/* MoveDirectAbsPt */
ELSE[ ]	/* Else */
PUSHW[ ]	/* 2 values pushed */
13 7 
MIAP[0]	/* MoveIndirectAbsPt */
EIF[ ]	/* EndIf */
PUSHW[ ]	/* 1 value pushed */
0 
RCVT[ ]	/* ReadCVT */
IF[ ]	/* If */
PUSHW[ ]	/* 1 value pushed */
23 
MDAP[1]	/* MoveDirectAbsPt */
ELSE[ ]	/* Else */
PUSHW[ ]	/* 2 values pushed */
23 1 
MIAP[0]	/* MoveIndirectAbsPt */
EIF[ ]	/* EndIf */
PUSHW[ ]	/* 1 value pushed */
0 
MDRP[11100]	/* MoveDirectRelPt */
PUSHW[ ]	/* 1 value pushed */
6 
SRP0[ ]	/* SetRefPoint0 */
PUSHW[ ]	/* 1 value pushed */
5 
MDRP[11100]	/* MoveDirectRelPt */
PUSHW[ ]	/* 1 value pushed */
15 
MDRP[10000]	/* MoveDirectRelPt */
IUP[0]	/* InterpolateUntPts */
IUP[1]	/* InterpolateUntPts */";
};
width = 1730;
},
{
anchors = (
{
name = bottom;
position = "{605, 0}";
},
{
name = ogonek;
position = "{1089, 10}";
},
{
name = top;
position = "{605, 1850}";
},
{
name = topleft;
position = "{20, 1850}";
}
);
associatedMasterId = "E4BC606E-CD30-42C5-8BF2-1DD2ABB89119";
layerId = "25A23815-8048-427D-B244-831B1CCD4AED";
name = "11 Dec 21, 16:44";
paths = (
{
closed = 1;
nodes = (
"709 -68 OFFCURVE",
"709 -265 CURVE SMOOTH",
"709 -402 OFFCURVE",
"684 -485 OFFCURVE",
"642 -485 CURVE SMOOTH",
"611 -485 OFFCURVE",
"597 -463 OFFCURVE",
"597 -414 CURVE SMOOTH",
"597 -296 OFFCURVE",
"515 -217 OFFCURVE",
"391 -217 CURVE SMOOTH",
"261 -217 OFFCURVE",
"171 -300 OFFCURVE",
"171 -443 CURVE SMOOTH",
"171 -567 OFFCURVE",
"233 -700 OFFCURVE",
"475 -700 CURVE SMOOTH",
"695 -700 OFFCURVE",
"829 -533 OFFCURVE",
"829 -258 CURVE SMOOTH",
"830 1356 LINE SMOOTH",
"830 1709 OFFCURVE",
"872 1771 OFFCURVE",
"1110 1771 CURVE",
"1110 1850 LINE",
"100 1850 LINE",
"100 1771 LINE",
"338 1771 OFFCURVE",
"380 1709 OFFCURVE",
"380 1356 CURVE SMOOTH",
"380 0 LINE",
"626 -1 OFFCURVE"
);
}
);
userData = {
assembly = "PUSHW[ ]	/* 1 value pushed */
0 
CALL[ ]	/* CallFunction */
SVTCA[0]	/* SetFreedomAndProjectionVectorToAxis */
PUSHW[ ]	/* 1 value pushed */
0 
RCVT[ ]	/* ReadCVT */
IF[ ]	/* If */
PUSHW[ ]	/* 1 value pushed */
6 
MDAP[1]	/* MoveDirectAbsPt */
ELSE[ ]	/* Else */
PUSHW[ ]	/* 2 values pushed */
6 7 
MIAP[0]	/* MoveIndirectAbsPt */
EIF[ ]	/* EndIf */
PUSHW[ ]	/* 1 value pushed */
0 
RCVT[ ]	/* ReadCVT */
IF[ ]	/* If */
PUSHW[ ]	/* 1 value pushed */
13 
MDAP[1]	/* MoveDirectAbsPt */
ELSE[ ]	/* Else */
PUSHW[ ]	/* 2 values pushed */
13 7 
MIAP[0]	/* MoveIndirectAbsPt */
EIF[ ]	/* EndIf */
PUSHW[ ]	/* 1 value pushed */
0 
RCVT[ ]	/* ReadCVT */
IF[ ]	/* If */
PUSHW[ ]	/* 1 value pushed */
23 
MDAP[1]	/* MoveDirectAbsPt */
ELSE[ ]	/* Else */
PUSHW[ ]	/* 2 values pushed */
23 1 
MIAP[0]	/* MoveIndirectAbsPt */
EIF[ ]	/* EndIf */
PUSHW[ ]	/* 1 value pushed */
0 
MDRP[11100]	/* MoveDirectRelPt */
PUSHW[ ]	/* 1 value pushed */
6 
SRP0[ ]	/* SetRefPoint0 */
PUSHW[ ]	/* 1 value pushed */
5 
MDRP[11100]	/* MoveDirectRelPt */
PUSHW[ ]	/* 1 value pushed */
15 
MDRP[10000]	/* MoveDirectRelPt */
IUP[0]	/* InterpolateUntPts */
IUP[1]	/* InterpolateUntPts */";
};
width = 1210;
},
{
anchors = (
{
name = bottom;
position = "{605, 0}";
},
{
name = ogonek;
position = "{1089, 10}";
},
{
name = top;
position = "{605, 1850}";
},
{
name = topleft;
position = "{20, 1850}";
}
);
associatedMasterId = "E4BC606E-CD30-42C5-8BF2-1DD2ABB89119";
layerId = "553E77A5-5E34-4F76-B9FB-F920D3D5A676";
name = "11 Dec 21, 16:45";
paths = (
{
closed = 1;
nodes = (
"709 -68 OFFCURVE",
"709 -265 CURVE SMOOTH",
"709 -402 OFFCURVE",
"684 -485 OFFCURVE",
"642 -485 CURVE SMOOTH",
"611 -485 OFFCURVE",
"597 -463 OFFCURVE",
"597 -414 CURVE SMOOTH",
"597 -296 OFFCURVE",
"515 -217 OFFCURVE",
"391 -217 CURVE SMOOTH",
"261 -217 OFFCURVE",
"171 -300 OFFCURVE",
"171 -443 CURVE SMOOTH",
"171 -567 OFFCURVE",
"233 -700 OFFCURVE",
"475 -700 CURVE SMOOTH",
"695 -700 OFFCURVE",
"829 -533 OFFCURVE",
"829 -258 CURVE SMOOTH",
"830 1356 LINE SMOOTH",
"830 1709 OFFCURVE",
"872 1771 OFFCURVE",
"1110 1771 CURVE",
"1110 1850 LINE",
"100 1850 LINE",
"100 1771 LINE",
"338 1771 OFFCURVE",
"380 1709 OFFCURVE",
"380 1356 CURVE SMOOTH",
"380 0 LINE",
"626 -1 OFFCURVE"
);
}
);
userData = {
assembly = "PUSHW[ ]	/* 1 value pushed */
0 
CALL[ ]	/* CallFunction */
SVTCA[0]	/* SetFreedomAndProjectionVectorToAxis */
PUSHW[ ]	/* 1 value pushed */
0 
RCVT[ ]	/* ReadCVT */
IF[ ]	/* If */
PUSHW[ ]	/* 1 value pushed */
6 
MDAP[1]	/* MoveDirectAbsPt */
ELSE[ ]	/* Else */
PUSHW[ ]	/* 2 values pushed */
6 7 
MIAP[0]	/* MoveIndirectAbsPt */
EIF[ ]	/* EndIf */
PUSHW[ ]	/* 1 value pushed */
0 
RCVT[ ]	/* ReadCVT */
IF[ ]	/* If */
PUSHW[ ]	/* 1 value pushed */
13 
MDAP[1]	/* MoveDirectAbsPt */
ELSE[ ]	/* Else */
PUSHW[ ]	/* 2 values pushed */
13 7 
MIAP[0]	/* MoveIndirectAbsPt */
EIF[ ]	/* EndIf */
PUSHW[ ]	/* 1 value pushed */
0 
RCVT[ ]	/* ReadCVT */
IF[ ]	/* If */
PUSHW[ ]	/* 1 value pushed */
23 
MDAP[1]	/* MoveDirectAbsPt */
ELSE[ ]	/* Else */
PUSHW[ ]	/* 2 values pushed */
23 1 
MIAP[0]	/* MoveIndirectAbsPt */
EIF[ ]	/* EndIf */
PUSHW[ ]	/* 1 value pushed */
0 
MDRP[11100]	/* MoveDirectRelPt */
PUSHW[ ]	/* 1 value pushed */
6 
SRP0[ ]	/* SetRefPoint0 */
PUSHW[ ]	/* 1 value pushed */
5 
MDRP[11100]	/* MoveDirectRelPt */
PUSHW[ ]	/* 1 value pushed */
15 
MDRP[10000]	/* MoveDirectRelPt */
IUP[0]	/* InterpolateUntPts */
IUP[1]	/* InterpolateUntPts */";
};
width = 1210;
}
);
leftKerningGroup = uni0412;
note = J;
rightKerningGroup = uni0411;
unicode = 004A;
},
{
glyphname = K;
lastChange = "2021-12-17 23:42:19 +0000";
layers = (
{
anchors = (
{
name = bottom;
position = "{1189, 0}";
},
{
name = center;
position = "{1189, 925}";
},
{
name = top;
position = "{1189, 1850}";
},
{
name = topleft;
position = "{30, 1850}";
}
);
layerId = "E4BC606E-CD30-42C5-8BF2-1DD2ABB89119";
paths = (
{
closed = 1;
nodes = (
"1054 0 LINE",
"1054 79 LINE",
"855 79 OFFCURVE",
"820 141 OFFCURVE",
"820 494 CURVE SMOOTH",
"820 1356 LINE SMOOTH",
"820 1709 OFFCURVE",
"855 1771 OFFCURVE",
"1054 1771 CURVE",
"1054 1850 LINE",
"100 1850 LINE",
"100 1771 LINE",
"338 1771 OFFCURVE",
"380 1709 OFFCURVE",
"380 1356 CURVE SMOOTH",
"380 494 LINE SMOOTH",
"380 141 OFFCURVE",
"338 79 OFFCURVE",
"100 79 CURVE",
"100 0 LINE"
);
},
{
closed = 1;
nodes = (
"1457 920 LINE",
"1787 920 OFFCURVE",
"1897 1018 OFFCURVE",
"1897 1310 CURVE SMOOTH",
"1897 1751 OFFCURVE",
"1911 1770 OFFCURVE",
"2157 1770 CURVE",
"2157 1850 LINE",
"1737 1850 LINE SMOOTH",
"1509 1850 OFFCURVE",
"1429 1759 OFFCURVE",
"1428 1502 CURVE SMOOTH",
"1427 1310 LINE SMOOTH",
"1425 1024 OFFCURVE",
"1407 990 OFFCURVE",
"1177 990 CURVE",
"666 990 LINE",
"666 890 LINE",
"1177 890 LINE"
);
},
{
closed = 1;
nodes = (
"1177 890 LINE",
"1434 890 OFFCURVE",
"1455 865 OFFCURVE",
"1457 540 CURVE SMOOTH",
"1458 348 LINE SMOOTH",
"1459 91 OFFCURVE",
"1539 0 OFFCURVE",
"1767 0 CURVE SMOOTH",
"2187 0 LINE",
"2187 80 LINE",
"1941 80 OFFCURVE",
"1927 104 OFFCURVE",
"1927 540 CURVE SMOOTH",
"1927 876 OFFCURVE",
"1810 960 OFFCURVE",
"1457 960 CURVE",
"1177 990 LINE"
);
}
);
userData = {
assembly = "PUSHW[ ]	/* 1 value pushed */
0 
CALL[ ]	/* CallFunction */
SVTCA[0]	/* SetFreedomAndProjectionVectorToAxis */
PUSHW[ ]	/* 1 value pushed */
0 
RCVT[ ]	/* ReadCVT */
IF[ ]	/* If */
PUSHW[ ]	/* 1 value pushed */
0 
MDAP[1]	/* MoveDirectAbsPt */
ELSE[ ]	/* Else */
PUSHW[ ]	/* 2 values pushed */
0 7 
MIAP[0]	/* MoveIndirectAbsPt */
EIF[ ]	/* EndIf */
PUSHW[ ]	/* 1 value pushed */
0 
RCVT[ ]	/* ReadCVT */
IF[ ]	/* If */
PUSHW[ ]	/* 1 value pushed */
7 
MDAP[1]	/* MoveDirectAbsPt */
ELSE[ ]	/* Else */
PUSHW[ ]	/* 2 values pushed */
7 7 
MIAP[0]	/* MoveIndirectAbsPt */
EIF[ ]	/* EndIf */
PUSHW[ ]	/* 1 value pushed */
0 
RCVT[ ]	/* ReadCVT */
IF[ ]	/* If */
PUSHW[ ]	/* 1 value pushed */
21 
MDAP[1]	/* MoveDirectAbsPt */
ELSE[ ]	/* Else */
PUSHW[ ]	/* 2 values pushed */
21 7 
MIAP[0]	/* MoveIndirectAbsPt */
EIF[ ]	/* EndIf */
PUSHW[ ]	/* 1 value pushed */
0 
RCVT[ ]	/* ReadCVT */
IF[ ]	/* If */
PUSHW[ ]	/* 1 value pushed */
36 
MDAP[1]	/* MoveDirectAbsPt */
ELSE[ ]	/* Else */
PUSHW[ ]	/* 2 values pushed */
36 1 
MIAP[0]	/* MoveIndirectAbsPt */
EIF[ ]	/* EndIf */
PUSHW[ ]	/* 1 value pushed */
0 
RCVT[ ]	/* ReadCVT */
IF[ ]	/* If */
PUSHW[ ]	/* 1 value pushed */
50 
MDAP[1]	/* MoveDirectAbsPt */
ELSE[ ]	/* Else */
PUSHW[ ]	/* 2 values pushed */
50 1 
MIAP[0]	/* MoveIndirectAbsPt */
EIF[ ]	/* EndIf */
PUSHW[ ]	/* 1 value pushed */
0 
RCVT[ ]	/* ReadCVT */
IF[ ]	/* If */
PUSHW[ ]	/* 1 value pushed */
57 
MDAP[1]	/* MoveDirectAbsPt */
ELSE[ ]	/* Else */
PUSHW[ ]	/* 2 values pushed */
57 1 
MIAP[0]	/* MoveIndirectAbsPt */
EIF[ ]	/* EndIf */
PUSHW[ ]	/* 3 values pushed */
13 45 3 
CALL[ ]	/* CallFunction */
PUSHW[ ]	/* 1 value pushed */
7 
SRP0[ ]	/* SetRefPoint0 */
PUSHW[ ]	/* 1 value pushed */
9 
MDRP[11100]	/* MoveDirectRelPt */
PUSHW[ ]	/* 1 value pushed */
23 
MDRP[10000]	/* MoveDirectRelPt */
PUSHW[ ]	/* 3 values pushed */
29 45 13 
SRP1[ ]	/* SetRefPoint1 */
SRP2[ ]	/* SetRefPoint2 */
IP[ ]	/* InterpolatePts */
PUSHW[ ]	/* 1 value pushed */
36 
SRP0[ ]	/* SetRefPoint0 */
PUSHW[ ]	/* 1 value pushed */
35 
MDRP[11100]	/* MoveDirectRelPt */
PUSHW[ ]	/* 1 value pushed */
49 
MDRP[10000]	/* MoveDirectRelPt */
PUSHW[ ]	/* 1 value pushed */
59 
MDRP[10000]	/* MoveDirectRelPt */
PUSHW[ ]	/* 1 value pushed */
23 
SRP0[ ]	/* SetRefPoint0 */
PUSHW[ ]	/* 1 value pushed */
64 
MDRP[10000]	/* MoveDirectRelPt */
IUP[0]	/* InterpolateUntPts */
IUP[1]	/* InterpolateUntPts */";
};
width = 2267;
}
);
leftKerningGroup = uni0412;
note = K;
rightKerningGroup = uni042F;
unicode = 004B;
},
{
glyphname = L;
lastChange = "2021-12-17 23:42:19 +0000";
layers = (
{
anchors = (
{
name = bottom;
position = "{903, 0}";
},
{
name = ogonek;
position = "{1609, 10}";
},
{
name = top;
position = "{659, 1850}";
},
{
name = topleft;
position = "{40, 1850}";
}
);
layerId = "E4BC606E-CD30-42C5-8BF2-1DD2ABB89119";
paths = (
{
closed = 1;
nodes = (
"1661 0 LINE",
"1611 570 LINE",
"1511 570 LINE",
"1478 264 OFFCURVE",
"1355 120 OFFCURVE",
"1074 120 CURVE SMOOTH",
"881 120 OFFCURVE",
"840 175 OFFCURVE",
"840 493 CURVE SMOOTH",
"840 1356 LINE SMOOTH",
"840 1719 OFFCURVE",
"888 1771 OFFCURVE",
"1220 1771 CURVE",
"1220 1850 LINE",
"100 1850 LINE",
"100 1771 LINE",
"355 1771 OFFCURVE",
"400 1709 OFFCURVE",
"400 1356 CURVE SMOOTH",
"400 493 LINE SMOOTH",
"400 141 OFFCURVE",
"355 79 OFFCURVE",
"100 79 CURVE",
"100 0 LINE"
);
}
);
userData = {
assembly = "PUSHW[ ]	/* 1 value pushed */
0 
CALL[ ]	/* CallFunction */
SVTCA[0]	/* SetFreedomAndProjectionVectorToAxis */
PUSHW[ ]	/* 1 value pushed */
0 
RCVT[ ]	/* ReadCVT */
IF[ ]	/* If */
PUSHW[ ]	/* 1 value pushed */
0 
MDAP[1]	/* MoveDirectAbsPt */
ELSE[ ]	/* Else */
PUSHW[ ]	/* 2 values pushed */
0 7 
MIAP[0]	/* MoveIndirectAbsPt */
EIF[ ]	/* EndIf */
PUSHW[ ]	/* 1 value pushed */
0 
RCVT[ ]	/* ReadCVT */
IF[ ]	/* If */
PUSHW[ ]	/* 1 value pushed */
7 
MDAP[1]	/* MoveDirectAbsPt */
ELSE[ ]	/* Else */
PUSHW[ ]	/* 2 values pushed */
7 7 
MIAP[0]	/* MoveIndirectAbsPt */
EIF[ ]	/* EndIf */
PUSHW[ ]	/* 1 value pushed */
0 
RCVT[ ]	/* ReadCVT */
IF[ ]	/* If */
PUSHW[ ]	/* 1 value pushed */
24 
MDAP[1]	/* MoveDirectAbsPt */
ELSE[ ]	/* Else */
PUSHW[ ]	/* 2 values pushed */
24 1 
MIAP[0]	/* MoveIndirectAbsPt */
EIF[ ]	/* EndIf */
PUSHW[ ]	/* 1 value pushed */
0 
RCVT[ ]	/* ReadCVT */
IF[ ]	/* If */
PUSHW[ ]	/* 1 value pushed */
31 
MDAP[1]	/* MoveDirectAbsPt */
ELSE[ ]	/* Else */
PUSHW[ ]	/* 2 values pushed */
31 1 
MIAP[0]	/* MoveIndirectAbsPt */
EIF[ ]	/* EndIf */
PUSHW[ ]	/* 1 value pushed */
7 
SRP0[ ]	/* SetRefPoint0 */
PUSHW[ ]	/* 1 value pushed */
9 
MDRP[11100]	/* MoveDirectRelPt */
PUSHW[ ]	/* 1 value pushed */
31 
SRP0[ ]	/* SetRefPoint0 */
PUSHW[ ]	/* 1 value pushed */
14 
MDRP[11100]	/* MoveDirectRelPt */
PUSHW[ ]	/* 1 value pushed */
15 
MDRP[10000]	/* MoveDirectRelPt */
PUSHW[ ]	/* 1 value pushed */
33 
MDRP[10000]	/* MoveDirectRelPt */
PUSHW[ ]	/* 1 value pushed */
9 
SRP0[ ]	/* SetRefPoint0 */
PUSHW[ ]	/* 1 value pushed */
38 
MDRP[10000]	/* MoveDirectRelPt */
SVTCA[1]	/* SetFreedomAndProjectionVectorToAxis */
PUSHW[ ]	/* 3 values pushed */
23 22 3 
CALL[ ]	/* CallFunction */
PUSHW[ ]	/* 1 value pushed */
23 
SRP0[ ]	/* SetRefPoint0 */
PUSHW[ ]	/* 1 value pushed */
40 
MDRP[11100]	/* MoveDirectRelPt */
IUP[0]	/* InterpolateUntPts */
IUP[1]	/* InterpolateUntPts */";
};
width = 1726;
}
);
leftKerningGroup = uni0412;
leftMetricsKey = H;
note = L;
rightKerningGroup = uni0431;
unicode = 004C;
},
{
glyphname = Lslash;
lastChange = "2021-12-17 23:42:19 +0000";
layers = (
{
anchors = (
{
name = bottom;
position = "{903, 0}";
},
{
name = ogonek;
position = "{1609, 10}";
},
{
name = top;
position = "{933, 1850}";
},
{
name = topleft;
position = "{40, 1850}";
}
);
layerId = "E4BC606E-CD30-42C5-8BF2-1DD2ABB89119";
paths = (
{
closed = 1;
nodes = (
"1661 0 LINE",
"1611 570 LINE",
"1511 570 LINE",
"1478 264 OFFCURVE",
"1355 120 OFFCURVE",
"1074 120 CURVE SMOOTH",
"881 120 OFFCURVE",
"840 175 OFFCURVE",
"840 493 CURVE SMOOTH",
"840 1356 LINE SMOOTH",
"840 1719 OFFCURVE",
"888 1771 OFFCURVE",
"1220 1771 CURVE",
"1220 1850 LINE",
"100 1850 LINE",
"100 1771 LINE",
"355 1771 OFFCURVE",
"400 1709 OFFCURVE",
"400 1356 CURVE SMOOTH",
"400 493 LINE SMOOTH",
"400 141 OFFCURVE",
"355 79 OFFCURVE",
"100 79 CURVE",
"100 0 LINE"
);
},
{
closed = 1;
nodes = (
"1138 991 LINE",
"1079 1150 LINE",
"127 798 LINE",
"186 639 LINE"
);
}
);
width = 1726;
}
);
unicode = 0141;
},
{
glyphname = M;
lastChange = "2021-12-17 23:42:19 +0000";
layers = (
{
anchors = (
{
name = bottom;
position = "{1560, 0}";
},
{
name = top;
position = "{1560, 1850}";
}
);
layerId = "E4BC606E-CD30-42C5-8BF2-1DD2ABB89119";
paths = (
{
closed = 1;
nodes = (
"2015 0 LINE",
"2015 80 LINE",
"1832 80 OFFCURVE",
"1805 128 OFFCURVE",
"1805 400 CURVE SMOOTH",
"1805 1785 LINE",
"1375 1785 LINE",
"1375 400 LINE SMOOTH",
"1375 128 OFFCURVE",
"1351 80 OFFCURVE",
"1185 80 CURVE",
"1185 0 LINE"
);
},
{
closed = 1;
nodes = (
"820 1516 LINE SMOOTH",
"820 1706 OFFCURVE",
"858 1740 OFFCURVE",
"1030 1740 CURVE SMOOTH",
"1880 1740 LINE SMOOTH",
"2266 1740 OFFCURVE",
"2340 1719 OFFCURVE",
"2340 1450 CURVE SMOOTH",
"2340 430 LINE SMOOTH",
"2340 65 OFFCURVE",
"2393 0 OFFCURVE",
"2690 0 CURVE SMOOTH",
"2990 0 LINE",
"2990 80 LINE",
"2843 80 OFFCURVE",
"2780 185 OFFCURVE",
"2780 430 CURVE SMOOTH",
"2780 1450 LINE SMOOTH",
"2780 1770 OFFCURVE",
"2670 1850 OFFCURVE",
"2330 1850 CURVE SMOOTH",
"100 1849 LINE",
"100 1770 LINE",
"335 1770 OFFCURVE",
"380 1708 OFFCURVE",
"380 1356 CURVE SMOOTH",
"380 430 LINE SMOOTH",
"380 146 OFFCURVE",
"330 80 OFFCURVE",
"120 80 CURVE",
"120 0 LINE",
"1030 0 LINE",
"1030 80 LINE",
"847 80 OFFCURVE",
"820 140 OFFCURVE",
"820 430 CURVE SMOOTH"
);
}
);
userData = {
assembly = "PUSHW[ ]	/* 1 value pushed */
0 
CALL[ ]	/* CallFunction */
SVTCA[0]	/* SetFreedomAndProjectionVectorToAxis */
PUSHW[ ]	/* 1 value pushed */
0 
RCVT[ ]	/* ReadCVT */
IF[ ]	/* If */
PUSHW[ ]	/* 1 value pushed */
0 
MDAP[1]	/* MoveDirectAbsPt */
ELSE[ ]	/* Else */
PUSHW[ ]	/* 2 values pushed */
0 7 
MIAP[0]	/* MoveIndirectAbsPt */
EIF[ ]	/* EndIf */
PUSHW[ ]	/* 1 value pushed */
0 
RCVT[ ]	/* ReadCVT */
IF[ ]	/* If */
PUSHW[ ]	/* 1 value pushed */
6 
MDAP[1]	/* MoveDirectAbsPt */
ELSE[ ]	/* Else */
PUSHW[ ]	/* 2 values pushed */
6 7 
MIAP[0]	/* MoveIndirectAbsPt */
EIF[ ]	/* EndIf */
PUSHW[ ]	/* 1 value pushed */
0 
RCVT[ ]	/* ReadCVT */
IF[ ]	/* If */
PUSHW[ ]	/* 1 value pushed */
15 
MDAP[1]	/* MoveDirectAbsPt */
ELSE[ ]	/* Else */
PUSHW[ ]	/* 2 values pushed */
15 7 
MIAP[0]	/* MoveIndirectAbsPt */
EIF[ ]	/* EndIf */
PUSHW[ ]	/* 1 value pushed */
0 
RCVT[ ]	/* ReadCVT */
IF[ ]	/* If */
PUSHW[ ]	/* 1 value pushed */
22 
MDAP[1]	/* MoveDirectAbsPt */
ELSE[ ]	/* Else */
PUSHW[ ]	/* 2 values pushed */
22 7 
MIAP[0]	/* MoveIndirectAbsPt */
EIF[ ]	/* EndIf */
PUSHW[ ]	/* 1 value pushed */
0 
RCVT[ ]	/* ReadCVT */
IF[ ]	/* If */
PUSHW[ ]	/* 1 value pushed */
30 
MDAP[1]	/* MoveDirectAbsPt */
ELSE[ ]	/* Else */
PUSHW[ ]	/* 2 values pushed */
30 1 
MIAP[0]	/* MoveIndirectAbsPt */
EIF[ ]	/* EndIf */
PUSHW[ ]	/* 1 value pushed */
0 
RCVT[ ]	/* ReadCVT */
IF[ ]	/* If */
PUSHW[ ]	/* 1 value pushed */
37 
MDAP[1]	/* MoveDirectAbsPt */
ELSE[ ]	/* Else */
PUSHW[ ]	/* 2 values pushed */
37 1 
MIAP[0]	/* MoveIndirectAbsPt */
EIF[ ]	/* EndIf */
PUSHW[ ]	/* 1 value pushed */
0 
RCVT[ ]	/* ReadCVT */
IF[ ]	/* If */
PUSHW[ ]	/* 1 value pushed */
48 
MDAP[1]	/* MoveDirectAbsPt */
ELSE[ ]	/* Else */
PUSHW[ ]	/* 2 values pushed */
48 1 
MIAP[0]	/* MoveIndirectAbsPt */
EIF[ ]	/* EndIf */
PUSHW[ ]	/* 1 value pushed */
0 
RCVT[ ]	/* ReadCVT */
IF[ ]	/* If */
PUSHW[ ]	/* 1 value pushed */
55 
MDAP[1]	/* MoveDirectAbsPt */
ELSE[ ]	/* Else */
PUSHW[ ]	/* 2 values pushed */
55 1 
MIAP[0]	/* MoveIndirectAbsPt */
EIF[ ]	/* EndIf */
PUSHW[ ]	/* 1 value pushed */
15 
SRP0[ ]	/* SetRefPoint0 */
PUSHW[ ]	/* 1 value pushed */
8 
MDRP[11100]	/* MoveDirectRelPt */
PUSHW[ ]	/* 1 value pushed */
14 
MDRP[10000]	/* MoveDirectRelPt */
PUSHW[ ]	/* 1 value pushed */
24 
MDRP[10000]	/* MoveDirectRelPt */
PUSHW[ ]	/* 1 value pushed */
30 
SRP0[ ]	/* SetRefPoint0 */
PUSHW[ ]	/* 1 value pushed */
29 
MDRP[11100]	/* MoveDirectRelPt */
PUSHW[ ]	/* 1 value pushed */
39 
MDRP[10000]	/* MoveDirectRelPt */
PUSHW[ ]	/* 3 values pushed */
42 30 0 
SRP1[ ]	/* SetRefPoint1 */
SRP2[ ]	/* SetRefPoint2 */
IP[ ]	/* InterpolatePts */
PUSHW[ ]	/* 3 values pushed */
44 30 0 
SRP1[ ]	/* SetRefPoint1 */
SRP2[ ]	/* SetRefPoint2 */
IP[ ]	/* InterpolatePts */
PUSHW[ ]	/* 1 value pushed */
47 
MDRP[10000]	/* MoveDirectRelPt */
PUSHW[ ]	/* 1 value pushed */
57 
MDRP[10000]	/* MoveDirectRelPt */
PUSHW[ ]	/* 1 value pushed */
24 
SRP0[ ]	/* SetRefPoint0 */
PUSHW[ ]	/* 1 value pushed */
62 
MDRP[10000]	/* MoveDirectRelPt */
IUP[0]	/* InterpolateUntPts */
IUP[1]	/* InterpolateUntPts */";
};
width = 3110;
},
{
associatedMasterId = "E4BC606E-CD30-42C5-8BF2-1DD2ABB89119";
layerId = "AAD49058-ED21-4BC6-B7B2-9536A770E512";
name = "11 Dec 21, 17:02";
paths = (
{
closed = 1;
nodes = (
"430 0 LINE SMOOTH",
"728 0 OFFCURVE",
"780 65 OFFCURVE",
"780 430 CURVE SMOOTH",
"780 1450 LINE SMOOTH",
"780 1717 OFFCURVE",
"862 1740 OFFCURVE",
"1220 1740 CURVE SMOOTH",
"1820 1740 LINE SMOOTH",
"2189 1740 OFFCURVE",
"2260 1719 OFFCURVE",
"2260 1450 CURVE SMOOTH",
"2260 430 LINE SMOOTH",
"2260 65 OFFCURVE",
"2313 0 OFFCURVE",
"2610 0 CURVE SMOOTH",
"2910 0 LINE",
"2910 80 LINE",
"2763 80 OFFCURVE",
"2700 185 OFFCURVE",
"2700 430 CURVE SMOOTH",
"2700 1450 LINE SMOOTH",
"2700 1770 OFFCURVE",
"2590 1850 OFFCURVE",
"2250 1850 CURVE SMOOTH",
"790 1850 LINE SMOOTH",
"461 1850 OFFCURVE",
"340 1770 OFFCURVE",
"340 1450 CURVE SMOOTH",
"340 430 LINE SMOOTH",
"340 185 OFFCURVE",
"277 80 OFFCURVE",
"130 80 CURVE",
"130 0 LINE"
);
},
{
closed = 1;
nodes = (
"1995 0 LINE",
"1995 80 LINE",
"1768 80 OFFCURVE",
"1735 128 OFFCURVE",
"1735 400 CURVE SMOOTH",
"1735 1785 LINE",
"1305 1785 LINE",
"1305 400 LINE SMOOTH",
"1305 128 OFFCURVE",
"1272 80 OFFCURVE",
"1045 80 CURVE",
"1045 0 LINE"
);
}
);
userData = {
assembly = "PUSHW[ ]	/* 1 value pushed */
0 
CALL[ ]	/* CallFunction */
SVTCA[0]	/* SetFreedomAndProjectionVectorToAxis */
PUSHW[ ]	/* 1 value pushed */
0 
RCVT[ ]	/* ReadCVT */
IF[ ]	/* If */
PUSHW[ ]	/* 1 value pushed */
0 
MDAP[1]	/* MoveDirectAbsPt */
ELSE[ ]	/* Else */
PUSHW[ ]	/* 2 values pushed */
0 7 
MIAP[0]	/* MoveIndirectAbsPt */
EIF[ ]	/* EndIf */
PUSHW[ ]	/* 1 value pushed */
0 
RCVT[ ]	/* ReadCVT */
IF[ ]	/* If */
PUSHW[ ]	/* 1 value pushed */
6 
MDAP[1]	/* MoveDirectAbsPt */
ELSE[ ]	/* Else */
PUSHW[ ]	/* 2 values pushed */
6 7 
MIAP[0]	/* MoveIndirectAbsPt */
EIF[ ]	/* EndIf */
PUSHW[ ]	/* 1 value pushed */
0 
RCVT[ ]	/* ReadCVT */
IF[ ]	/* If */
PUSHW[ ]	/* 1 value pushed */
15 
MDAP[1]	/* MoveDirectAbsPt */
ELSE[ ]	/* Else */
PUSHW[ ]	/* 2 values pushed */
15 7 
MIAP[0]	/* MoveIndirectAbsPt */
EIF[ ]	/* EndIf */
PUSHW[ ]	/* 1 value pushed */
0 
RCVT[ ]	/* ReadCVT */
IF[ ]	/* If */
PUSHW[ ]	/* 1 value pushed */
22 
MDAP[1]	/* MoveDirectAbsPt */
ELSE[ ]	/* Else */
PUSHW[ ]	/* 2 values pushed */
22 7 
MIAP[0]	/* MoveIndirectAbsPt */
EIF[ ]	/* EndIf */
PUSHW[ ]	/* 1 value pushed */
0 
RCVT[ ]	/* ReadCVT */
IF[ ]	/* If */
PUSHW[ ]	/* 1 value pushed */
30 
MDAP[1]	/* MoveDirectAbsPt */
ELSE[ ]	/* Else */
PUSHW[ ]	/* 2 values pushed */
30 1 
MIAP[0]	/* MoveIndirectAbsPt */
EIF[ ]	/* EndIf */
PUSHW[ ]	/* 1 value pushed */
0 
RCVT[ ]	/* ReadCVT */
IF[ ]	/* If */
PUSHW[ ]	/* 1 value pushed */
37 
MDAP[1]	/* MoveDirectAbsPt */
ELSE[ ]	/* Else */
PUSHW[ ]	/* 2 values pushed */
37 1 
MIAP[0]	/* MoveIndirectAbsPt */
EIF[ ]	/* EndIf */
PUSHW[ ]	/* 1 value pushed */
0 
RCVT[ ]	/* ReadCVT */
IF[ ]	/* If */
PUSHW[ ]	/* 1 value pushed */
48 
MDAP[1]	/* MoveDirectAbsPt */
ELSE[ ]	/* Else */
PUSHW[ ]	/* 2 values pushed */
48 1 
MIAP[0]	/* MoveIndirectAbsPt */
EIF[ ]	/* EndIf */
PUSHW[ ]	/* 1 value pushed */
0 
RCVT[ ]	/* ReadCVT */
IF[ ]	/* If */
PUSHW[ ]	/* 1 value pushed */
55 
MDAP[1]	/* MoveDirectAbsPt */
ELSE[ ]	/* Else */
PUSHW[ ]	/* 2 values pushed */
55 1 
MIAP[0]	/* MoveIndirectAbsPt */
EIF[ ]	/* EndIf */
PUSHW[ ]	/* 1 value pushed */
15 
SRP0[ ]	/* SetRefPoint0 */
PUSHW[ ]	/* 1 value pushed */
8 
MDRP[11100]	/* MoveDirectRelPt */
PUSHW[ ]	/* 1 value pushed */
14 
MDRP[10000]	/* MoveDirectRelPt */
PUSHW[ ]	/* 1 value pushed */
24 
MDRP[10000]	/* MoveDirectRelPt */
PUSHW[ ]	/* 1 value pushed */
30 
SRP0[ ]	/* SetRefPoint0 */
PUSHW[ ]	/* 1 value pushed */
29 
MDRP[11100]	/* MoveDirectRelPt */
PUSHW[ ]	/* 1 value pushed */
39 
MDRP[10000]	/* MoveDirectRelPt */
PUSHW[ ]	/* 3 values pushed */
42 30 0 
SRP1[ ]	/* SetRefPoint1 */
SRP2[ ]	/* SetRefPoint2 */
IP[ ]	/* InterpolatePts */
PUSHW[ ]	/* 3 values pushed */
44 30 0 
SRP1[ ]	/* SetRefPoint1 */
SRP2[ ]	/* SetRefPoint2 */
IP[ ]	/* InterpolatePts */
PUSHW[ ]	/* 1 value pushed */
47 
MDRP[10000]	/* MoveDirectRelPt */
PUSHW[ ]	/* 1 value pushed */
57 
MDRP[10000]	/* MoveDirectRelPt */
PUSHW[ ]	/* 1 value pushed */
24 
SRP0[ ]	/* SetRefPoint0 */
PUSHW[ ]	/* 1 value pushed */
62 
MDRP[10000]	/* MoveDirectRelPt */
IUP[0]	/* InterpolateUntPts */
IUP[1]	/* InterpolateUntPts */";
};
width = 3040;
}
);
leftKerningGroup = uni0412;
leftMetricsKey = H;
note = M;
rightKerningGroup = uni042F;
unicode = 004D;
},
{
glyphname = N;
lastChange = "2021-12-17 23:42:19 +0000";
layers = (
{
anchors = (
{
name = bottom;
position = "{1115, 0}";
},
{
name = top;
position = "{1085, 1850}";
}
);
layerId = "E4BC606E-CD30-42C5-8BF2-1DD2ABB89119";
paths = (
{
closed = 1;
nodes = (
"1070 0 LINE",
"1070 80 LINE",
"861 80 OFFCURVE",
"830 136 OFFCURVE",
"830 408 CURVE SMOOTH",
"830 1516 LINE SMOOTH",
"830 1706 OFFCURVE",
"867 1740 OFFCURVE",
"1160 1740 CURVE SMOOTH",
"1421 1740 OFFCURVE",
"1490 1719 OFFCURVE",
"1490 1450 CURVE SMOOTH",
"1490 430 LINE SMOOTH",
"1490 65 OFFCURVE",
"1545 0 OFFCURVE",
"1850 0 CURVE SMOOTH",
"2150 0 LINE",
"2150 80 LINE",
"2003 80 OFFCURVE",
"1940 185 OFFCURVE",
"1940 430 CURVE SMOOTH",
"1940 1450 LINE SMOOTH",
"1940 1770 OFFCURVE",
"1830 1850 OFFCURVE",
"1490 1850 CURVE SMOOTH",
"100 1849 LINE",
"100 1770 LINE",
"335 1770 OFFCURVE",
"380 1708 OFFCURVE",
"380 1356 CURVE SMOOTH",
"380 430 LINE SMOOTH",
"380 146 OFFCURVE",
"330 80 OFFCURVE",
"120 80 CURVE",
"120 0 LINE"
);
}
);
userData = {
assembly = "PUSHW[ ]	/* 1 value pushed */
0 
CALL[ ]	/* CallFunction */
SVTCA[0]	/* SetFreedomAndProjectionVectorToAxis */
PUSHW[ ]	/* 1 value pushed */
0 
RCVT[ ]	/* ReadCVT */
IF[ ]	/* If */
PUSHW[ ]	/* 1 value pushed */
0 
MDAP[1]	/* MoveDirectAbsPt */
ELSE[ ]	/* Else */
PUSHW[ ]	/* 2 values pushed */
0 7 
MIAP[0]	/* MoveIndirectAbsPt */
EIF[ ]	/* EndIf */
PUSHW[ ]	/* 1 value pushed */
0 
RCVT[ ]	/* ReadCVT */
IF[ ]	/* If */
PUSHW[ ]	/* 1 value pushed */
6 
MDAP[1]	/* MoveDirectAbsPt */
ELSE[ ]	/* Else */
PUSHW[ ]	/* 2 values pushed */
6 7 
MIAP[0]	/* MoveIndirectAbsPt */
EIF[ ]	/* EndIf */
PUSHW[ ]	/* 1 value pushed */
0 
RCVT[ ]	/* ReadCVT */
IF[ ]	/* If */
PUSHW[ ]	/* 1 value pushed */
15 
MDAP[1]	/* MoveDirectAbsPt */
ELSE[ ]	/* Else */
PUSHW[ ]	/* 2 values pushed */
15 7 
MIAP[0]	/* MoveIndirectAbsPt */
EIF[ ]	/* EndIf */
PUSHW[ ]	/* 1 value pushed */
0 
RCVT[ ]	/* ReadCVT */
IF[ ]	/* If */
PUSHW[ ]	/* 1 value pushed */
22 
MDAP[1]	/* MoveDirectAbsPt */
ELSE[ ]	/* Else */
PUSHW[ ]	/* 2 values pushed */
22 7 
MIAP[0]	/* MoveIndirectAbsPt */
EIF[ ]	/* EndIf */
PUSHW[ ]	/* 1 value pushed */
0 
RCVT[ ]	/* ReadCVT */
IF[ ]	/* If */
PUSHW[ ]	/* 1 value pushed */
30 
MDAP[1]	/* MoveDirectAbsPt */
ELSE[ ]	/* Else */
PUSHW[ ]	/* 2 values pushed */
30 1 
MIAP[0]	/* MoveIndirectAbsPt */
EIF[ ]	/* EndIf */
PUSHW[ ]	/* 1 value pushed */
0 
RCVT[ ]	/* ReadCVT */
IF[ ]	/* If */
PUSHW[ ]	/* 1 value pushed */
37 
MDAP[1]	/* MoveDirectAbsPt */
ELSE[ ]	/* Else */
PUSHW[ ]	/* 2 values pushed */
37 1 
MIAP[0]	/* MoveIndirectAbsPt */
EIF[ ]	/* EndIf */
PUSHW[ ]	/* 1 value pushed */
0 
RCVT[ ]	/* ReadCVT */
IF[ ]	/* If */
PUSHW[ ]	/* 1 value pushed */
46 
MDAP[1]	/* MoveDirectAbsPt */
ELSE[ ]	/* Else */
PUSHW[ ]	/* 2 values pushed */
46 1 
MIAP[0]	/* MoveIndirectAbsPt */
EIF[ ]	/* EndIf */
PUSHW[ ]	/* 1 value pushed */
0 
RCVT[ ]	/* ReadCVT */
IF[ ]	/* If */
PUSHW[ ]	/* 1 value pushed */
53 
MDAP[1]	/* MoveDirectAbsPt */
ELSE[ ]	/* Else */
PUSHW[ ]	/* 2 values pushed */
53 1 
MIAP[0]	/* MoveIndirectAbsPt */
EIF[ ]	/* EndIf */
PUSHW[ ]	/* 1 value pushed */
15 
SRP0[ ]	/* SetRefPoint0 */
PUSHW[ ]	/* 1 value pushed */
8 
MDRP[11100]	/* MoveDirectRelPt */
PUSHW[ ]	/* 3 values pushed */
11 30 0 
SRP1[ ]	/* SetRefPoint1 */
SRP2[ ]	/* SetRefPoint2 */
IP[ ]	/* InterpolatePts */
PUSHW[ ]	/* 1 value pushed */
14 
MDRP[10000]	/* MoveDirectRelPt */
PUSHW[ ]	/* 1 value pushed */
24 
MDRP[10000]	/* MoveDirectRelPt */
PUSHW[ ]	/* 1 value pushed */
30 
SRP0[ ]	/* SetRefPoint0 */
PUSHW[ ]	/* 1 value pushed */
29 
MDRP[11100]	/* MoveDirectRelPt */
PUSHW[ ]	/* 1 value pushed */
39 
MDRP[10000]	/* MoveDirectRelPt */
PUSHW[ ]	/* 3 values pushed */
42 30 0 
SRP1[ ]	/* SetRefPoint1 */
SRP2[ ]	/* SetRefPoint2 */
IP[ ]	/* InterpolatePts */
PUSHW[ ]	/* 1 value pushed */
45 
MDRP[10000]	/* MoveDirectRelPt */
PUSHW[ ]	/* 1 value pushed */
55 
MDRP[10000]	/* MoveDirectRelPt */
PUSHW[ ]	/* 1 value pushed */
24 
SRP0[ ]	/* SetRefPoint0 */
PUSHW[ ]	/* 1 value pushed */
60 
MDRP[10000]	/* MoveDirectRelPt */
IUP[0]	/* InterpolateUntPts */
IUP[1]	/* InterpolateUntPts */";
};
width = 2230;
}
);
leftKerningGroup = uni0412;
leftMetricsKey = H;
note = N;
rightKerningGroup = uni042F;
unicode = 004E;
},
{
glyphname = O;
lastChange = "2021-12-17 23:42:19 +0000";
layers = (
{
anchors = (
{
name = bottom;
position = "{1005, 0}";
},
{
name = center;
position = "{1005, 925}";
},
{
name = ogonek;
position = "{1809, 10}";
},
{
name = top;
position = "{1005, 1850}";
},
{
name = topleft;
position = "{20, 1850}";
},
{
name = topright;
position = "{1990, 1850}";
}
);
layerId = "E4BC606E-CD30-42C5-8BF2-1DD2ABB89119";
paths = (
{
closed = 1;
nodes = (
"1825 1357 LINE SMOOTH",
"1825 1677 OFFCURVE",
"1642 1850 OFFCURVE",
"1325 1850 CURVE SMOOTH",
"685 1850 LINE SMOOTH",
"367 1850 OFFCURVE",
"185 1677 OFFCURVE",
"185 1357 CURVE SMOOTH",
"185 493 LINE SMOOTH",
"185 173 OFFCURVE",
"367 0 OFFCURVE",
"685 0 CURVE SMOOTH",
"1325 0 LINE SMOOTH",
"1642 0 OFFCURVE",
"1825 173 OFFCURVE",
"1825 493 CURVE SMOOTH"
);
},
{
closed = 1;
nodes = (
"1365 493 LINE SMOOTH",
"1365 197 OFFCURVE",
"1293 123 OFFCURVE",
"1005 123 CURVE SMOOTH",
"717 123 OFFCURVE",
"645 197 OFFCURVE",
"645 493 CURVE SMOOTH",
"645 1357 LINE SMOOTH",
"645 1653 OFFCURVE",
"717 1727 OFFCURVE",
"1005 1727 CURVE SMOOTH",
"1293 1727 OFFCURVE",
"1365 1653 OFFCURVE",
"1365 1357 CURVE SMOOTH"
);
}
);
userData = {
assembly = "PUSHW[ ]	/* 1 value pushed */
0 
CALL[ ]	/* CallFunction */
SVTCA[0]	/* SetFreedomAndProjectionVectorToAxis */
PUSHW[ ]	/* 1 value pushed */
0 
RCVT[ ]	/* ReadCVT */
IF[ ]	/* If */
PUSHW[ ]	/* 1 value pushed */
6 
MDAP[1]	/* MoveDirectAbsPt */
ELSE[ ]	/* Else */
PUSHW[ ]	/* 2 values pushed */
6 7 
MIAP[0]	/* MoveIndirectAbsPt */
EIF[ ]	/* EndIf */
PUSHW[ ]	/* 1 value pushed */
0 
RCVT[ ]	/* ReadCVT */
IF[ ]	/* If */
PUSHW[ ]	/* 1 value pushed */
18 
MDAP[1]	/* MoveDirectAbsPt */
ELSE[ ]	/* Else */
PUSHW[ ]	/* 2 values pushed */
18 1 
MIAP[0]	/* MoveIndirectAbsPt */
EIF[ ]	/* EndIf */
PUSHW[ ]	/* 1 value pushed */
26 
MDRP[11100]	/* MoveDirectRelPt */
NPUSHW[ ]	/* 27 values pushed */
7 26 23 26 39 26 55 26 71 26 87 26 103 26 119 26 135 26 151 26 167 26 183 26 199 26 13 
DELTAP1[ ]	/* DeltaExceptionP1 */
NPUSHW[ ]	/* 5 values pushed */
214 26 230 26 2 
DELTAP1[ ]	/* DeltaExceptionP1 */
PUSHW[ ]	/* 1 value pushed */
6 
SRP0[ ]	/* SetRefPoint0 */
PUSHW[ ]	/* 1 value pushed */
31 
MDRP[11100]	/* MoveDirectRelPt */
NPUSHW[ ]	/* 5 values pushed */
217 31 233 31 2 
DELTAP1[ ]	/* DeltaExceptionP1 */
NPUSHW[ ]	/* 27 values pushed */
8 31 24 31 40 31 56 31 72 31 88 31 104 31 120 31 136 31 152 31 168 31 184 31 200 31 13 
DELTAP1[ ]	/* DeltaExceptionP1 */
IUP[0]	/* InterpolateUntPts */
IUP[1]	/* InterpolateUntPts */";
};
width = 2010;
}
);
leftKerningGroup = uni041E;
note = O;
rightKerningGroup = uni041E;
unicode = 004F;
},
{
glyphname = Oslash;
lastChange = "2021-12-17 23:42:19 +0000";
layers = (
{
anchors = (
{
name = bottom;
position = "{1005, 0}";
},
{
name = center;
position = "{1005, 925}";
},
{
name = ogonek;
position = "{1809, 10}";
},
{
name = top;
position = "{1005, 1850}";
},
{
name = topleft;
position = "{20, 1850}";
},
{
name = topright;
position = "{1990, 1850}";
}
);
layerId = "E4BC606E-CD30-42C5-8BF2-1DD2ABB89119";
paths = (
{
closed = 1;
nodes = (
"1825 1357 LINE SMOOTH",
"1825 1677 OFFCURVE",
"1642 1850 OFFCURVE",
"1325 1850 CURVE SMOOTH",
"685 1850 LINE SMOOTH",
"367 1850 OFFCURVE",
"185 1677 OFFCURVE",
"185 1357 CURVE SMOOTH",
"185 493 LINE SMOOTH",
"185 173 OFFCURVE",
"367 0 OFFCURVE",
"685 0 CURVE SMOOTH",
"1325 0 LINE SMOOTH",
"1642 0 OFFCURVE",
"1825 173 OFFCURVE",
"1825 493 CURVE SMOOTH"
);
},
{
closed = 1;
nodes = (
"1365 493 LINE SMOOTH",
"1365 197 OFFCURVE",
"1293 123 OFFCURVE",
"1005 123 CURVE SMOOTH",
"717 123 OFFCURVE",
"645 197 OFFCURVE",
"645 493 CURVE SMOOTH",
"645 1357 LINE SMOOTH",
"645 1653 OFFCURVE",
"717 1727 OFFCURVE",
"1005 1727 CURVE SMOOTH",
"1293 1727 OFFCURVE",
"1365 1653 OFFCURVE",
"1365 1357 CURVE SMOOTH"
);
},
{
closed = 1;
nodes = (
"1657 1569 LINE",
"1526 1678 LINE",
"365 279 LINE",
"496 170 LINE"
);
}
);
width = 2010;
},
{
anchors = (
{
name = bottom;
position = "{1005, 0}";
},
{
name = center;
position = "{1005, 925}";
},
{
name = ogonek;
position = "{1809, 10}";
},
{
name = top;
position = "{1005, 1850}";
},
{
name = topleft;
position = "{20, 1850}";
},
{
name = topright;
position = "{1990, 1850}";
}
);
associatedMasterId = "E4BC606E-CD30-42C5-8BF2-1DD2ABB89119";
layerId = "8E0E6921-2D84-4543-9561-65EC6758549B";
name = "13 Dec 21, 01:18";
paths = (
{
closed = 1;
nodes = (
"1825 1357 LINE SMOOTH",
"1825 1677 OFFCURVE",
"1642 1850 OFFCURVE",
"1325 1850 CURVE SMOOTH",
"685 1850 LINE SMOOTH",
"367 1850 OFFCURVE",
"185 1677 OFFCURVE",
"185 1357 CURVE SMOOTH",
"185 493 LINE SMOOTH",
"185 173 OFFCURVE",
"367 0 OFFCURVE",
"685 0 CURVE SMOOTH",
"1325 0 LINE SMOOTH",
"1642 0 OFFCURVE",
"1825 173 OFFCURVE",
"1825 493 CURVE SMOOTH"
);
},
{
closed = 1;
nodes = (
"1365 493 LINE SMOOTH",
"1365 197 OFFCURVE",
"1293 123 OFFCURVE",
"1005 123 CURVE SMOOTH",
"717 123 OFFCURVE",
"645 197 OFFCURVE",
"645 493 CURVE SMOOTH",
"645 1357 LINE SMOOTH",
"645 1653 OFFCURVE",
"717 1727 OFFCURVE",
"1005 1727 CURVE SMOOTH",
"1293 1727 OFFCURVE",
"1365 1653 OFFCURVE",
"1365 1357 CURVE SMOOTH"
);
},
{
closed = 1;
nodes = (
"1923 1886 LINE",
"1792 1995 LINE",
"89 -35 LINE",
"220 -144 LINE"
);
}
);
width = 2010;
}
);
unicode = 00D8;
},
{
glyphname = OE;
lastChange = "2021-12-17 23:42:19 +0000";
layers = (
{
anchors = (
{
name = bottom;
position = "{1494, 0}";
},
{
name = top;
position = "{1482, 1850}";
}
);
layerId = "E4BC606E-CD30-42C5-8BF2-1DD2ABB89119";
paths = (
{
closed = 1;
nodes = (
"2513 0 LINE",
"2463 570 LINE",
"2363 570 LINE",
"2329 264 OFFCURVE",
"2196 120 OFFCURVE",
"1936 120 CURVE SMOOTH",
"1751 120 OFFCURVE",
"1712 175 OFFCURVE",
"1712 493 CURVE SMOOTH",
"1712 1357 LINE SMOOTH",
"1712 1675 OFFCURVE",
"1751 1730 OFFCURVE",
"1936 1730 CURVE SMOOTH",
"2196 1730 OFFCURVE",
"2329 1586 OFFCURVE",
"2363 1280 CURVE",
"2463 1280 LINE",
"2513 1850 LINE",
"635 1850 LINE SMOOTH",
"324 1850 OFFCURVE",
"185 1702 OFFCURVE",
"185 1380 CURVE SMOOTH",
"185 470 LINE SMOOTH",
"185 148 OFFCURVE",
"324 0 OFFCURVE",
"635 0 CURVE SMOOTH"
);
},
{
closed = 1;
nodes = (
"699 110 OFFCURVE",
"635 178 OFFCURVE",
"635 470 CURVE SMOOTH",
"635 1380 LINE SMOOTH",
"635 1672 OFFCURVE",
"699 1740 OFFCURVE",
"965 1740 CURVE SMOOTH",
"1212 1740 OFFCURVE",
"1276 1672 OFFCURVE",
"1276 1380 CURVE SMOOTH",
"1276 470 LINE SMOOTH",
"1276 178 OFFCURVE",
"1212 110 OFFCURVE",
"965 110 CURVE SMOOTH"
);
},
{
closed = 1;
nodes = (
"2200 854 LINE",
"2200 994 LINE",
"1468 994 LINE",
"1468 854 LINE"
);
}
);
width = 2618;
}
);
leftMetricsKey = O;
rightMetricsKey = E;
unicode = 0152;
},
{
glyphname = P;
lastChange = "2021-12-17 23:42:19 +0000";
layers = (
{
anchors = (
{
name = bottom;
position = "{981, 0}";
},
{
name = top;
position = "{981, 1850}";
}
);
layerId = "E4BC606E-CD30-42C5-8BF2-1DD2ABB89119";
paths = (
{
closed = 1;
nodes = (
"1656 750 OFFCURVE",
"1810 882 OFFCURVE",
"1810 1170 CURVE SMOOTH",
"1810 1450 LINE SMOOTH",
"1810 1710 OFFCURVE",
"1639 1850 OFFCURVE",
"1340 1850 CURVE SMOOTH",
"100 1850 LINE",
"100 1771 LINE",
"338 1771 OFFCURVE",
"380 1709 OFFCURVE",
"380 1356 CURVE SMOOTH",
"380 494 LINE SMOOTH",
"380 141 OFFCURVE",
"338 79 OFFCURVE",
"100 79 CURVE",
"100 0 LINE",
"1165 0 LINE",
"1165 79 LINE",
"863 79 OFFCURVE",
"820 119 OFFCURVE",
"820 400 CURVE SMOOTH",
"820 750 LINE",
"1320 750 LINE SMOOTH"
);
},
{
closed = 1;
nodes = (
"820 1450 LINE SMOOTH",
"820 1750 OFFCURVE",
"820 1750 OFFCURVE",
"1040 1750 CURVE SMOOTH",
"1285 1750 OFFCURVE",
"1370 1690 OFFCURVE",
"1370 1450 CURVE SMOOTH",
"1370 1170 LINE SMOOTH",
"1370 951 OFFCURVE",
"1282 850 OFFCURVE",
"1040 850 CURVE SMOOTH",
"820 850 LINE"
);
}
);
userData = {
assembly = "PUSHW[ ]	/* 1 value pushed */
0 
CALL[ ]	/* CallFunction */
SVTCA[0]	/* SetFreedomAndProjectionVectorToAxis */
PUSHW[ ]	/* 1 value pushed */
0 
RCVT[ ]	/* ReadCVT */
IF[ ]	/* If */
PUSHW[ ]	/* 1 value pushed */
0 
MDAP[1]	/* MoveDirectAbsPt */
ELSE[ ]	/* Else */
PUSHW[ ]	/* 2 values pushed */
0 7 
MIAP[0]	/* MoveIndirectAbsPt */
EIF[ ]	/* EndIf */
PUSHW[ ]	/* 1 value pushed */
0 
RCVT[ ]	/* ReadCVT */
IF[ ]	/* If */
PUSHW[ ]	/* 1 value pushed */
7 
MDAP[1]	/* MoveDirectAbsPt */
ELSE[ ]	/* Else */
PUSHW[ ]	/* 2 values pushed */
7 7 
MIAP[0]	/* MoveIndirectAbsPt */
EIF[ ]	/* EndIf */
PUSHW[ ]	/* 1 value pushed */
0 
RCVT[ ]	/* ReadCVT */
IF[ ]	/* If */
PUSHW[ ]	/* 1 value pushed */
24 
MDAP[1]	/* MoveDirectAbsPt */
ELSE[ ]	/* Else */
PUSHW[ ]	/* 2 values pushed */
24 1 
MIAP[0]	/* MoveIndirectAbsPt */
EIF[ ]	/* EndIf */
PUSHW[ ]	/* 1 value pushed */
0 
RCVT[ ]	/* ReadCVT */
IF[ ]	/* If */
PUSHW[ ]	/* 1 value pushed */
31 
MDAP[1]	/* MoveDirectAbsPt */
ELSE[ ]	/* Else */
PUSHW[ ]	/* 2 values pushed */
31 1 
MIAP[0]	/* MoveIndirectAbsPt */
EIF[ ]	/* EndIf */
PUSHW[ ]	/* 3 values pushed */
40 19 3 
CALL[ ]	/* CallFunction */
PUSHW[ ]	/* 1 value pushed */
24 
SRP0[ ]	/* SetRefPoint0 */
PUSHW[ ]	/* 1 value pushed */
23 
MDRP[11100]	/* MoveDirectRelPt */
PUSHW[ ]	/* 1 value pushed */
33 
MDRP[10000]	/* MoveDirectRelPt */
PUSHW[ ]	/* 1 value pushed */
0 
SRP0[ ]	/* SetRefPoint0 */
PUSHW[ ]	/* 1 value pushed */
38 
MDRP[11100]	/* MoveDirectRelPt */
PUSHW[ ]	/* 1 value pushed */
45 
MDRP[10000]	/* MoveDirectRelPt */
IUP[0]	/* InterpolateUntPts */
IUP[1]	/* InterpolateUntPts */";
};
width = 1962;
}
);
leftKerningGroup = uni0412;
note = P;
rightKerningGroup = uni0420;
unicode = 0050;
},
{
glyphname = Thorn;
lastChange = "2021-12-17 23:42:19 +0000";
layers = (
{
anchors = (
{
name = bottom;
position = "{981, 0}";
},
{
name = top;
position = "{981, 1850}";
}
);
layerId = "E4BC606E-CD30-42C5-8BF2-1DD2ABB89119";
paths = (
{
closed = 1;
nodes = (
"1165 0 LINE",
"1165 79 LINE",
"863 79 OFFCURVE",
"820 110 OFFCURVE",
"820 330 CURVE SMOOTH",
"820 410 LINE",
"1320 410 LINE SMOOTH",
"1656 410 OFFCURVE",
"1810 511 OFFCURVE",
"1810 730 CURVE SMOOTH",
"1810 1120 LINE SMOOTH",
"1810 1342 OFFCURVE",
"1656 1440 OFFCURVE",
"1320 1440 CURVE SMOOTH",
"820 1440 LINE",
"820 1520 LINE SMOOTH",
"820 1740 OFFCURVE",
"863 1771 OFFCURVE",
"1165 1771 CURVE",
"1165 1850 LINE",
"100 1850 LINE",
"100 1771 LINE",
"338 1771 OFFCURVE",
"380 1719 OFFCURVE",
"380 1426 CURVE SMOOTH",
"380 424 LINE SMOOTH",
"380 131 OFFCURVE",
"338 79 OFFCURVE",
"100 79 CURVE",
"100 0 LINE"
);
},
{
closed = 1;
nodes = (
"820 1340 LINE",
"1040 1340 LINE SMOOTH",
"1282 1340 OFFCURVE",
"1370 1268 OFFCURVE",
"1370 1040 CURVE SMOOTH",
"1370 740 LINE SMOOTH",
"1370 583 OFFCURVE",
"1282 510 OFFCURVE",
"1040 510 CURVE SMOOTH",
"820 510 LINE"
);
}
);
width = 1912;
}
);
unicode = 00DE;
},
{
glyphname = Q;
lastChange = "2021-12-17 23:44:13 +0000";
layers = (
{
layerId = "E4BC606E-CD30-42C5-8BF2-1DD2ABB89119";
paths = (
{
closed = 1;
nodes = (
"1825 1357 LINE SMOOTH",
"1825 1677 OFFCURVE",
"1642 1850 OFFCURVE",
"1325 1850 CURVE SMOOTH",
"685 1850 LINE SMOOTH",
"367 1850 OFFCURVE",
"185 1677 OFFCURVE",
"185 1357 CURVE SMOOTH",
"185 493 LINE SMOOTH",
"185 173 OFFCURVE",
"367 0 OFFCURVE",
"685 0 CURVE SMOOTH",
"1325 0 LINE SMOOTH",
"1642 0 OFFCURVE",
"1825 173 OFFCURVE",
"1825 493 CURVE SMOOTH"
);
},
{
closed = 1;
nodes = (
"1365 493 LINE SMOOTH",
"1365 197 OFFCURVE",
"1293 123 OFFCURVE",
"1005 123 CURVE SMOOTH",
"717 123 OFFCURVE",
"645 197 OFFCURVE",
"645 493 CURVE SMOOTH",
"645 1357 LINE SMOOTH",
"645 1653 OFFCURVE",
"717 1727 OFFCURVE",
"1005 1727 CURVE SMOOTH",
"1293 1727 OFFCURVE",
"1365 1653 OFFCURVE",
"1365 1357 CURVE SMOOTH"
);
},
{
closed = 1;
nodes = (
"1013 76 LINE",
"893 75 LINE",
"893 -206 LINE SMOOTH",
"893 -604 OFFCURVE",
"1122 -700 OFFCURVE",
"1306 -700 CURVE SMOOTH",
"1483 -700 OFFCURVE",
"1631 -612 OFFCURVE",
"1631 -434 CURVE SMOOTH",
"1631 -293 OFFCURVE",
"1538 -184 OFFCURVE",
"1382 -184 CURVE SMOOTH",
"1169 -184 OFFCURVE",
"1203 -388 OFFCURVE",
"1096 -388 CURVE SMOOTH",
"1013 -388 OFFCURVE",
"1013 -263 OFFCURVE",
"1013 -211 CURVE SMOOTH"
);
}
);
userData = {
assembly = "PUSHW[ ]	/* 1 value pushed */
0 
CALL[ ]	/* CallFunction */
SVTCA[0]	/* SetFreedomAndProjectionVectorToAxis */
PUSHW[ ]	/* 1 value pushed */
0 
RCVT[ ]	/* ReadCVT */
IF[ ]	/* If */
PUSHW[ ]	/* 1 value pushed */
5 
MDAP[1]	/* MoveDirectAbsPt */
ELSE[ ]	/* Else */
PUSHW[ ]	/* 2 values pushed */
5 7 
MIAP[0]	/* MoveIndirectAbsPt */
EIF[ ]	/* EndIf */
PUSHW[ ]	/* 1 value pushed */
0 
RCVT[ ]	/* ReadCVT */
IF[ ]	/* If */
PUSHW[ ]	/* 1 value pushed */
18 
MDAP[1]	/* MoveDirectAbsPt */
ELSE[ ]	/* Else */
PUSHW[ ]	/* 2 values pushed */
18 1 
MIAP[0]	/* MoveIndirectAbsPt */
EIF[ ]	/* EndIf */
PUSHW[ ]	/* 1 value pushed */
0 
RCVT[ ]	/* ReadCVT */
IF[ ]	/* If */
PUSHW[ ]	/* 1 value pushed */
21 
MDAP[1]	/* MoveDirectAbsPt */
ELSE[ ]	/* Else */
PUSHW[ ]	/* 2 values pushed */
21 1 
MIAP[0]	/* MoveIndirectAbsPt */
EIF[ ]	/* EndIf */
PUSHW[ ]	/* 1 value pushed */
30 
MDRP[11100]	/* MoveDirectRelPt */
NPUSHW[ ]	/* 27 values pushed */
7 30 23 30 39 30 55 30 71 30 87 30 103 30 119 30 135 30 151 30 167 30 183 30 199 30 13 
DELTAP1[ ]	/* DeltaExceptionP1 */
NPUSHW[ ]	/* 5 values pushed */
214 30 230 30 2 
DELTAP1[ ]	/* DeltaExceptionP1 */
PUSHW[ ]	/* 3 values pushed */
34 21 5 
SRP1[ ]	/* SetRefPoint1 */
SRP2[ ]	/* SetRefPoint2 */
IP[ ]	/* InterpolatePts */
PUSHW[ ]	/* 3 values pushed */
35 21 5 
SRP1[ ]	/* SetRefPoint1 */
SRP2[ ]	/* SetRefPoint2 */
IP[ ]	/* InterpolatePts */
PUSHW[ ]	/* 1 value pushed */
5 
SRP0[ ]	/* SetRefPoint0 */
PUSHW[ ]	/* 1 value pushed */
39 
MDRP[11100]	/* MoveDirectRelPt */
NPUSHW[ ]	/* 5 values pushed */
217 39 233 39 2 
DELTAP1[ ]	/* DeltaExceptionP1 */
NPUSHW[ ]	/* 27 values pushed */
8 39 24 39 40 39 56 39 72 39 88 39 104 39 120 39 136 39 152 39 168 39 184 39 200 39 13 
DELTAP1[ ]	/* DeltaExceptionP1 */
IUP[0]	/* InterpolateUntPts */
IUP[1]	/* InterpolateUntPts */";
};
width = 2010;
}
);
leftKerningGroup = uni041E;
note = Q;
rightKerningGroup = uni041E;
unicode = 0051;
},
{
glyphname = R;
lastChange = "2021-12-17 23:42:19 +0000";
layers = (
{
anchors = (
{
name = bottom;
position = "{1079, 0}";
},
{
name = center;
position = "{597, 925}";
},
{
name = top;
position = "{1079, 1850}";
}
);
layerId = "E4BC606E-CD30-42C5-8BF2-1DD2ABB89119";
paths = (
{
closed = 1;
nodes = (
"1667 870 OFFCURVE",
"1830 1002 OFFCURVE",
"1830 1290 CURVE SMOOTH",
"1830 1450 LINE SMOOTH",
"1830 1710 OFFCURVE",
"1659 1850 OFFCURVE",
"1360 1850 CURVE SMOOTH",
"100 1850 LINE",
"100 1771 LINE",
"338 1771 OFFCURVE",
"380 1709 OFFCURVE",
"380 1356 CURVE SMOOTH",
"380 494 LINE SMOOTH",
"380 141 OFFCURVE",
"338 79 OFFCURVE",
"100 79 CURVE",
"100 0 LINE",
"1165 0 LINE",
"1165 79 LINE",
"863 79 OFFCURVE",
"820 119 OFFCURVE",
"820 400 CURVE SMOOTH",
"820 870 LINE",
"1310 870 LINE SMOOTH"
);
},
{
closed = 1;
nodes = (
"820 1450 LINE SMOOTH",
"820 1750 OFFCURVE",
"820 1750 OFFCURVE",
"1040 1750 CURVE SMOOTH",
"1305 1750 OFFCURVE",
"1390 1690 OFFCURVE",
"1390 1450 CURVE SMOOTH",
"1390 1290 LINE SMOOTH",
"1390 1071 OFFCURVE",
"1302 970 OFFCURVE",
"1040 970 CURVE SMOOTH",
"820 970 LINE"
);
},
{
closed = 1;
nodes = (
"1040 870 LINE",
"1306 870 OFFCURVE",
"1389 792 OFFCURVE",
"1390 560 CURVE SMOOTH",
"1391 348 LINE SMOOTH",
"1392 91 OFFCURVE",
"1485 0 OFFCURVE",
"1750 0 CURVE SMOOTH",
"2050 0 LINE",
"2050 80 LINE",
"1851 80 OFFCURVE",
"1840 104 OFFCURVE",
"1840 540 CURVE SMOOTH",
"1840 860 OFFCURVE",
"1710 940 OFFCURVE",
"1310 940 CURVE",
"1039 940 LINE"
);
}
);
userData = {
assembly = "PUSHW[ ]	/* 1 value pushed */
0 
CALL[ ]	/* CallFunction */
SVTCA[0]	/* SetFreedomAndProjectionVectorToAxis */
PUSHW[ ]	/* 1 value pushed */
0 
RCVT[ ]	/* ReadCVT */
IF[ ]	/* If */
PUSHW[ ]	/* 1 value pushed */
6 
MDAP[1]	/* MoveDirectAbsPt */
ELSE[ ]	/* Else */
PUSHW[ ]	/* 2 values pushed */
6 7 
MIAP[0]	/* MoveIndirectAbsPt */
EIF[ ]	/* EndIf */
PUSHW[ ]	/* 1 value pushed */
0 
RCVT[ ]	/* ReadCVT */
IF[ ]	/* If */
PUSHW[ ]	/* 1 value pushed */
13 
MDAP[1]	/* MoveDirectAbsPt */
ELSE[ ]	/* Else */
PUSHW[ ]	/* 2 values pushed */
13 7 
MIAP[0]	/* MoveIndirectAbsPt */
EIF[ ]	/* EndIf */
PUSHW[ ]	/* 1 value pushed */
0 
RCVT[ ]	/* ReadCVT */
IF[ ]	/* If */
PUSHW[ ]	/* 1 value pushed */
36 
MDAP[1]	/* MoveDirectAbsPt */
ELSE[ ]	/* Else */
PUSHW[ ]	/* 2 values pushed */
36 1 
MIAP[0]	/* MoveIndirectAbsPt */
EIF[ ]	/* EndIf */
PUSHW[ ]	/* 1 value pushed */
0 
RCVT[ ]	/* ReadCVT */
IF[ ]	/* If */
PUSHW[ ]	/* 1 value pushed */
50 
MDAP[1]	/* MoveDirectAbsPt */
ELSE[ ]	/* Else */
PUSHW[ ]	/* 2 values pushed */
50 1 
MIAP[0]	/* MoveIndirectAbsPt */
EIF[ ]	/* EndIf */
PUSHW[ ]	/* 1 value pushed */
0 
RCVT[ ]	/* ReadCVT */
IF[ ]	/* If */
PUSHW[ ]	/* 1 value pushed */
57 
MDAP[1]	/* MoveDirectAbsPt */
ELSE[ ]	/* Else */
PUSHW[ ]	/* 2 values pushed */
57 1 
MIAP[0]	/* MoveIndirectAbsPt */
EIF[ ]	/* EndIf */
PUSHW[ ]	/* 3 values pushed */
60 45 3 
CALL[ ]	/* CallFunction */
PUSHW[ ]	/* 1 value pushed */
57 
SRP0[ ]	/* SetRefPoint0 */
PUSHW[ ]	/* 1 value pushed */
0 
MDRP[11100]	/* MoveDirectRelPt */
PUSHW[ ]	/* 1 value pushed */
6 
SRP0[ ]	/* SetRefPoint0 */
PUSHW[ ]	/* 1 value pushed */
5 
MDRP[11100]	/* MoveDirectRelPt */
PUSHW[ ]	/* 3 values pushed */
27 45 60 
SRP1[ ]	/* SetRefPoint1 */
SRP2[ ]	/* SetRefPoint2 */
IP[ ]	/* InterpolatePts */
PUSHW[ ]	/* 1 value pushed */
0 
SRP0[ ]	/* SetRefPoint0 */
PUSHW[ ]	/* 1 value pushed */
35 
MDRP[10000]	/* MoveDirectRelPt */
PUSHW[ ]	/* 1 value pushed */
49 
MDRP[10000]	/* MoveDirectRelPt */
PUSHW[ ]	/* 1 value pushed */
5 
SRP0[ ]	/* SetRefPoint0 */
PUSHW[ ]	/* 1 value pushed */
65 
MDRP[10000]	/* MoveDirectRelPt */
IUP[0]	/* InterpolateUntPts */
IUP[1]	/* InterpolateUntPts */";
};
width = 2094;
}
);
leftKerningGroup = uni0412;
note = R;
rightKerningGroup = uni0410;
unicode = 0052;
},
{
glyphname = S;
lastChange = "2021-12-17 23:42:19 +0000";
layers = (
{
anchors = (
{
name = top;
position = "{950, 1850}";
}
);
layerId = "E4BC606E-CD30-42C5-8BF2-1DD2ABB89119";
paths = (
{
closed = 1;
nodes = (
"1205 0 LINE SMOOTH",
"1522 0 OFFCURVE",
"1705 138 OFFCURVE",
"1705 393 CURVE SMOOTH",
"1705 627 LINE SMOOTH",
"1705 850 OFFCURVE",
"1559 984 OFFCURVE",
"1318 984 CURVE SMOOTH",
"957 984 LINE SMOOTH",
"712 984 OFFCURVE",
"655 1034 OFFCURVE",
"655 1251 CURVE SMOOTH",
"655 1457 LINE SMOOTH",
"655 1673 OFFCURVE",
"726 1727 OFFCURVE",
"965 1727 CURVE SMOOTH",
"1223 1727 OFFCURVE",
"1295 1734 OFFCURVE",
"1295 1670 CURVE SMOOTH",
"1295 1625 OFFCURVE",
"1233 1596 OFFCURVE",
"1233 1469 CURVE SMOOTH",
"1233 1339 OFFCURVE",
"1331 1252 OFFCURVE",
"1464 1252 CURVE SMOOTH",
"1615 1252 OFFCURVE",
"1705 1354 OFFCURVE",
"1705 1508 CURVE SMOOTH",
"1705 1730 OFFCURVE",
"1537 1850 OFFCURVE",
"1225 1850 CURVE SMOOTH",
"685 1850 LINE SMOOTH",
"368 1850 OFFCURVE",
"185 1712 OFFCURVE",
"185 1457 CURVE SMOOTH",
"185 1223 LINE SMOOTH",
"185 1000 OFFCURVE",
"331 864 OFFCURVE",
"572 864 CURVE SMOOTH",
"933 864 LINE SMOOTH",
"1178 864 OFFCURVE",
"1235 816 OFFCURVE",
"1235 599 CURVE SMOOTH",
"1235 393 LINE SMOOTH",
"1235 177 OFFCURVE",
"1164 123 OFFCURVE",
"925 123 CURVE SMOOTH",
"667 123 OFFCURVE",
"595 116 OFFCURVE",
"595 180 CURVE SMOOTH",
"595 225 OFFCURVE",
"657 254 OFFCURVE",
"657 381 CURVE SMOOTH",
"657 511 OFFCURVE",
"559 598 OFFCURVE",
"426 598 CURVE SMOOTH",
"275 598 OFFCURVE",
"185 496 OFFCURVE",
"185 342 CURVE SMOOTH",
"185 120 OFFCURVE",
"353 0 OFFCURVE",
"665 0 CURVE SMOOTH"
);
}
);
userData = {
assembly = "PUSHW[ ]	/* 1 value pushed */
0 
CALL[ ]	/* CallFunction */
SVTCA[0]	/* SetFreedomAndProjectionVectorToAxis */
PUSHW[ ]	/* 1 value pushed */
0 
RCVT[ ]	/* ReadCVT */
IF[ ]	/* If */
PUSHW[ ]	/* 1 value pushed */
45 
MDAP[1]	/* MoveDirectAbsPt */
ELSE[ ]	/* Else */
PUSHW[ ]	/* 2 values pushed */
45 7 
MIAP[0]	/* MoveIndirectAbsPt */
EIF[ ]	/* EndIf */
PUSHW[ ]	/* 1 value pushed */
0 
RCVT[ ]	/* ReadCVT */
IF[ ]	/* If */
PUSHW[ ]	/* 1 value pushed */
19 
MDAP[1]	/* MoveDirectAbsPt */
ELSE[ ]	/* Else */
PUSHW[ ]	/* 2 values pushed */
19 1 
MIAP[0]	/* MoveIndirectAbsPt */
EIF[ ]	/* EndIf */
PUSHW[ ]	/* 3 values pushed */
7 33 3 
CALL[ ]	/* CallFunction */
PUSHW[ ]	/* 1 value pushed */
45 
SRP0[ ]	/* SetRefPoint0 */
PUSHW[ ]	/* 1 value pushed */
2 
MDRP[11100]	/* MoveDirectRelPt */
NPUSHW[ ]	/* 5 values pushed */
217 2 233 2 2 
DELTAP1[ ]	/* DeltaExceptionP1 */
NPUSHW[ ]	/* 27 values pushed */
8 2 24 2 40 2 56 2 72 2 88 2 104 2 120 2 136 2 152 2 168 2 184 2 200 2 13 
DELTAP1[ ]	/* DeltaExceptionP1 */
PUSHW[ ]	/* 1 value pushed */
19 
SRP0[ ]	/* SetRefPoint0 */
PUSHW[ ]	/* 1 value pushed */
28 
MDRP[11100]	/* MoveDirectRelPt */
NPUSHW[ ]	/* 27 values pushed */
7 28 23 28 39 28 55 28 71 28 87 28 103 28 119 28 135 28 151 28 167 28 183 28 199 28 13 
DELTAP1[ ]	/* DeltaExceptionP1 */
NPUSHW[ ]	/* 5 values pushed */
214 28 230 28 2 
DELTAP1[ ]	/* DeltaExceptionP1 */
IUP[0]	/* InterpolateUntPts */
IUP[1]	/* InterpolateUntPts */";
};
width = 1890;
},
{
anchors = (
{
name = top;
position = "{950, 1850}";
}
);
associatedMasterId = "E4BC606E-CD30-42C5-8BF2-1DD2ABB89119";
layerId = "EEA50293-8707-4228-95DC-9F901FC79016";
name = "11 Dec 21, 17:16";
paths = (
{
closed = 1;
nodes = (
"1205 0 LINE SMOOTH",
"1522 0 OFFCURVE",
"1705 173 OFFCURVE",
"1705 493 CURVE SMOOTH",
"1705 931 LINE",
"1235 931 LINE",
"1235 493 LINE SMOOTH",
"1235 197 OFFCURVE",
"1164 123 OFFCURVE",
"925 123 CURVE SMOOTH",
"667 123 OFFCURVE",
"595 116 OFFCURVE",
"595 180 CURVE SMOOTH",
"595 225 OFFCURVE",
"657 254 OFFCURVE",
"657 381 CURVE SMOOTH",
"657 511 OFFCURVE",
"559 598 OFFCURVE",
"426 598 CURVE SMOOTH",
"275 598 OFFCURVE",
"185 496 OFFCURVE",
"185 342 CURVE SMOOTH",
"185 120 OFFCURVE",
"353 0 OFFCURVE",
"665 0 CURVE SMOOTH"
);
},
{
closed = 1;
nodes = (
"1705 864 LINE",
"1705 984 LINE",
"185 984 LINE",
"185 864 LINE"
);
},
{
closed = 1;
nodes = (
"655 931 LINE",
"655 1357 LINE SMOOTH",
"655 1653 OFFCURVE",
"726 1727 OFFCURVE",
"965 1727 CURVE SMOOTH",
"1223 1727 OFFCURVE",
"1295 1734 OFFCURVE",
"1295 1670 CURVE SMOOTH",
"1295 1625 OFFCURVE",
"1233 1596 OFFCURVE",
"1233 1469 CURVE SMOOTH",
"1233 1339 OFFCURVE",
"1331 1252 OFFCURVE",
"1464 1252 CURVE SMOOTH",
"1615 1252 OFFCURVE",
"1705 1354 OFFCURVE",
"1705 1508 CURVE SMOOTH",
"1705 1730 OFFCURVE",
"1537 1850 OFFCURVE",
"1225 1850 CURVE SMOOTH",
"685 1850 LINE SMOOTH",
"368 1850 OFFCURVE",
"185 1677 OFFCURVE",
"185 1357 CURVE SMOOTH",
"185 931 LINE"
);
}
);
userData = {
assembly = "PUSHW[ ]	/* 1 value pushed */
0 
CALL[ ]	/* CallFunction */
SVTCA[0]	/* SetFreedomAndProjectionVectorToAxis */
PUSHW[ ]	/* 1 value pushed */
0 
RCVT[ ]	/* ReadCVT */
IF[ ]	/* If */
PUSHW[ ]	/* 1 value pushed */
45 
MDAP[1]	/* MoveDirectAbsPt */
ELSE[ ]	/* Else */
PUSHW[ ]	/* 2 values pushed */
45 7 
MIAP[0]	/* MoveIndirectAbsPt */
EIF[ ]	/* EndIf */
PUSHW[ ]	/* 1 value pushed */
0 
RCVT[ ]	/* ReadCVT */
IF[ ]	/* If */
PUSHW[ ]	/* 1 value pushed */
19 
MDAP[1]	/* MoveDirectAbsPt */
ELSE[ ]	/* Else */
PUSHW[ ]	/* 2 values pushed */
19 1 
MIAP[0]	/* MoveIndirectAbsPt */
EIF[ ]	/* EndIf */
PUSHW[ ]	/* 3 values pushed */
7 33 3 
CALL[ ]	/* CallFunction */
PUSHW[ ]	/* 1 value pushed */
45 
SRP0[ ]	/* SetRefPoint0 */
PUSHW[ ]	/* 1 value pushed */
2 
MDRP[11100]	/* MoveDirectRelPt */
NPUSHW[ ]	/* 5 values pushed */
217 2 233 2 2 
DELTAP1[ ]	/* DeltaExceptionP1 */
NPUSHW[ ]	/* 27 values pushed */
8 2 24 2 40 2 56 2 72 2 88 2 104 2 120 2 136 2 152 2 168 2 184 2 200 2 13 
DELTAP1[ ]	/* DeltaExceptionP1 */
PUSHW[ ]	/* 1 value pushed */
19 
SRP0[ ]	/* SetRefPoint0 */
PUSHW[ ]	/* 1 value pushed */
28 
MDRP[11100]	/* MoveDirectRelPt */
NPUSHW[ ]	/* 27 values pushed */
7 28 23 28 39 28 55 28 71 28 87 28 103 28 119 28 135 28 151 28 167 28 183 28 199 28 13 
DELTAP1[ ]	/* DeltaExceptionP1 */
NPUSHW[ ]	/* 5 values pushed */
214 28 230 28 2 
DELTAP1[ ]	/* DeltaExceptionP1 */
IUP[0]	/* InterpolateUntPts */
IUP[1]	/* InterpolateUntPts */";
};
width = 1890;
},
{
anchors = (
{
name = top;
position = "{950, 1850}";
}
);
associatedMasterId = "E4BC606E-CD30-42C5-8BF2-1DD2ABB89119";
layerId = "095E8614-4AFD-4C76-AB7B-C35F7CFBCAFD";
name = "11 Dec 21, 17:17";
paths = (
{
closed = 1;
nodes = (
"1205 0 LINE SMOOTH",
"1522 0 OFFCURVE",
"1705 174 OFFCURVE",
"1705 493 CURVE SMOOTH",
"1705 725 LINE SMOOTH",
"1705 886 OFFCURVE",
"1604 984 OFFCURVE",
"1438 984 CURVE SMOOTH",
"847 984 LINE",
"691 984 OFFCURVE",
"655 1023 OFFCURVE",
"655 1191 CURVE",
"655 1357 LINE SMOOTH",
"655 1653 OFFCURVE",
"726 1727 OFFCURVE",
"965 1727 CURVE SMOOTH",
"1223 1727 OFFCURVE",
"1295 1734 OFFCURVE",
"1295 1670 CURVE SMOOTH",
"1295 1625 OFFCURVE",
"1233 1596 OFFCURVE",
"1233 1469 CURVE SMOOTH",
"1233 1339 OFFCURVE",
"1331 1252 OFFCURVE",
"1464 1252 CURVE SMOOTH",
"1615 1252 OFFCURVE",
"1705 1354 OFFCURVE",
"1705 1508 CURVE SMOOTH",
"1705 1730 OFFCURVE",
"1537 1850 OFFCURVE",
"1225 1850 CURVE SMOOTH",
"685 1850 LINE SMOOTH",
"368 1850 OFFCURVE",
"185 1677 OFFCURVE",
"185 1357 CURVE SMOOTH",
"185 1123 LINE",
"185 962 OFFCURVE",
"286 864 OFFCURVE",
"452 864 CURVE",
"1043 864 LINE SMOOTH",
"1199 864 OFFCURVE",
"1235 825 OFFCURVE",
"1235 657 CURVE SMOOTH",
"1235 493 LINE SMOOTH",
"1235 195 OFFCURVE",
"1164 123 OFFCURVE",
"925 123 CURVE SMOOTH",
"667 123 OFFCURVE",
"595 116 OFFCURVE",
"595 180 CURVE SMOOTH",
"595 225 OFFCURVE",
"657 254 OFFCURVE",
"657 381 CURVE SMOOTH",
"657 511 OFFCURVE",
"559 598 OFFCURVE",
"426 598 CURVE SMOOTH",
"275 598 OFFCURVE",
"185 496 OFFCURVE",
"185 342 CURVE SMOOTH",
"185 120 OFFCURVE",
"353 0 OFFCURVE",
"665 0 CURVE SMOOTH"
);
}
);
userData = {
assembly = "PUSHW[ ]	/* 1 value pushed */
0 
CALL[ ]	/* CallFunction */
SVTCA[0]	/* SetFreedomAndProjectionVectorToAxis */
PUSHW[ ]	/* 1 value pushed */
0 
RCVT[ ]	/* ReadCVT */
IF[ ]	/* If */
PUSHW[ ]	/* 1 value pushed */
45 
MDAP[1]	/* MoveDirectAbsPt */
ELSE[ ]	/* Else */
PUSHW[ ]	/* 2 values pushed */
45 7 
MIAP[0]	/* MoveIndirectAbsPt */
EIF[ ]	/* EndIf */
PUSHW[ ]	/* 1 value pushed */
0 
RCVT[ ]	/* ReadCVT */
IF[ ]	/* If */
PUSHW[ ]	/* 1 value pushed */
19 
MDAP[1]	/* MoveDirectAbsPt */
ELSE[ ]	/* Else */
PUSHW[ ]	/* 2 values pushed */
19 1 
MIAP[0]	/* MoveIndirectAbsPt */
EIF[ ]	/* EndIf */
PUSHW[ ]	/* 3 values pushed */
7 33 3 
CALL[ ]	/* CallFunction */
PUSHW[ ]	/* 1 value pushed */
45 
SRP0[ ]	/* SetRefPoint0 */
PUSHW[ ]	/* 1 value pushed */
2 
MDRP[11100]	/* MoveDirectRelPt */
NPUSHW[ ]	/* 5 values pushed */
217 2 233 2 2 
DELTAP1[ ]	/* DeltaExceptionP1 */
NPUSHW[ ]	/* 27 values pushed */
8 2 24 2 40 2 56 2 72 2 88 2 104 2 120 2 136 2 152 2 168 2 184 2 200 2 13 
DELTAP1[ ]	/* DeltaExceptionP1 */
PUSHW[ ]	/* 1 value pushed */
19 
SRP0[ ]	/* SetRefPoint0 */
PUSHW[ ]	/* 1 value pushed */
28 
MDRP[11100]	/* MoveDirectRelPt */
NPUSHW[ ]	/* 27 values pushed */
7 28 23 28 39 28 55 28 71 28 87 28 103 28 119 28 135 28 151 28 167 28 183 28 199 28 13 
DELTAP1[ ]	/* DeltaExceptionP1 */
NPUSHW[ ]	/* 5 values pushed */
214 28 230 28 2 
DELTAP1[ ]	/* DeltaExceptionP1 */
IUP[0]	/* InterpolateUntPts */
IUP[1]	/* InterpolateUntPts */";
};
width = 1890;
}
);
leftKerningGroup = uni041E;
note = S;
rightKerningGroup = uni041E;
unicode = 0053;
},
{
glyphname = Germandbls;
lastChange = "2021-12-17 23:42:19 +0000";
layers = (
{
anchors = (
{
name = bottom;
position = "{1079, 0}";
},
{
name = center;
position = "{597, 925}";
},
{
name = top;
position = "{1079, 1850}";
}
);
layerId = "E4BC606E-CD30-42C5-8BF2-1DD2ABB89119";
paths = (
{
closed = 1;
nodes = (
"1132 1020 LINE",
"1132 920 LINE",
"1190 920 LINE SMOOTH",
"1415 920 OFFCURVE",
"1490 845 OFFCURVE",
"1490 620 CURVE SMOOTH",
"1490 400 LINE SMOOTH",
"1490 174 OFFCURVE",
"1425 98 OFFCURVE",
"1230 100 CURVE SMOOTH",
"1150 101 LINE",
"1150 0 LINE",
"1580 0 LINE SMOOTH",
"1809 0 OFFCURVE",
"1940 140 OFFCURVE",
"1940 400 CURVE SMOOTH",
"1940 620 LINE SMOOTH",
"1940 880 OFFCURVE",
"1794 1020 OFFCURVE",
"1580 1020 CURVE SMOOTH"
);
},
{
closed = 1;
nodes = (
"1624 952 LINE",
"1839 1627 LINE SMOOTH",
"1884 1769 OFFCURVE",
"1899 1771 OFFCURVE",
"1967 1770 CURVE",
"1967 1850 LINE",
"100 1850 LINE",
"100 1771 LINE",
"338 1771 OFFCURVE",
"380 1709 OFFCURVE",
"380 1356 CURVE SMOOTH",
"380 494 LINE SMOOTH",
"380 141 OFFCURVE",
"338 79 OFFCURVE",
"100 79 CURVE",
"100 0 LINE",
"940 0 LINE",
"940 101 LINE",
"820 105 OFFCURVE",
"820 138 OFFCURVE",
"820 400 CURVE SMOOTH",
"820 1450 LINE SMOOTH",
"820 1750 OFFCURVE",
"840 1750 OFFCURVE",
"1060 1750 CURVE SMOOTH",
"1458 1750 OFFCURVE",
"1432 1732 OFFCURVE",
"1399 1627 CURVE SMOOTH",
"1184 952 LINE"
);
}
);
width = 2072;
}
);
unicode = 1E9E;
},
{
glyphname = T;
lastChange = "2021-12-17 23:42:19 +0000";
layers = (
{
anchors = (
{
name = bottom;
position = "{951, 0}";
},
{
name = center;
position = "{951, 925}";
},
{
name = top;
position = "{951, 1850}";
}
);
background = {
paths = (
{
closed = 0;
nodes = (
"431 1771 LINE",
"686 1771 OFFCURVE",
"731 1709 OFFCURVE",
"731 1357 CURVE SMOOTH",
"731 493 LINE SMOOTH",
"731 176 OFFCURVE",
"692 120 OFFCURVE",
"510 120 CURVE SMOOTH",
"307 120 OFFCURVE",
"179 264 OFFCURVE",
"140 570 CURVE",
"40 570 LINE"
);
}
);
};
layerId = "E4BC606E-CD30-42C5-8BF2-1DD2ABB89119";
paths = (
{
closed = 1;
nodes = (
"1471 0 LINE",
"1471 79 LINE",
"1216 79 OFFCURVE",
"1171 141 OFFCURVE",
"1171 493 CURVE SMOOTH",
"1171 1357 LINE SMOOTH",
"1171 1674 OFFCURVE",
"1205 1730 OFFCURVE",
"1362 1730 CURVE SMOOTH",
"1549 1730 OFFCURVE",
"1668 1586 OFFCURVE",
"1702 1280 CURVE",
"1802 1280 LINE",
"1852 1850 LINE",
"50 1850 LINE",
"100 1280 LINE",
"200 1280 LINE",
"234 1586 OFFCURVE",
"353 1730 OFFCURVE",
"540 1730 CURVE SMOOTH",
"697 1730 OFFCURVE",
"731 1674 OFFCURVE",
"731 1357 CURVE SMOOTH",
"731 493 LINE SMOOTH",
"731 141 OFFCURVE",
"686 79 OFFCURVE",
"431 79 CURVE",
"431 0 LINE"
);
}
);
userData = {
assembly = "PUSHW[ ]	/* 1 value pushed */
0 
CALL[ ]	/* CallFunction */
SVTCA[0]	/* SetFreedomAndProjectionVectorToAxis */
PUSHW[ ]	/* 1 value pushed */
0 
RCVT[ ]	/* ReadCVT */
IF[ ]	/* If */
PUSHW[ ]	/* 1 value pushed */
0 
MDAP[1]	/* MoveDirectAbsPt */
ELSE[ ]	/* Else */
PUSHW[ ]	/* 2 values pushed */
0 7 
MIAP[0]	/* MoveIndirectAbsPt */
EIF[ ]	/* EndIf */
PUSHW[ ]	/* 1 value pushed */
0 
RCVT[ ]	/* ReadCVT */
IF[ ]	/* If */
PUSHW[ ]	/* 1 value pushed */
6 
MDAP[1]	/* MoveDirectAbsPt */
ELSE[ ]	/* Else */
PUSHW[ ]	/* 2 values pushed */
6 7 
MIAP[0]	/* MoveIndirectAbsPt */
EIF[ ]	/* EndIf */
PUSHW[ ]	/* 1 value pushed */
0 
RCVT[ ]	/* ReadCVT */
IF[ ]	/* If */
PUSHW[ ]	/* 1 value pushed */
22 
MDAP[1]	/* MoveDirectAbsPt */
ELSE[ ]	/* Else */
PUSHW[ ]	/* 2 values pushed */
22 1 
MIAP[0]	/* MoveIndirectAbsPt */
EIF[ ]	/* EndIf */
PUSHW[ ]	/* 1 value pushed */
0 
RCVT[ ]	/* ReadCVT */
IF[ ]	/* If */
PUSHW[ ]	/* 1 value pushed */
29 
MDAP[1]	/* MoveDirectAbsPt */
ELSE[ ]	/* Else */
PUSHW[ ]	/* 2 values pushed */
29 1 
MIAP[0]	/* MoveIndirectAbsPt */
EIF[ ]	/* EndIf */
PUSHW[ ]	/* 1 value pushed */
6 
SRP0[ ]	/* SetRefPoint0 */
PUSHW[ ]	/* 1 value pushed */
16 
MDRP[11100]	/* MoveDirectRelPt */
NPUSHW[ ]	/* 5 values pushed */
217 16 233 16 2 
DELTAP1[ ]	/* DeltaExceptionP1 */
NPUSHW[ ]	/* 27 values pushed */
8 16 24 16 40 16 56 16 72 16 88 16 104 16 120 16 136 16 152 16 168 16 184 16 200 16 13 
DELTAP1[ ]	/* DeltaExceptionP1 */
PUSHW[ ]	/* 1 value pushed */
22 
SRP0[ ]	/* SetRefPoint0 */
PUSHW[ ]	/* 1 value pushed */
21 
MDRP[11100]	/* MoveDirectRelPt */
PUSHW[ ]	/* 1 value pushed */
31 
MDRP[10000]	/* MoveDirectRelPt */
PUSHW[ ]	/* 1 value pushed */
16 
SRP0[ ]	/* SetRefPoint0 */
PUSHW[ ]	/* 1 value pushed */
36 
MDRP[10000]	/* MoveDirectRelPt */
SVTCA[1]	/* SetFreedomAndProjectionVectorToAxis */
PUSHW[ ]	/* 1 value pushed */
46 
MDAP[1]	/* MoveDirectAbsPt */
PUSHW[ ]	/* 1 value pushed */
9 
MDAP[1]	/* MoveDirectAbsPt */
PUSHW[ ]	/* 1 value pushed */
8 
MDRP[11100]	/* MoveDirectRelPt */
PUSHW[ ]	/* 1 value pushed */
46 
SRP0[ ]	/* SetRefPoint0 */
PUSHW[ ]	/* 1 value pushed */
44 
MDRP[10000]	/* MoveDirectRelPt */
PUSHW[ ]	/* 1 value pushed */
44 
MDAP[1]	/* MoveDirectAbsPt */
PUSHW[ ]	/* 3 values pushed */
22 44 8 
SRP1[ ]	/* SetRefPoint1 */
SRP2[ ]	/* SetRefPoint2 */
IP[ ]	/* InterpolatePts */
PUSHW[ ]	/* 3 values pushed */
30 44 8 
SRP1[ ]	/* SetRefPoint1 */
SRP2[ ]	/* SetRefPoint2 */
IP[ ]	/* InterpolatePts */
PUSHW[ ]	/* 1 value pushed */
43 
MDRP[11100]	/* MoveDirectRelPt */
PUSHW[ ]	/* 1 value pushed */
8 
SRP0[ ]	/* SetRefPoint0 */
PUSHW[ ]	/* 1 value pushed */
47 
MDRP[11100]	/* MoveDirectRelPt */
IUP[0]	/* InterpolateUntPts */
IUP[1]	/* InterpolateUntPts */";
};
width = 1902;
}
);
leftKerningGroup = uni0422;
note = T;
rightKerningGroup = T;
unicode = 0054;
},
{
glyphname = U;
lastChange = "2021-12-17 23:42:19 +0000";
layers = (
{
anchors = (
{
name = bottom;
position = "{1115, 0}";
},
{
name = ogonek;
position = "{2007, 10}";
},
{
name = top;
position = "{1105, 1850}";
},
{
name = topright;
position = "{2210, 1850}";
}
);
background = {
paths = (
{
closed = 1;
nodes = (
"981 0 LINE",
"981 80 LINE",
"763 80 OFFCURVE",
"731 136 OFFCURVE",
"731 408 CURVE SMOOTH",
"731 1516 LINE SMOOTH",
"731 1706 OFFCURVE",
"769 1740 OFFCURVE",
"1071 1740 CURVE SMOOTH",
"1340 1740 OFFCURVE",
"1411 1719 OFFCURVE",
"1411 1450 CURVE SMOOTH",
"1411 430 LINE SMOOTH",
"1411 65 OFFCURVE",
"1464 0 OFFCURVE",
"1761 0 CURVE SMOOTH",
"2061 0 LINE",
"2061 80 LINE",
"1914 80 OFFCURVE",
"1851 185 OFFCURVE",
"1851 430 CURVE SMOOTH",
"1851 1450 LINE SMOOTH",
"1851 1770 OFFCURVE",
"1741 1850 OFFCURVE",
"1401 1850 CURVE SMOOTH",
"11 1849 LINE",
"11 1770 LINE",
"246 1770 OFFCURVE",
"291 1708 OFFCURVE",
"291 1356 CURVE SMOOTH",
"291 430 LINE SMOOTH",
"291 146 OFFCURVE",
"241 80 OFFCURVE",
"31 80 CURVE",
"31 0 LINE"
);
}
);
};
layerId = "E4BC606E-CD30-42C5-8BF2-1DD2ABB89119";
paths = (
{
closed = 1;
nodes = (
"2130 1 LINE",
"2130 80 LINE",
"1895 80 OFFCURVE",
"1850 142 OFFCURVE",
"1850 494 CURVE SMOOTH",
"1850 1420 LINE SMOOTH",
"1850 1704 OFFCURVE",
"1900 1770 OFFCURVE",
"2110 1770 CURVE",
"2110 1850 LINE",
"1210 1850 LINE",
"1210 1770 LINE",
"1376 1770 OFFCURVE",
"1400 1714 OFFCURVE",
"1400 1442 CURVE SMOOTH",
"1400 334 LINE SMOOTH",
"1400 144 OFFCURVE",
"1363 110 OFFCURVE",
"1070 110 CURVE SMOOTH",
"817 110 OFFCURVE",
"750 131 OFFCURVE",
"750 400 CURVE SMOOTH",
"750 1420 LINE SMOOTH",
"750 1704 OFFCURVE",
"794 1770 OFFCURVE",
"980 1770 CURVE",
"980 1850 LINE",
"80 1850 LINE",
"80 1770 LINE",
"227 1770 OFFCURVE",
"290 1665 OFFCURVE",
"290 1420 CURVE SMOOTH",
"290 400 LINE SMOOTH",
"290 80 OFFCURVE",
"400 0 OFFCURVE",
"740 0 CURVE SMOOTH"
);
}
);
userData = {
assembly = "PUSHW[ ]	/* 1 value pushed */
0 
CALL[ ]	/* CallFunction */
SVTCA[0]	/* SetFreedomAndProjectionVectorToAxis */
PUSHW[ ]	/* 1 value pushed */
0 
RCVT[ ]	/* ReadCVT */
IF[ ]	/* If */
PUSHW[ ]	/* 1 value pushed */
0 
MDAP[1]	/* MoveDirectAbsPt */
ELSE[ ]	/* Else */
PUSHW[ ]	/* 2 values pushed */
0 7 
MIAP[0]	/* MoveIndirectAbsPt */
EIF[ ]	/* EndIf */
PUSHW[ ]	/* 1 value pushed */
0 
RCVT[ ]	/* ReadCVT */
IF[ ]	/* If */
PUSHW[ ]	/* 1 value pushed */
16 
MDAP[1]	/* MoveDirectAbsPt */
ELSE[ ]	/* Else */
PUSHW[ ]	/* 2 values pushed */
16 7 
MIAP[0]	/* MoveIndirectAbsPt */
EIF[ ]	/* EndIf */
PUSHW[ ]	/* 1 value pushed */
0 
RCVT[ ]	/* ReadCVT */
IF[ ]	/* If */
PUSHW[ ]	/* 1 value pushed */
26 
MDAP[1]	/* MoveDirectAbsPt */
ELSE[ ]	/* Else */
PUSHW[ ]	/* 2 values pushed */
26 1 
MIAP[0]	/* MoveIndirectAbsPt */
EIF[ ]	/* EndIf */
PUSHW[ ]	/* 1 value pushed */
8 
MDRP[11100]	/* MoveDirectRelPt */
NPUSHW[ ]	/* 27 values pushed */
7 8 23 8 39 8 55 8 71 8 87 8 103 8 119 8 135 8 151 8 167 8 183 8 199 8 13 
DELTAP1[ ]	/* DeltaExceptionP1 */
NPUSHW[ ]	/* 5 values pushed */
214 8 230 8 2 
DELTAP1[ ]	/* DeltaExceptionP1 */
PUSHW[ ]	/* 1 value pushed */
16 
SRP0[ ]	/* SetRefPoint0 */
PUSHW[ ]	/* 1 value pushed */
18 
MDRP[11100]	/* MoveDirectRelPt */
PUSHW[ ]	/* 1 value pushed */
35 
MDRP[10000]	/* MoveDirectRelPt */
IUP[0]	/* InterpolateUntPts */
IUP[1]	/* InterpolateUntPts */";
};
width = 2230;
}
);
leftKerningGroup = uni0423;
note = U;
rightKerningGroup = uni0411;
unicode = 0055;
},
{
glyphname = V;
lastChange = "2021-12-17 23:42:19 +0000";
layers = (
{
layerId = "E4BC606E-CD30-42C5-8BF2-1DD2ABB89119";
paths = (
{
closed = 1;
nodes = (
"1341 0 LINE SMOOTH",
"1650 0 OFFCURVE",
"1791 148 OFFCURVE",
"1791 470 CURVE SMOOTH",
"1791 1420 LINE SMOOTH",
"1791 1665 OFFCURVE",
"1854 1770 OFFCURVE",
"2001 1770 CURVE",
"2001 1850 LINE",
"1701 1850 LINE SMOOTH",
"1386 1850 OFFCURVE",
"1341 1806 OFFCURVE",
"1341 1500 CURVE SMOOTH",
"1341 470 LINE SMOOTH",
"1341 178 OFFCURVE",
"1284 110 OFFCURVE",
"1040 110 CURVE SMOOTH",
"797 110 OFFCURVE",
"740 178 OFFCURVE",
"740 470 CURVE SMOOTH",
"740 1500 LINE SMOOTH",
"740 1806 OFFCURVE",
"695 1850 OFFCURVE",
"380 1850 CURVE SMOOTH",
"80 1850 LINE",
"80 1770 LINE",
"227 1770 OFFCURVE",
"290 1665 OFFCURVE",
"290 1420 CURVE SMOOTH",
"290 470 LINE SMOOTH",
"290 148 OFFCURVE",
"431 0 OFFCURVE",
"740 0 CURVE SMOOTH"
);
}
);
userData = {
assembly = "PUSHW[ ]	/* 1 value pushed */
0 
CALL[ ]	/* CallFunction */
SVTCA[0]	/* SetFreedomAndProjectionVectorToAxis */
PUSHW[ ]	/* 1 value pushed */
0 
RCVT[ ]	/* ReadCVT */
IF[ ]	/* If */
PUSHW[ ]	/* 1 value pushed */
0 
MDAP[1]	/* MoveDirectAbsPt */
ELSE[ ]	/* Else */
PUSHW[ ]	/* 2 values pushed */
0 7 
MIAP[0]	/* MoveIndirectAbsPt */
EIF[ ]	/* EndIf */
PUSHW[ ]	/* 1 value pushed */
0 
RCVT[ ]	/* ReadCVT */
IF[ ]	/* If */
PUSHW[ ]	/* 1 value pushed */
16 
MDAP[1]	/* MoveDirectAbsPt */
ELSE[ ]	/* Else */
PUSHW[ ]	/* 2 values pushed */
16 7 
MIAP[0]	/* MoveIndirectAbsPt */
EIF[ ]	/* EndIf */
PUSHW[ ]	/* 1 value pushed */
0 
RCVT[ ]	/* ReadCVT */
IF[ ]	/* If */
PUSHW[ ]	/* 1 value pushed */
26 
MDAP[1]	/* MoveDirectAbsPt */
ELSE[ ]	/* Else */
PUSHW[ ]	/* 2 values pushed */
26 1 
MIAP[0]	/* MoveIndirectAbsPt */
EIF[ ]	/* EndIf */
PUSHW[ ]	/* 1 value pushed */
8 
MDRP[11100]	/* MoveDirectRelPt */
NPUSHW[ ]	/* 27 values pushed */
7 8 23 8 39 8 55 8 71 8 87 8 103 8 119 8 135 8 151 8 167 8 183 8 199 8 13 
DELTAP1[ ]	/* DeltaExceptionP1 */
NPUSHW[ ]	/* 5 values pushed */
214 8 230 8 2 
DELTAP1[ ]	/* DeltaExceptionP1 */
PUSHW[ ]	/* 1 value pushed */
16 
SRP0[ ]	/* SetRefPoint0 */
PUSHW[ ]	/* 1 value pushed */
18 
MDRP[11100]	/* MoveDirectRelPt */
PUSHW[ ]	/* 1 value pushed */
35 
MDRP[10000]	/* MoveDirectRelPt */
IUP[0]	/* InterpolateUntPts */
IUP[1]	/* InterpolateUntPts */";
};
width = 2081;
}
);
leftKerningGroup = uni0423;
note = V;
rightKerningGroup = uni0411;
unicode = 0056;
},
{
glyphname = W;
lastChange = "2021-12-17 23:42:19 +0000";
layers = (
{
anchors = (
{
name = bottom;
position = "{1530, 0}";
},
{
name = top;
position = "{1530, 1850}";
}
);
background = {
paths = (
{
closed = 0;
nodes = (
"3010 1 LINE",
"3010 80 LINE",
"2775 80 OFFCURVE",
"2730 142 OFFCURVE",
"2730 494 CURVE SMOOTH",
"2730 1420 LINE SMOOTH",
"2730 1704 OFFCURVE",
"2779 1770 OFFCURVE",
"2990 1770 CURVE",
"2990 1850 LINE",
"2640 1850 LINE SMOOTH",
"2342 1850 OFFCURVE",
"2290 1785 OFFCURVE",
"2290 1420 CURVE SMOOTH",
"2290 334 LINE SMOOTH"
);
}
);
};
layerId = "E4BC606E-CD30-42C5-8BF2-1DD2ABB89119";
paths = (
{
closed = 1;
nodes = (
"1105 1850 LINE",
"1105 1770 LINE",
"1288 1770 OFFCURVE",
"1315 1722 OFFCURVE",
"1315 1450 CURVE SMOOTH",
"1315 65 LINE",
"1745 65 LINE",
"1745 1450 LINE SMOOTH",
"1745 1722 OFFCURVE",
"1772 1770 OFFCURVE",
"1955 1770 CURVE",
"1955 1850 LINE"
);
},
{
closed = 1;
nodes = (
"2620 0 OFFCURVE",
"2730 80 OFFCURVE",
"2730 400 CURVE SMOOTH",
"2730 1420 LINE SMOOTH",
"2730 1665 OFFCURVE",
"2793 1770 OFFCURVE",
"2940 1770 CURVE",
"2940 1850 LINE",
"2640 1850 LINE SMOOTH",
"2343 1850 OFFCURVE",
"2290 1785 OFFCURVE",
"2290 1420 CURVE SMOOTH",
"2290 400 LINE SMOOTH",
"2290 131 OFFCURVE",
"2216 110 OFFCURVE",
"1830 110 CURVE SMOOTH",
"1230 110 LINE SMOOTH",
"844 110 OFFCURVE",
"770 131 OFFCURVE",
"770 400 CURVE SMOOTH",
"770 1420 LINE SMOOTH",
"770 1785 OFFCURVE",
"717 1850 OFFCURVE",
"420 1850 CURVE SMOOTH",
"120 1850 LINE",
"120 1770 LINE",
"267 1770 OFFCURVE",
"330 1665 OFFCURVE",
"330 1420 CURVE SMOOTH",
"330 400 LINE SMOOTH",
"330 80 OFFCURVE",
"440 0 OFFCURVE",
"780 0 CURVE SMOOTH",
"2280 0 LINE SMOOTH"
);
}
);
userData = {
assembly = "PUSHW[ ]	/* 1 value pushed */
0 
CALL[ ]	/* CallFunction */
SVTCA[0]	/* SetFreedomAndProjectionVectorToAxis */
PUSHW[ ]	/* 1 value pushed */
0 
RCVT[ ]	/* ReadCVT */
IF[ ]	/* If */
PUSHW[ ]	/* 1 value pushed */
7 
MDAP[1]	/* MoveDirectAbsPt */
ELSE[ ]	/* Else */
PUSHW[ ]	/* 2 values pushed */
7 7 
MIAP[0]	/* MoveIndirectAbsPt */
EIF[ ]	/* EndIf */
PUSHW[ ]	/* 1 value pushed */
0 
RCVT[ ]	/* ReadCVT */
IF[ ]	/* If */
PUSHW[ ]	/* 1 value pushed */
14 
MDAP[1]	/* MoveDirectAbsPt */
ELSE[ ]	/* Else */
PUSHW[ ]	/* 2 values pushed */
14 7 
MIAP[0]	/* MoveIndirectAbsPt */
EIF[ ]	/* EndIf */
PUSHW[ ]	/* 1 value pushed */
0 
RCVT[ ]	/* ReadCVT */
IF[ ]	/* If */
PUSHW[ ]	/* 1 value pushed */
25 
MDAP[1]	/* MoveDirectAbsPt */
ELSE[ ]	/* Else */
PUSHW[ ]	/* 2 values pushed */
25 7 
MIAP[0]	/* MoveIndirectAbsPt */
EIF[ ]	/* EndIf */
PUSHW[ ]	/* 1 value pushed */
0 
RCVT[ ]	/* ReadCVT */
IF[ ]	/* If */
PUSHW[ ]	/* 1 value pushed */
32 
MDAP[1]	/* MoveDirectAbsPt */
ELSE[ ]	/* Else */
PUSHW[ ]	/* 2 values pushed */
32 7 
MIAP[0]	/* MoveIndirectAbsPt */
EIF[ ]	/* EndIf */
PUSHW[ ]	/* 1 value pushed */
0 
RCVT[ ]	/* ReadCVT */
IF[ ]	/* If */
PUSHW[ ]	/* 1 value pushed */
0 
MDAP[1]	/* MoveDirectAbsPt */
ELSE[ ]	/* Else */
PUSHW[ ]	/* 2 values pushed */
0 1 
MIAP[0]	/* MoveIndirectAbsPt */
EIF[ ]	/* EndIf */
PUSHW[ ]	/* 1 value pushed */
0 
RCVT[ ]	/* ReadCVT */
IF[ ]	/* If */
PUSHW[ ]	/* 1 value pushed */
40 
MDAP[1]	/* MoveDirectAbsPt */
ELSE[ ]	/* Else */
PUSHW[ ]	/* 2 values pushed */
40 1 
MIAP[0]	/* MoveIndirectAbsPt */
EIF[ ]	/* EndIf */
PUSHW[ ]	/* 1 value pushed */
0 
RCVT[ ]	/* ReadCVT */
IF[ ]	/* If */
PUSHW[ ]	/* 1 value pushed */
47 
MDAP[1]	/* MoveDirectAbsPt */
ELSE[ ]	/* Else */
PUSHW[ ]	/* 2 values pushed */
47 1 
MIAP[0]	/* MoveIndirectAbsPt */
EIF[ ]	/* EndIf */
PUSHW[ ]	/* 1 value pushed */
0 
RCVT[ ]	/* ReadCVT */
IF[ ]	/* If */
PUSHW[ ]	/* 1 value pushed */
56 
MDAP[1]	/* MoveDirectAbsPt */
ELSE[ ]	/* Else */
PUSHW[ ]	/* 2 values pushed */
56 1 
MIAP[0]	/* MoveIndirectAbsPt */
EIF[ ]	/* EndIf */
PUSHW[ ]	/* 1 value pushed */
0 
SRP0[ ]	/* SetRefPoint0 */
PUSHW[ ]	/* 1 value pushed */
1 
MDRP[11100]	/* MoveDirectRelPt */
PUSHW[ ]	/* 1 value pushed */
7 
SRP0[ ]	/* SetRefPoint0 */
PUSHW[ ]	/* 1 value pushed */
6 
MDRP[11100]	/* MoveDirectRelPt */
PUSHW[ ]	/* 1 value pushed */
16 
MDRP[10000]	/* MoveDirectRelPt */
PUSHW[ ]	/* 3 values pushed */
19 0 7 
SRP1[ ]	/* SetRefPoint1 */
SRP2[ ]	/* SetRefPoint2 */
IP[ ]	/* InterpolatePts */
PUSHW[ ]	/* 3 values pushed */
21 0 7 
SRP1[ ]	/* SetRefPoint1 */
SRP2[ ]	/* SetRefPoint2 */
IP[ ]	/* InterpolatePts */
PUSHW[ ]	/* 1 value pushed */
24 
MDRP[10000]	/* MoveDirectRelPt */
PUSHW[ ]	/* 1 value pushed */
34 
MDRP[10000]	/* MoveDirectRelPt */
PUSHW[ ]	/* 1 value pushed */
1 
SRP0[ ]	/* SetRefPoint0 */
PUSHW[ ]	/* 1 value pushed */
39 
MDRP[10000]	/* MoveDirectRelPt */
PUSHW[ ]	/* 1 value pushed */
49 
MDRP[10000]	/* MoveDirectRelPt */
PUSHW[ ]	/* 1 value pushed */
55 
MDRP[10000]	/* MoveDirectRelPt */
IUP[0]	/* InterpolateUntPts */
IUP[1]	/* InterpolateUntPts */";
};
width = 3060;
}
);
leftKerningGroup = uni0412;
note = W;
rightKerningGroup = uni042F;
unicode = 0057;
},
{
glyphname = X;
lastChange = "2021-12-17 23:44:01 +0000";
layers = (
{
layerId = "E4BC606E-CD30-42C5-8BF2-1DD2ABB89119";
paths = (
{
closed = 1;
nodes = (
"1290 900 LINE",
"1630 900 OFFCURVE",
"1740 1003 OFFCURVE",
"1740 1310 CURVE SMOOTH",
"1740 1751 OFFCURVE",
"1751 1770 OFFCURVE",
"1950 1770 CURVE",
"1950 1850 LINE",
"1650 1850 LINE SMOOTH",
"1385 1850 OFFCURVE",
"1292 1759 OFFCURVE",
"1291 1502 CURVE SMOOTH",
"1290 1310 LINE SMOOTH",
"1290 1004 OFFCURVE",
"1267 970 OFFCURVE",
"1010 970 CURVE SMOOTH",
"765 970 OFFCURVE",
"730 1004 OFFCURVE",
"730 1310 CURVE SMOOTH",
"729 1502 LINE SMOOTH",
"728 1759 OFFCURVE",
"635 1850 OFFCURVE",
"370 1850 CURVE SMOOTH",
"70 1850 LINE",
"70 1770 LINE",
"269 1770 OFFCURVE",
"280 1751 OFFCURVE",
"280 1310 CURVE SMOOTH",
"280 1003 OFFCURVE",
"401 900 OFFCURVE",
"730 900 CURVE"
);
},
{
closed = 1;
nodes = (
"370 0 LINE SMOOTH",
"635 0 OFFCURVE",
"728 91 OFFCURVE",
"729 348 CURVE SMOOTH",
"730 540 LINE SMOOTH",
"730 844 OFFCURVE",
"765 870 OFFCURVE",
"1010 870 CURVE SMOOTH",
"1267 870 OFFCURVE",
"1290 845 OFFCURVE",
"1290 540 CURVE SMOOTH",
"1291 348 LINE SMOOTH",
"1292 91 OFFCURVE",
"1385 0 OFFCURVE",
"1650 0 CURVE SMOOTH",
"1950 0 LINE",
"1950 80 LINE",
"1751 80 OFFCURVE",
"1740 104 OFFCURVE",
"1740 540 CURVE SMOOTH",
"1740 860 OFFCURVE",
"1630 940 OFFCURVE",
"1290 940 CURVE",
"730 940 LINE",
"401 940 OFFCURVE",
"280 860 OFFCURVE",
"280 540 CURVE SMOOTH",
"280 104 OFFCURVE",
"269 80 OFFCURVE",
"70 80 CURVE",
"70 0 LINE"
);
}
);
userData = {
assembly = "PUSHW[ ]	/* 1 value pushed */
0 
CALL[ ]	/* CallFunction */
SVTCA[0]	/* SetFreedomAndProjectionVectorToAxis */
PUSHW[ ]	/* 1 value pushed */
0 
RCVT[ ]	/* ReadCVT */
IF[ ]	/* If */
PUSHW[ ]	/* 1 value pushed */
14 
MDAP[1]	/* MoveDirectAbsPt */
ELSE[ ]	/* Else */
PUSHW[ ]	/* 2 values pushed */
14 7 
MIAP[0]	/* MoveIndirectAbsPt */
EIF[ ]	/* EndIf */
PUSHW[ ]	/* 1 value pushed */
0 
RCVT[ ]	/* ReadCVT */
IF[ ]	/* If */
PUSHW[ ]	/* 1 value pushed */
31 
MDAP[1]	/* MoveDirectAbsPt */
ELSE[ ]	/* Else */
PUSHW[ ]	/* 2 values pushed */
31 7 
MIAP[0]	/* MoveIndirectAbsPt */
EIF[ ]	/* EndIf */
PUSHW[ ]	/* 1 value pushed */
0 
RCVT[ ]	/* ReadCVT */
IF[ ]	/* If */
PUSHW[ ]	/* 1 value pushed */
0 
MDAP[1]	/* MoveDirectAbsPt */
ELSE[ ]	/* Else */
PUSHW[ ]	/* 2 values pushed */
0 1 
MIAP[0]	/* MoveIndirectAbsPt */
EIF[ ]	/* EndIf */
PUSHW[ ]	/* 1 value pushed */
0 
RCVT[ ]	/* ReadCVT */
IF[ ]	/* If */
PUSHW[ ]	/* 1 value pushed */
46 
MDAP[1]	/* MoveDirectAbsPt */
ELSE[ ]	/* Else */
PUSHW[ ]	/* 2 values pushed */
46 1 
MIAP[0]	/* MoveIndirectAbsPt */
EIF[ ]	/* EndIf */
PUSHW[ ]	/* 3 values pushed */
23 55 3 
CALL[ ]	/* CallFunction */
PUSHW[ ]	/* 1 value pushed */
0 
SRP0[ ]	/* SetRefPoint0 */
PUSHW[ ]	/* 1 value pushed */
1 
MDRP[11100]	/* MoveDirectRelPt */
PUSHW[ ]	/* 3 values pushed */
7 55 23 
SRP1[ ]	/* SetRefPoint1 */
SRP2[ ]	/* SetRefPoint2 */
IP[ ]	/* InterpolatePts */
PUSHW[ ]	/* 1 value pushed */
14 
SRP0[ ]	/* SetRefPoint0 */
PUSHW[ ]	/* 1 value pushed */
13 
MDRP[11100]	/* MoveDirectRelPt */
PUSHW[ ]	/* 1 value pushed */
33 
MDRP[10000]	/* MoveDirectRelPt */
PUSHW[ ]	/* 3 values pushed */
39 55 23 
SRP1[ ]	/* SetRefPoint1 */
SRP2[ ]	/* SetRefPoint2 */
IP[ ]	/* InterpolatePts */
PUSHW[ ]	/* 1 value pushed */
1 
SRP0[ ]	/* SetRefPoint0 */
PUSHW[ ]	/* 1 value pushed */
45 
MDRP[10000]	/* MoveDirectRelPt */
IUP[0]	/* InterpolateUntPts */
IUP[1]	/* InterpolateUntPts */";
};
width = 2020;
}
);
leftKerningGroup = uni0412;
note = X;
rightKerningGroup = uni042F;
unicode = 0058;
},
{
glyphname = Y;
lastChange = "2021-12-17 23:42:19 +0000";
layers = (
{
anchors = (
{
name = bottom;
position = "{1083, 0}";
},
{
name = top;
position = "{1083, 1850}";
},
{
name = topleft;
position = "{40, 1850}";
}
);
layerId = "E4BC606E-CD30-42C5-8BF2-1DD2ABB89119";
paths = (
{
closed = 1;
nodes = (
"1678 -702 OFFCURVE",
"1880 -502 OFFCURVE",
"1880 -131 CURVE SMOOTH",
"1880 1420 LINE SMOOTH",
"1880 1704 OFFCURVE",
"1920 1770 OFFCURVE",
"2090 1770 CURVE",
"2090 1850 LINE",
"1240 1850 LINE",
"1240 1770 LINE",
"1406 1770 OFFCURVE",
"1430 1714 OFFCURVE",
"1430 1442 CURVE SMOOTH",
"1430 -231 LINE SMOOTH",
"1430 -509 OFFCURVE",
"1367 -578 OFFCURVE",
"1081 -578 CURVE SMOOTH",
"809 -578 OFFCURVE",
"741 -584 OFFCURVE",
"741 -520 CURVE SMOOTH",
"741 -477 OFFCURVE",
"803 -450 OFFCURVE",
"803 -329 CURVE SMOOTH",
"803 -205 OFFCURVE",
"705 -122 OFFCURVE",
"572 -122 CURVE SMOOTH",
"421 -122 OFFCURVE",
"331 -220 OFFCURVE",
"331 -368 CURVE SMOOTH",
"331 -584 OFFCURVE",
"499 -699 OFFCURVE",
"811 -700 CURVE SMOOTH",
"1330 -701 LINE SMOOTH"
);
},
{
closed = 1;
nodes = (
"1536 40 LINE",
"1536 173 LINE",
"1080 173 LINE",
"784 173 OFFCURVE",
"710 245 OFFCURVE",
"710 533 CURVE SMOOTH",
"710 1420 LINE SMOOTH",
"710 1704 OFFCURVE",
"754 1770 OFFCURVE",
"940 1770 CURVE",
"940 1850 LINE",
"100 1850 LINE",
"100 1770 LINE",
"212 1770 OFFCURVE",
"260 1665 OFFCURVE",
"260 1420 CURVE SMOOTH",
"260 533 LINE SMOOTH",
"260 213 OFFCURVE",
"442 40 OFFCURVE",
"760 40 CURVE SMOOTH"
);
}
);
userData = {
assembly = "PUSHW[ ]	/* 1 value pushed */
0 
CALL[ ]	/* CallFunction */
SVTCA[0]	/* SetFreedomAndProjectionVectorToAxis */
PUSHW[ ]	/* 1 value pushed */
0 
RCVT[ ]	/* ReadCVT */
IF[ ]	/* If */
PUSHW[ ]	/* 1 value pushed */
0 
MDAP[1]	/* MoveDirectAbsPt */
ELSE[ ]	/* Else */
PUSHW[ ]	/* 2 values pushed */
0 7 
MIAP[0]	/* MoveIndirectAbsPt */
EIF[ ]	/* EndIf */
PUSHW[ ]	/* 1 value pushed */
0 
RCVT[ ]	/* ReadCVT */
IF[ ]	/* If */
PUSHW[ ]	/* 1 value pushed */
13 
MDAP[1]	/* MoveDirectAbsPt */
ELSE[ ]	/* Else */
PUSHW[ ]	/* 2 values pushed */
13 7 
MIAP[0]	/* MoveIndirectAbsPt */
EIF[ ]	/* EndIf */
PUSHW[ ]	/* 1 value pushed */
0 
RCVT[ ]	/* ReadCVT */
IF[ ]	/* If */
PUSHW[ ]	/* 1 value pushed */
20 
MDAP[1]	/* MoveDirectAbsPt */
ELSE[ ]	/* Else */
PUSHW[ ]	/* 2 values pushed */
20 7 
MIAP[0]	/* MoveIndirectAbsPt */
EIF[ ]	/* EndIf */
PUSHW[ ]	/* 1 value pushed */
0 
RCVT[ ]	/* ReadCVT */
IF[ ]	/* If */
PUSHW[ ]	/* 1 value pushed */
30 
MDAP[1]	/* MoveDirectAbsPt */
ELSE[ ]	/* Else */
PUSHW[ ]	/* 2 values pushed */
30 1 
MIAP[0]	/* MoveIndirectAbsPt */
EIF[ ]	/* EndIf */
PUSHW[ ]	/* 3 values pushed */
9 42 3 
CALL[ ]	/* CallFunction */
PUSHW[ ]	/* 1 value pushed */
13 
SRP0[ ]	/* SetRefPoint0 */
PUSHW[ ]	/* 1 value pushed */
12 
MDRP[11100]	/* MoveDirectRelPt */
PUSHW[ ]	/* 1 value pushed */
22 
MDRP[10000]	/* MoveDirectRelPt */
PUSHW[ ]	/* 1 value pushed */
30 
SRP0[ ]	/* SetRefPoint0 */
PUSHW[ ]	/* 1 value pushed */
39 
MDRP[11100]	/* MoveDirectRelPt */
NPUSHW[ ]	/* 27 values pushed */
7 39 23 39 39 39 55 39 71 39 87 39 103 39 119 39 135 39 151 39 167 39 183 39 199 39 13 
DELTAP1[ ]	/* DeltaExceptionP1 */
NPUSHW[ ]	/* 5 values pushed */
214 39 230 39 2 
DELTAP1[ ]	/* DeltaExceptionP1 */
PUSHW[ ]	/* 1 value pushed */
22 
SRP0[ ]	/* SetRefPoint0 */
PUSHW[ ]	/* 1 value pushed */
51 
MDRP[10000]	/* MoveDirectRelPt */
IUP[0]	/* InterpolateUntPts */
IUP[1]	/* InterpolateUntPts */";
};
width = 2155;
}
);
leftKerningGroup = uni0423;
note = Y;
rightKerningGroup = uni0411;
unicode = 0059;
},
{
glyphname = Z;
lastChange = "2021-12-17 23:42:19 +0000";
layers = (
{
anchors = (
{
name = top;
position = "{990, 1850}";
}
);
layerId = "E4BC606E-CD30-42C5-8BF2-1DD2ABB89119";
paths = (
{
closed = 1;
nodes = (
"1730 0 LINE",
"1680 600 LINE",
"1594 600 LINE",
"1538 213 OFFCURVE",
"1348 123 OFFCURVE",
"1155 123 CURVE SMOOTH",
"945 123 LINE SMOOTH",
"725 123 OFFCURVE",
"725 123 OFFCURVE",
"725 333 CURVE SMOOTH",
"725 598 LINE SMOOTH",
"725 815 OFFCURVE",
"782 866 OFFCURVE",
"1027 865 CURVE SMOOTH",
"1278 864 LINE SMOOTH",
"1519 863 OFFCURVE",
"1665 1000 OFFCURVE",
"1665 1223 CURVE SMOOTH",
"1665 1457 LINE SMOOTH",
"1665 1723 OFFCURVE",
"1683 1771 OFFCURVE",
"1775 1771 CURVE",
"1775 1850 LINE",
"190 1850 LINE",
"240 1250 LINE",
"326 1250 LINE",
"426 1637 OFFCURVE",
"594 1727 OFFCURVE",
"765 1727 CURVE SMOOTH",
"975 1727 LINE SMOOTH",
"1195 1727 OFFCURVE",
"1195 1727 OFFCURVE",
"1195 1517 CURVE SMOOTH",
"1195 1251 LINE SMOOTH",
"1195 1034 OFFCURVE",
"1138 983 OFFCURVE",
"893 984 CURVE SMOOTH",
"642 985 LINE SMOOTH",
"401 986 OFFCURVE",
"255 849 OFFCURVE",
"255 626 CURVE SMOOTH",
"255 393 LINE SMOOTH",
"255 127 OFFCURVE",
"237 79 OFFCURVE",
"145 79 CURVE",
"145 0 LINE"
);
}
);
userData = {
assembly = "PUSHW[ ]	/* 1 value pushed */
0 
CALL[ ]	/* CallFunction */
SVTCA[0]	/* SetFreedomAndProjectionVectorToAxis */
PUSHW[ ]	/* 1 value pushed */
0 
RCVT[ ]	/* ReadCVT */
IF[ ]	/* If */
PUSHW[ ]	/* 1 value pushed */
22 
MDAP[1]	/* MoveDirectAbsPt */
ELSE[ ]	/* Else */
PUSHW[ ]	/* 2 values pushed */
22 7 
MIAP[0]	/* MoveIndirectAbsPt */
EIF[ ]	/* EndIf */
PUSHW[ ]	/* 1 value pushed */
0 
RCVT[ ]	/* ReadCVT */
IF[ ]	/* If */
PUSHW[ ]	/* 1 value pushed */
10 
MDAP[1]	/* MoveDirectAbsPt */
ELSE[ ]	/* Else */
PUSHW[ ]	/* 2 values pushed */
10 1 
MIAP[0]	/* MoveIndirectAbsPt */
EIF[ ]	/* EndIf */
PUSHW[ ]	/* 1 value pushed */
0 
MDRP[11100]	/* MoveDirectRelPt */
PUSHW[ ]	/* 1 value pushed */
22 
SRP0[ ]	/* SetRefPoint0 */
PUSHW[ ]	/* 1 value pushed */
12 
MDRP[11100]	/* MoveDirectRelPt */
SVTCA[1]	/* SetFreedomAndProjectionVectorToAxis */
PUSHW[ ]	/* 1 value pushed */
24 
MDAP[1]	/* MoveDirectAbsPt */
PUSHW[ ]	/* 1 value pushed */
8 
MDAP[1]	/* MoveDirectAbsPt */
PUSHW[ ]	/* 1 value pushed */
24 
SRP0[ ]	/* SetRefPoint0 */
PUSHW[ ]	/* 1 value pushed */
21 
MDRP[10000]	/* MoveDirectRelPt */
PUSHW[ ]	/* 1 value pushed */
21 
MDAP[1]	/* MoveDirectAbsPt */
PUSHW[ ]	/* 1 value pushed */
8 
SRP0[ ]	/* SetRefPoint0 */
PUSHW[ ]	/* 1 value pushed */
9 
MDRP[11100]	/* MoveDirectRelPt */
PUSHW[ ]	/* 3 values pushed */
0 21 9 
SRP1[ ]	/* SetRefPoint1 */
SRP2[ ]	/* SetRefPoint2 */
IP[ ]	/* InterpolatePts */
PUSHW[ ]	/* 3 values pushed */
12 21 9 
SRP1[ ]	/* SetRefPoint1 */
SRP2[ ]	/* SetRefPoint2 */
IP[ ]	/* InterpolatePts */
PUSHW[ ]	/* 1 value pushed */
21 
SRP0[ ]	/* SetRefPoint0 */
PUSHW[ ]	/* 1 value pushed */
20 
MDRP[11100]	/* MoveDirectRelPt */
PUSHW[ ]	/* 1 value pushed */
9 
SRP0[ ]	/* SetRefPoint0 */
PUSHW[ ]	/* 1 value pushed */
25 
MDRP[11100]	/* MoveDirectRelPt */
IUP[0]	/* InterpolateUntPts */
IUP[1]	/* InterpolateUntPts */";
};
width = 1920;
}
);
leftKerningGroup = uni0412;
note = Z;
rightKerningGroup = uni0421;
unicode = 005A;
},
{
glyphname = a;
lastChange = "2021-12-17 23:42:19 +0000";
layers = (
{
anchors = (
{
name = bottom;
position = "{883, 0}";
},
{
name = ogonek;
position = "{1617, 10}";
},
{
name = top;
position = "{883, 1500}";
}
);
background = {
paths = (
{
closed = 1;
nodes = (
"1723 0 LINE",
"1723 80 LINE",
"1529 80 OFFCURVE",
"1523 112 OFFCURVE",
"1523 400 CURVE SMOOTH",
"1523 1100 LINE SMOOTH",
"1523 1388 OFFCURVE",
"1529 1420 OFFCURVE",
"1723 1420 CURVE",
"1723 1500 LINE",
"553 1500 LINE SMOOTH",
"290 1500 OFFCURVE",
"143 1360 OFFCURVE",
"143 1100 CURVE SMOOTH",
"143 400 LINE SMOOTH",
"143 140 OFFCURVE",
"293 0 OFFCURVE",
"553 0 CURVE SMOOTH"
);
},
{
closed = 1;
nodes = (
"611 100 OFFCURVE",
"553 160 OFFCURVE",
"553 400 CURVE SMOOTH",
"553 1100 LINE SMOOTH",
"553 1340 OFFCURVE",
"618 1400 OFFCURVE",
"823 1400 CURVE SMOOTH",
"1103 1400 OFFCURVE",
"1123 1400 OFFCURVE",
"1123 1130 CURVE SMOOTH",
"1123 370 LINE SMOOTH",
"1123 100 OFFCURVE",
"1123 100 OFFCURVE",
"843 100 CURVE SMOOTH"
);
}
);
};
layerId = "E4BC606E-CD30-42C5-8BF2-1DD2ABB89119";
paths = (
{
closed = 1;
nodes = (
"1723 0 LINE",
"1723 80 LINE",
"1529 80 OFFCURVE",
"1523 102 OFFCURVE",
"1523 300 CURVE SMOOTH",
"1523 1100 LINE SMOOTH",
"1523 1360 OFFCURVE",
"1373 1500 OFFCURVE",
"1113 1500 CURVE SMOOTH",
"694 1500 LINE SMOOTH",
"375 1500 OFFCURVE",
"204 1380 OFFCURVE",
"204 1158 CURVE SMOOTH",
"204 1034 OFFCURVE",
"290 952 OFFCURVE",
"420 952 CURVE SMOOTH",
"538 952 OFFCURVE",
"616 1031 OFFCURVE",
"616 1149 CURVE SMOOTH",
"616 1276 OFFCURVE",
"564 1305 OFFCURVE",
"564 1350 CURVE SMOOTH",
"564 1406 OFFCURVE",
"618 1400 OFFCURVE",
"869 1400 CURVE SMOOTH",
"1054 1400 OFFCURVE",
"1123 1340 OFFCURVE",
"1123 1100 CURVE SMOOTH",
"1123 771 LINE",
"590 771 LINE SMOOTH",
"319 771 OFFCURVE",
"196 671 OFFCURVE",
"196 450 CURVE SMOOTH",
"196 298 LINE SMOOTH",
"196 104 OFFCURVE",
"334 0 OFFCURVE",
"553 0 CURVE SMOOTH"
);
},
{
closed = 1;
nodes = (
"1123 300 LINE SMOOTH",
"1123 100 OFFCURVE",
"1123 100 OFFCURVE",
"843 100 CURVE SMOOTH",
"660 100 OFFCURVE",
"606 146 OFFCURVE",
"606 325 CURVE SMOOTH",
"606 440 LINE SMOOTH",
"606 599 OFFCURVE",
"701 671 OFFCURVE",
"913 671 CURVE SMOOTH",
"1123 671 LINE"
);
}
);
userData = {
assembly = "PUSHW[ ]	/* 1 value pushed */
0 
CALL[ ]	/* CallFunction */
SVTCA[0]	/* SetFreedomAndProjectionVectorToAxis */
PUSHW[ ]	/* 1 value pushed */
0 
RCVT[ ]	/* ReadCVT */
IF[ ]	/* If */
PUSHW[ ]	/* 1 value pushed */
5 
MDAP[1]	/* MoveDirectAbsPt */
ELSE[ ]	/* Else */
PUSHW[ ]	/* 2 values pushed */
5 5 
MIAP[0]	/* MoveIndirectAbsPt */
EIF[ ]	/* EndIf */
PUSHW[ ]	/* 1 value pushed */
0 
RCVT[ ]	/* ReadCVT */
IF[ ]	/* If */
PUSHW[ ]	/* 1 value pushed */
15 
MDAP[1]	/* MoveDirectAbsPt */
ELSE[ ]	/* Else */
PUSHW[ ]	/* 2 values pushed */
15 1 
MIAP[0]	/* MoveIndirectAbsPt */
EIF[ ]	/* EndIf */
PUSHW[ ]	/* 1 value pushed */
0 
RCVT[ ]	/* ReadCVT */
IF[ ]	/* If */
PUSHW[ ]	/* 1 value pushed */
22 
MDAP[1]	/* MoveDirectAbsPt */
ELSE[ ]	/* Else */
PUSHW[ ]	/* 2 values pushed */
22 1 
MIAP[0]	/* MoveIndirectAbsPt */
EIF[ ]	/* EndIf */
PUSHW[ ]	/* 3 values pushed */
47 48 3 
CALL[ ]	/* CallFunction */
PUSHW[ ]	/* 3 values pushed */
34 57 3 
CALL[ ]	/* CallFunction */
PUSHW[ ]	/* 1 value pushed */
15 
SRP0[ ]	/* SetRefPoint0 */
PUSHW[ ]	/* 1 value pushed */
14 
MDRP[11100]	/* MoveDirectRelPt */
PUSHW[ ]	/* 1 value pushed */
5 
SRP0[ ]	/* SetRefPoint0 */
PUSHW[ ]	/* 1 value pushed */
37 
MDRP[11100]	/* MoveDirectRelPt */
NPUSHW[ ]	/* 5 values pushed */
217 37 233 37 2 
DELTAP1[ ]	/* DeltaExceptionP1 */
NPUSHW[ ]	/* 27 values pushed */
8 37 24 37 40 37 56 37 72 37 88 37 104 37 120 37 136 37 152 37 168 37 184 37 200 37 13 
DELTAP1[ ]	/* DeltaExceptionP1 */
PUSHW[ ]	/* 1 value pushed */
14 
SRP0[ ]	/* SetRefPoint0 */
PUSHW[ ]	/* 1 value pushed */
54 
MDRP[10000]	/* MoveDirectRelPt */
IUP[0]	/* InterpolateUntPts */
IUP[1]	/* InterpolateUntPts */";
};
width = 1775;
}
);
leftKerningGroup = o;
note = a;
rightKerningGroup = uni0430;
unicode = 0061;
},
{
glyphname = "alpha-latin";
lastChange = "2021-12-17 23:42:19 +0000";
layers = (
{
anchors = (
{
name = bottom;
position = "{918, 0}";
},
{
name = ogonek;
position = "{1660, 10}";
},
{
name = top;
position = "{918, 1500}";
}
);
layerId = "E4BC606E-CD30-42C5-8BF2-1DD2ABB89119";
paths = (
{
closed = 1;
nodes = (
"1745 0 LINE",
"1745 80 LINE",
"1551 80 OFFCURVE",
"1545 112 OFFCURVE",
"1545 400 CURVE SMOOTH",
"1545 1100 LINE SMOOTH",
"1545 1388 OFFCURVE",
"1551 1420 OFFCURVE",
"1745 1420 CURVE",
"1745 1500 LINE",
"575 1500 LINE SMOOTH",
"312 1500 OFFCURVE",
"165 1360 OFFCURVE",
"165 1100 CURVE SMOOTH",
"165 400 LINE SMOOTH",
"165 140 OFFCURVE",
"315 0 OFFCURVE",
"575 0 CURVE SMOOTH"
);
},
{
closed = 1;
nodes = (
"633 100 OFFCURVE",
"575 160 OFFCURVE",
"575 400 CURVE SMOOTH",
"575 1100 LINE SMOOTH",
"575 1340 OFFCURVE",
"640 1400 OFFCURVE",
"845 1400 CURVE SMOOTH",
"1125 1400 OFFCURVE",
"1145 1400 OFFCURVE",
"1145 1130 CURVE SMOOTH",
"1145 370 LINE SMOOTH",
"1145 100 OFFCURVE",
"1145 100 OFFCURVE",
"865 100 CURVE SMOOTH"
);
}
);
userData = {
assembly = "PUSHW[ ]	/* 1 value pushed */
0 
CALL[ ]	/* CallFunction */
SVTCA[0]	/* SetFreedomAndProjectionVectorToAxis */
PUSHW[ ]	/* 1 value pushed */
0 
RCVT[ ]	/* ReadCVT */
IF[ ]	/* If */
PUSHW[ ]	/* 1 value pushed */
5 
MDAP[1]	/* MoveDirectAbsPt */
ELSE[ ]	/* Else */
PUSHW[ ]	/* 2 values pushed */
5 5 
MIAP[0]	/* MoveIndirectAbsPt */
EIF[ ]	/* EndIf */
PUSHW[ ]	/* 1 value pushed */
0 
RCVT[ ]	/* ReadCVT */
IF[ ]	/* If */
PUSHW[ ]	/* 1 value pushed */
15 
MDAP[1]	/* MoveDirectAbsPt */
ELSE[ ]	/* Else */
PUSHW[ ]	/* 2 values pushed */
15 1 
MIAP[0]	/* MoveIndirectAbsPt */
EIF[ ]	/* EndIf */
PUSHW[ ]	/* 1 value pushed */
0 
RCVT[ ]	/* ReadCVT */
IF[ ]	/* If */
PUSHW[ ]	/* 1 value pushed */
22 
MDAP[1]	/* MoveDirectAbsPt */
ELSE[ ]	/* Else */
PUSHW[ ]	/* 2 values pushed */
22 1 
MIAP[0]	/* MoveIndirectAbsPt */
EIF[ ]	/* EndIf */
PUSHW[ ]	/* 3 values pushed */
47 48 3 
CALL[ ]	/* CallFunction */
PUSHW[ ]	/* 3 values pushed */
34 57 3 
CALL[ ]	/* CallFunction */
PUSHW[ ]	/* 1 value pushed */
15 
SRP0[ ]	/* SetRefPoint0 */
PUSHW[ ]	/* 1 value pushed */
14 
MDRP[11100]	/* MoveDirectRelPt */
PUSHW[ ]	/* 1 value pushed */
5 
SRP0[ ]	/* SetRefPoint0 */
PUSHW[ ]	/* 1 value pushed */
37 
MDRP[11100]	/* MoveDirectRelPt */
NPUSHW[ ]	/* 5 values pushed */
217 37 233 37 2 
DELTAP1[ ]	/* DeltaExceptionP1 */
NPUSHW[ ]	/* 27 values pushed */
8 37 24 37 40 37 56 37 72 37 88 37 104 37 120 37 136 37 152 37 168 37 184 37 200 37 13 
DELTAP1[ ]	/* DeltaExceptionP1 */
PUSHW[ ]	/* 1 value pushed */
14 
SRP0[ ]	/* SetRefPoint0 */
PUSHW[ ]	/* 1 value pushed */
54 
MDRP[10000]	/* MoveDirectRelPt */
IUP[0]	/* InterpolateUntPts */
IUP[1]	/* InterpolateUntPts */";
};
width = 1845;
}
);
leftKerningGroup = o;
leftMetricsKey = o;
note = a;
rightKerningGroup = uni0430;
rightMetricsKey = u;
unicode = 0251;
},
{
glyphname = ae;
lastChange = "2021-12-17 23:42:19 +0000";
layers = (
{
anchors = (
{
name = bottom;
position = "{1248, 0}";
},
{
name = top;
position = "{1248, 1500}";
}
);
background = {
components = (
{
name = a;
transform = "{1, 0, 0, 1, -69, 0}";
}
);
};
layerId = "E4BC606E-CD30-42C5-8BF2-1DD2ABB89119";
paths = (
{
closed = 1;
nodes = (
"1848 0 LINE SMOOTH",
"2167 0 OFFCURVE",
"2338 120 OFFCURVE",
"2338 342 CURVE SMOOTH",
"2338 466 OFFCURVE",
"2252 548 OFFCURVE",
"2122 548 CURVE SMOOTH",
"2004 548 OFFCURVE",
"1926 469 OFFCURVE",
"1926 351 CURVE SMOOTH",
"1926 224 OFFCURVE",
"1978 195 OFFCURVE",
"1978 150 CURVE SMOOTH",
"1978 94 OFFCURVE",
"1924 100 OFFCURVE",
"1683 100 CURVE SMOOTH",
"1491 100 OFFCURVE",
"1439 160 OFFCURVE",
"1439 400 CURVE SMOOTH",
"1439 1100 LINE SMOOTH",
"1439 1340 OFFCURVE",
"1505 1400 OFFCURVE",
"1683 1400 CURVE SMOOTH",
"1850 1400 OFFCURVE",
"1926 1340 OFFCURVE",
"1926 1100 CURVE SMOOTH",
"1926 749 LINE",
"2336 749 LINE",
"2336 1100 LINE SMOOTH",
"2336 1360 OFFCURVE",
"2186 1500 OFFCURVE",
"1926 1500 CURVE SMOOTH",
"636 1500 LINE SMOOTH",
"317 1500 OFFCURVE",
"146 1380 OFFCURVE",
"146 1158 CURVE SMOOTH",
"146 1034 OFFCURVE",
"232 952 OFFCURVE",
"362 952 CURVE SMOOTH",
"480 952 OFFCURVE",
"558 1031 OFFCURVE",
"558 1149 CURVE SMOOTH",
"558 1276 OFFCURVE",
"506 1305 OFFCURVE",
"506 1350 CURVE SMOOTH",
"506 1406 OFFCURVE",
"560 1400 OFFCURVE",
"801 1400 CURVE SMOOTH",
"993 1400 OFFCURVE",
"1045 1340 OFFCURVE",
"1045 1100 CURVE SMOOTH",
"1045 751 LINE",
"512 751 LINE SMOOTH",
"262 751 OFFCURVE",
"148 658 OFFCURVE",
"148 453 CURVE SMOOTH",
"148 350 LINE SMOOTH",
"148 123 OFFCURVE",
"298 0 OFFCURVE",
"558 0 CURVE SMOOTH"
);
},
{
closed = 1;
nodes = (
"634 100 OFFCURVE",
"558 150 OFFCURVE",
"558 350 CURVE SMOOTH",
"558 411 LINE SMOOTH",
"558 576 OFFCURVE",
"645 651 OFFCURVE",
"835 651 CURVE SMOOTH",
"1045 651 LINE",
"1045 400 LINE SMOOTH",
"1045 160 OFFCURVE",
"979 100 OFFCURVE",
"801 100 CURVE SMOOTH"
);
},
{
closed = 1;
nodes = (
"2336 749 LINE",
"2336 849 LINE",
"1246 849 LINE",
"1246 749 LINE"
);
}
);
width = 2484;
},
{
anchors = (
{
name = bottom;
position = "{1248, 0}";
},
{
name = top;
position = "{1248, 1500}";
}
);
associatedMasterId = "E4BC606E-CD30-42C5-8BF2-1DD2ABB89119";
background = {
components = (
{
name = a;
transform = "{1, 0, 0, 1, -69, 0}";
}
);
};
layerId = "9AF9A451-7AB5-4459-8E89-69FFE7A9A425";
name = "13 Dec 21, 17:25";
paths = (
{
closed = 1;
nodes = (
"1848 0 LINE SMOOTH",
"2167 0 OFFCURVE",
"2338 120 OFFCURVE",
"2338 342 CURVE SMOOTH",
"2338 466 OFFCURVE",
"2252 548 OFFCURVE",
"2122 548 CURVE SMOOTH",
"2004 548 OFFCURVE",
"1926 469 OFFCURVE",
"1926 351 CURVE SMOOTH",
"1926 224 OFFCURVE",
"1978 195 OFFCURVE",
"1978 150 CURVE SMOOTH",
"1978 94 OFFCURVE",
"1924 100 OFFCURVE",
"1683 100 CURVE SMOOTH",
"1491 100 OFFCURVE",
"1439 160 OFFCURVE",
"1439 400 CURVE SMOOTH",
"1439 1100 LINE SMOOTH",
"1439 1340 OFFCURVE",
"1505 1400 OFFCURVE",
"1683 1400 CURVE SMOOTH",
"1850 1400 OFFCURVE",
"1926 1340 OFFCURVE",
"1926 1100 CURVE SMOOTH",
"1926 749 LINE",
"2336 749 LINE",
"2336 1100 LINE SMOOTH",
"2336 1360 OFFCURVE",
"2186 1500 OFFCURVE",
"1926 1500 CURVE SMOOTH",
"636 1500 LINE SMOOTH",
"317 1500 OFFCURVE",
"146 1380 OFFCURVE",
"146 1158 CURVE SMOOTH",
"146 1034 OFFCURVE",
"232 952 OFFCURVE",
"362 952 CURVE SMOOTH",
"480 952 OFFCURVE",
"558 1031 OFFCURVE",
"558 1149 CURVE SMOOTH",
"558 1276 OFFCURVE",
"506 1305 OFFCURVE",
"506 1350 CURVE SMOOTH",
"506 1406 OFFCURVE",
"560 1400 OFFCURVE",
"801 1400 CURVE SMOOTH",
"993 1400 OFFCURVE",
"1045 1340 OFFCURVE",
"1045 1100 CURVE SMOOTH",
"1045 751 LINE",
"342 751 LINE SMOOTH",
"209 751 OFFCURVE",
"148 689 OFFCURVE",
"148 553 CURVE SMOOTH",
"148 400 LINE SMOOTH",
"148 140 OFFCURVE",
"298 0 OFFCURVE",
"558 0 CURVE SMOOTH"
);
},
{
closed = 1;
nodes = (
"634 100 OFFCURVE",
"558 160 OFFCURVE",
"558 400 CURVE SMOOTH",
"558 511 LINE SMOOTH",
"558 607 OFFCURVE",
"604 651 OFFCURVE",
"705 651 CURVE SMOOTH",
"1045 651 LINE",
"1045 400 LINE SMOOTH",
"1045 160 OFFCURVE",
"979 100 OFFCURVE",
"801 100 CURVE SMOOTH"
);
},
{
closed = 1;
nodes = (
"2336 749 LINE",
"2336 849 LINE",
"1246 849 LINE",
"1246 749 LINE"
);
}
);
width = 2484;
}
);
leftKerningGroup = o;
leftMetricsKey = "=|e";
rightMetricsKey = e;
unicode = 00E6;
},
{
glyphname = b;
lastChange = "2021-12-17 23:42:19 +0000";
layers = (
{
background = {
components = (
{
name = H;
}
);
};
layerId = "E4BC606E-CD30-42C5-8BF2-1DD2ABB89119";
paths = (
{
closed = 1;
nodes = (
"1515 0 OFFCURVE",
"1665 140 OFFCURVE",
"1665 400 CURVE SMOOTH",
"1665 1100 LINE SMOOTH",
"1665 1360 OFFCURVE",
"1518 1500 OFFCURVE",
"1255 1500 CURVE SMOOTH",
"545 1500 LINE",
"545 1400 LINE",
"985 1400 LINE SMOOTH",
"1190 1400 OFFCURVE",
"1255 1340 OFFCURVE",
"1255 1100 CURVE SMOOTH",
"1255 400 LINE SMOOTH",
"1255 160 OFFCURVE",
"1197 100 OFFCURVE",
"965 100 CURVE SMOOTH",
"685 100 OFFCURVE",
"685 100 OFFCURVE",
"685 370 CURVE SMOOTH",
"685 1650 LINE SMOOTH",
"685 1863 OFFCURVE",
"766 1970 OFFCURVE",
"912 1970 CURVE",
"912 2050 LINE",
"742 2050 LINE SMOOTH",
"640 2050 OFFCURVE",
"548 2019 OFFCURVE",
"477 1947 CURVE",
"400 2019 OFFCURVE",
"306 2050 OFFCURVE",
"192 2050 CURVE SMOOTH",
"52 2050 LINE",
"52 1970 LINE",
"195 1970 OFFCURVE",
"275 1863 OFFCURVE",
"275 1650 CURVE SMOOTH",
"275 400 LINE SMOOTH",
"275 112 OFFCURVE",
"269 80 OFFCURVE",
"75 80 CURVE",
"75 0 LINE",
"1255 0 LINE SMOOTH"
);
}
);
userData = {
assembly = "PUSHW[ ]	/* 1 value pushed */
0 
CALL[ ]	/* CallFunction */
SVTCA[0]	/* SetFreedomAndProjectionVectorToAxis */
PUSHW[ ]	/* 1 value pushed */
0 
RCVT[ ]	/* ReadCVT */
IF[ ]	/* If */
PUSHW[ ]	/* 1 value pushed */
14 
MDAP[1]	/* MoveDirectAbsPt */
ELSE[ ]	/* Else */
PUSHW[ ]	/* 2 values pushed */
14 5 
MIAP[0]	/* MoveIndirectAbsPt */
EIF[ ]	/* EndIf */
PUSHW[ ]	/* 1 value pushed */
0 
RCVT[ ]	/* ReadCVT */
IF[ ]	/* If */
PUSHW[ ]	/* 1 value pushed */
0 
MDAP[1]	/* MoveDirectAbsPt */
ELSE[ ]	/* Else */
PUSHW[ ]	/* 2 values pushed */
0 1 
MIAP[0]	/* MoveIndirectAbsPt */
EIF[ ]	/* EndIf */
PUSHW[ ]	/* 1 value pushed */
0 
RCVT[ ]	/* ReadCVT */
IF[ ]	/* If */
PUSHW[ ]	/* 1 value pushed */
26 
MDAP[1]	/* MoveDirectAbsPt */
ELSE[ ]	/* Else */
PUSHW[ ]	/* 2 values pushed */
26 1 
MIAP[0]	/* MoveIndirectAbsPt */
EIF[ ]	/* EndIf */
PUSHW[ ]	/* 3 values pushed */
7 6 3 
CALL[ ]	/* CallFunction */
PUSHW[ ]	/* 1 value pushed */
0 
SRP0[ ]	/* SetRefPoint0 */
PUSHW[ ]	/* 1 value pushed */
1 
MDRP[11100]	/* MoveDirectRelPt */
PUSHW[ ]	/* 1 value pushed */
37 
MDRP[10000]	/* MoveDirectRelPt */
PUSHW[ ]	/* 1 value pushed */
14 
SRP0[ ]	/* SetRefPoint0 */
PUSHW[ ]	/* 1 value pushed */
42 
MDRP[11100]	/* MoveDirectRelPt */
NPUSHW[ ]	/* 5 values pushed */
217 42 233 42 2 
DELTAP1[ ]	/* DeltaExceptionP1 */
NPUSHW[ ]	/* 27 values pushed */
8 42 24 42 40 42 56 42 72 42 88 42 104 42 120 42 136 42 152 42 168 42 184 42 200 42 13 
DELTAP1[ ]	/* DeltaExceptionP1 */
IUP[0]	/* InterpolateUntPts */
IUP[1]	/* InterpolateUntPts */";
};
width = 1830;
},
{
associatedMasterId = "E4BC606E-CD30-42C5-8BF2-1DD2ABB89119";
background = {
components = (
{
name = p;
transform = "{1, 0, 0, -1, 26, 1499}";
}
);
};
layerId = "61CA5A13-F8D0-457A-B979-6FC3CCBD7784";
name = "13 Dec 21, 17:14";
paths = (
{
closed = 1;
nodes = (
"1515 0 OFFCURVE",
"1665 140 OFFCURVE",
"1665 400 CURVE SMOOTH",
"1665 1100 LINE SMOOTH",
"1665 1360 OFFCURVE",
"1518 1500 OFFCURVE",
"1255 1500 CURVE SMOOTH",
"545 1500 LINE",
"545 1400 LINE",
"985 1400 LINE SMOOTH",
"1190 1400 OFFCURVE",
"1255 1340 OFFCURVE",
"1255 1100 CURVE SMOOTH",
"1255 400 LINE SMOOTH",
"1255 160 OFFCURVE",
"1197 100 OFFCURVE",
"965 100 CURVE SMOOTH",
"685 100 OFFCURVE",
"685 100 OFFCURVE",
"685 370 CURVE SMOOTH",
"685 1800 LINE SMOOTH",
"685 2013 OFFCURVE",
"766 2120 OFFCURVE",
"912 2120 CURVE",
"912 2200 LINE",
"742 2200 LINE SMOOTH",
"640 2200 OFFCURVE",
"548 2169 OFFCURVE",
"477 2097 CURVE",
"400 2169 OFFCURVE",
"306 2200 OFFCURVE",
"192 2200 CURVE SMOOTH",
"52 2200 LINE",
"52 2120 LINE",
"195 2120 OFFCURVE",
"275 2013 OFFCURVE",
"275 1800 CURVE SMOOTH",
"275 400 LINE SMOOTH",
"275 112 OFFCURVE",
"269 80 OFFCURVE",
"75 80 CURVE",
"75 0 LINE",
"1255 0 LINE SMOOTH"
);
}
);
userData = {
assembly = "PUSHW[ ]	/* 1 value pushed */
0 
CALL[ ]	/* CallFunction */
SVTCA[0]	/* SetFreedomAndProjectionVectorToAxis */
PUSHW[ ]	/* 1 value pushed */
0 
RCVT[ ]	/* ReadCVT */
IF[ ]	/* If */
PUSHW[ ]	/* 1 value pushed */
14 
MDAP[1]	/* MoveDirectAbsPt */
ELSE[ ]	/* Else */
PUSHW[ ]	/* 2 values pushed */
14 5 
MIAP[0]	/* MoveIndirectAbsPt */
EIF[ ]	/* EndIf */
PUSHW[ ]	/* 1 value pushed */
0 
RCVT[ ]	/* ReadCVT */
IF[ ]	/* If */
PUSHW[ ]	/* 1 value pushed */
0 
MDAP[1]	/* MoveDirectAbsPt */
ELSE[ ]	/* Else */
PUSHW[ ]	/* 2 values pushed */
0 1 
MIAP[0]	/* MoveIndirectAbsPt */
EIF[ ]	/* EndIf */
PUSHW[ ]	/* 1 value pushed */
0 
RCVT[ ]	/* ReadCVT */
IF[ ]	/* If */
PUSHW[ ]	/* 1 value pushed */
26 
MDAP[1]	/* MoveDirectAbsPt */
ELSE[ ]	/* Else */
PUSHW[ ]	/* 2 values pushed */
26 1 
MIAP[0]	/* MoveIndirectAbsPt */
EIF[ ]	/* EndIf */
PUSHW[ ]	/* 3 values pushed */
7 6 3 
CALL[ ]	/* CallFunction */
PUSHW[ ]	/* 1 value pushed */
0 
SRP0[ ]	/* SetRefPoint0 */
PUSHW[ ]	/* 1 value pushed */
1 
MDRP[11100]	/* MoveDirectRelPt */
PUSHW[ ]	/* 1 value pushed */
37 
MDRP[10000]	/* MoveDirectRelPt */
PUSHW[ ]	/* 1 value pushed */
14 
SRP0[ ]	/* SetRefPoint0 */
PUSHW[ ]	/* 1 value pushed */
42 
MDRP[11100]	/* MoveDirectRelPt */
NPUSHW[ ]	/* 5 values pushed */
217 42 233 42 2 
DELTAP1[ ]	/* DeltaExceptionP1 */
NPUSHW[ ]	/* 27 values pushed */
8 42 24 42 40 42 56 42 72 42 88 42 104 42 120 42 136 42 152 42 168 42 184 42 200 42 13 
DELTAP1[ ]	/* DeltaExceptionP1 */
IUP[0]	/* InterpolateUntPts */
IUP[1]	/* InterpolateUntPts */";
};
width = 1830;
}
);
leftKerningGroup = uni0412;
leftMetricsKey = h;
note = b;
rightKerningGroup = uni043E;
rightMetricsKey = o;
unicode = 0062;
},
{
glyphname = c;
lastChange = "2021-12-17 23:42:19 +0000";
layers = (
{
anchors = (
{
name = bottom;
position = "{815, 0}";
},
{
name = top;
position = "{805, 1500}";
}
);
layerId = "E4BC606E-CD30-42C5-8BF2-1DD2ABB89119";
paths = (
{
closed = 1;
nodes = (
"1316 0 OFFCURVE",
"1484 120 OFFCURVE",
"1484 342 CURVE SMOOTH",
"1484 478 OFFCURVE",
"1398 568 OFFCURVE",
"1268 568 CURVE SMOOTH",
"1132 568 OFFCURVE",
"1042 481 OFFCURVE",
"1042 351 CURVE SMOOTH",
"1042 224 OFFCURVE",
"1104 195 OFFCURVE",
"1104 150 CURVE SMOOTH",
"1104 94 OFFCURVE",
"1055 100 OFFCURVE",
"819 100 CURVE SMOOTH",
"643 100 OFFCURVE",
"575 160 OFFCURVE",
"575 400 CURVE SMOOTH",
"575 1100 LINE SMOOTH",
"575 1340 OFFCURVE",
"655 1400 OFFCURVE",
"819 1400 CURVE SMOOTH",
"1055 1400 OFFCURVE",
"1104 1406 OFFCURVE",
"1104 1350 CURVE SMOOTH",
"1104 1305 OFFCURVE",
"1042 1276 OFFCURVE",
"1042 1149 CURVE SMOOTH",
"1042 1019 OFFCURVE",
"1132 932 OFFCURVE",
"1268 932 CURVE SMOOTH",
"1398 932 OFFCURVE",
"1484 1022 OFFCURVE",
"1484 1158 CURVE SMOOTH",
"1484 1380 OFFCURVE",
"1316 1500 OFFCURVE",
"1004 1500 CURVE SMOOTH",
"575 1500 LINE SMOOTH",
"315 1500 OFFCURVE",
"165 1360 OFFCURVE",
"165 1100 CURVE SMOOTH",
"165 400 LINE SMOOTH",
"165 140 OFFCURVE",
"315 0 OFFCURVE",
"575 0 CURVE SMOOTH",
"1004 0 LINE SMOOTH"
);
}
);
userData = {
assembly = "PUSHW[ ]	/* 1 value pushed */
0 
CALL[ ]	/* CallFunction */
SVTCA[0]	/* SetFreedomAndProjectionVectorToAxis */
PUSHW[ ]	/* 1 value pushed */
0 
RCVT[ ]	/* ReadCVT */
IF[ ]	/* If */
PUSHW[ ]	/* 1 value pushed */
6 
MDAP[1]	/* MoveDirectAbsPt */
ELSE[ ]	/* Else */
PUSHW[ ]	/* 2 values pushed */
6 5 
MIAP[0]	/* MoveIndirectAbsPt */
EIF[ ]	/* EndIf */
PUSHW[ ]	/* 1 value pushed */
0 
RCVT[ ]	/* ReadCVT */
IF[ ]	/* If */
PUSHW[ ]	/* 1 value pushed */
28 
MDAP[1]	/* MoveDirectAbsPt */
ELSE[ ]	/* Else */
PUSHW[ ]	/* 2 values pushed */
28 1 
MIAP[0]	/* MoveIndirectAbsPt */
EIF[ ]	/* EndIf */
PUSHW[ ]	/* 1 value pushed */
6 
SRP0[ ]	/* SetRefPoint0 */
PUSHW[ ]	/* 1 value pushed */
15 
MDRP[11100]	/* MoveDirectRelPt */
NPUSHW[ ]	/* 5 values pushed */
217 15 233 15 2 
DELTAP1[ ]	/* DeltaExceptionP1 */
NPUSHW[ ]	/* 27 values pushed */
8 15 24 15 40 15 56 15 72 15 88 15 104 15 120 15 136 15 152 15 168 15 184 15 200 15 13 
DELTAP1[ ]	/* DeltaExceptionP1 */
PUSHW[ ]	/* 1 value pushed */
28 
SRP0[ ]	/* SetRefPoint0 */
PUSHW[ ]	/* 1 value pushed */
20 
MDRP[11100]	/* MoveDirectRelPt */
NPUSHW[ ]	/* 27 values pushed */
7 20 23 20 39 20 55 20 71 20 87 20 103 20 119 20 135 20 151 20 167 20 183 20 199 20 13 
DELTAP1[ ]	/* DeltaExceptionP1 */
NPUSHW[ ]	/* 5 values pushed */
214 20 230 20 2 
DELTAP1[ ]	/* DeltaExceptionP1 */
IUP[0]	/* InterpolateUntPts */
IUP[1]	/* InterpolateUntPts */";
};
width = 1589;
}
);
leftKerningGroup = o;
leftMetricsKey = o;
note = c;
rightKerningGroup = uni0441;
unicode = 0063;
},
{
glyphname = d;
lastChange = "2021-12-17 23:42:19 +0000";
layers = (
{
layerId = "E4BC606E-CD30-42C5-8BF2-1DD2ABB89119";
paths = (
{
closed = 1;
nodes = (
"1755 0 LINE",
"1755 80 LINE",
"1561 80 OFFCURVE",
"1555 112 OFFCURVE",
"1555 400 CURVE SMOOTH",
"1555 1650 LINE SMOOTH",
"1555 1863 OFFCURVE",
"1635 1970 OFFCURVE",
"1778 1970 CURVE",
"1778 2050 LINE",
"1638 2050 LINE SMOOTH",
"1524 2050 OFFCURVE",
"1430 2019 OFFCURVE",
"1353 1947 CURVE",
"1282 2019 OFFCURVE",
"1190 2050 OFFCURVE",
"1088 2050 CURVE SMOOTH",
"918 2050 LINE",
"918 1970 LINE",
"1064 1970 OFFCURVE",
"1145 1863 OFFCURVE",
"1145 1650 CURVE SMOOTH",
"1145 370 LINE SMOOTH",
"1145 100 OFFCURVE",
"1145 100 OFFCURVE",
"865 100 CURVE SMOOTH",
"633 100 OFFCURVE",
"575 160 OFFCURVE",
"575 400 CURVE SMOOTH",
"575 1100 LINE SMOOTH",
"575 1340 OFFCURVE",
"640 1400 OFFCURVE",
"845 1400 CURVE SMOOTH",
"1285 1400 LINE",
"1285 1500 LINE",
"575 1500 LINE SMOOTH",
"312 1500 OFFCURVE",
"165 1360 OFFCURVE",
"165 1100 CURVE SMOOTH",
"165 400 LINE SMOOTH",
"165 140 OFFCURVE",
"315 0 OFFCURVE",
"575 0 CURVE SMOOTH"
);
}
);
userData = {
assembly = "PUSHW[ ]	/* 1 value pushed */
0 
CALL[ ]	/* CallFunction */
SVTCA[0]	/* SetFreedomAndProjectionVectorToAxis */
PUSHW[ ]	/* 1 value pushed */
0 
RCVT[ ]	/* ReadCVT */
IF[ ]	/* If */
PUSHW[ ]	/* 1 value pushed */
5 
MDAP[1]	/* MoveDirectAbsPt */
ELSE[ ]	/* Else */
PUSHW[ ]	/* 2 values pushed */
5 5 
MIAP[0]	/* MoveIndirectAbsPt */
EIF[ ]	/* EndIf */
PUSHW[ ]	/* 1 value pushed */
0 
RCVT[ ]	/* ReadCVT */
IF[ ]	/* If */
PUSHW[ ]	/* 1 value pushed */
20 
MDAP[1]	/* MoveDirectAbsPt */
ELSE[ ]	/* Else */
PUSHW[ ]	/* 2 values pushed */
20 1 
MIAP[0]	/* MoveIndirectAbsPt */
EIF[ ]	/* EndIf */
PUSHW[ ]	/* 1 value pushed */
0 
RCVT[ ]	/* ReadCVT */
IF[ ]	/* If */
PUSHW[ ]	/* 1 value pushed */
27 
MDAP[1]	/* MoveDirectAbsPt */
ELSE[ ]	/* Else */
PUSHW[ ]	/* 2 values pushed */
27 1 
MIAP[0]	/* MoveIndirectAbsPt */
EIF[ ]	/* EndIf */
PUSHW[ ]	/* 3 values pushed */
10 9 3 
CALL[ ]	/* CallFunction */
PUSHW[ ]	/* 1 value pushed */
20 
SRP0[ ]	/* SetRefPoint0 */
PUSHW[ ]	/* 1 value pushed */
19 
MDRP[11100]	/* MoveDirectRelPt */
PUSHW[ ]	/* 1 value pushed */
34 
MDRP[10000]	/* MoveDirectRelPt */
PUSHW[ ]	/* 1 value pushed */
5 
SRP0[ ]	/* SetRefPoint0 */
PUSHW[ ]	/* 1 value pushed */
39 
MDRP[11100]	/* MoveDirectRelPt */
NPUSHW[ ]	/* 5 values pushed */
217 39 233 39 2 
DELTAP1[ ]	/* DeltaExceptionP1 */
NPUSHW[ ]	/* 27 values pushed */
8 39 24 39 40 39 56 39 72 39 88 39 104 39 120 39 136 39 152 39 168 39 184 39 200 39 13 
DELTAP1[ ]	/* DeltaExceptionP1 */
IUP[0]	/* InterpolateUntPts */
IUP[1]	/* InterpolateUntPts */";
};
width = 1830;
}
);
leftKerningGroup = o;
leftMetricsKey = o;
note = d;
rightKerningGroup = uni042F;
rightMetricsKey = "=|h";
unicode = 0064;
},
{
glyphname = eth;
lastChange = "2021-12-17 23:42:19 +0000";
layers = (
{
layerId = "E4BC606E-CD30-42C5-8BF2-1DD2ABB89119";
paths = (
{
closed = 1;
nodes = (
"1145 0 LINE SMOOTH",
"1405 0 OFFCURVE",
"1555 140 OFFCURVE",
"1555 400 CURVE SMOOTH",
"1555 1700 LINE SMOOTH",
"1555 1949 OFFCURVE",
"1452 2050 OFFCURVE",
"1145 2050 CURVE SMOOTH",
"776 2050 LINE",
"776 1970 LINE",
"855 1970 LINE",
"1053 1970 OFFCURVE",
"1145 1904 OFFCURVE",
"1145 1700 CURVE SMOOTH",
"1145 400 LINE SMOOTH",
"1145 160 OFFCURVE",
"1097 100 OFFCURVE",
"858 100 CURVE SMOOTH",
"633 100 OFFCURVE",
"575 160 OFFCURVE",
"575 400 CURVE SMOOTH",
"575 990 LINE SMOOTH",
"575 1230 OFFCURVE",
"640 1290 OFFCURVE",
"845 1290 CURVE SMOOTH",
"1285 1290 LINE",
"1285 1390 LINE",
"575 1390 LINE SMOOTH",
"312 1390 OFFCURVE",
"165 1250 OFFCURVE",
"165 990 CURVE SMOOTH",
"165 400 LINE SMOOTH",
"165 140 OFFCURVE",
"315 0 OFFCURVE",
"575 0 CURVE SMOOTH"
);
},
{
closed = 1;
nodes = (
"1698 1584 LINE",
"1698 1704 LINE",
"476 1704 LINE",
"476 1584 LINE"
);
}
);
width = 1740;
}
);
leftKerningGroup = o;
unicode = 00F0;
},
{
glyphname = dcaron;
lastChange = "2021-12-17 23:42:19 +0000";
layers = (
{
layerId = "E4BC606E-CD30-42C5-8BF2-1DD2ABB89119";
paths = (
{
closed = 1;
nodes = (
"1755 0 LINE",
"1755 80 LINE",
"1561 80 OFFCURVE",
"1555 112 OFFCURVE",
"1555 400 CURVE SMOOTH",
"1555 1650 LINE",
"1555 1949 OFFCURVE",
"1438 2050 OFFCURVE",
"1088 2050 CURVE SMOOTH",
"918 2050 LINE",
"918 1970 LINE",
"1064 1970 OFFCURVE",
"1145 1863 OFFCURVE",
"1145 1650 CURVE SMOOTH",
"1145 370 LINE SMOOTH",
"1145 100 OFFCURVE",
"1145 100 OFFCURVE",
"865 100 CURVE SMOOTH",
"633 100 OFFCURVE",
"575 160 OFFCURVE",
"575 400 CURVE SMOOTH",
"575 1100 LINE SMOOTH",
"575 1340 OFFCURVE",
"640 1400 OFFCURVE",
"845 1400 CURVE SMOOTH",
"1285 1400 LINE",
"1285 1500 LINE",
"575 1500 LINE SMOOTH",
"312 1500 OFFCURVE",
"165 1360 OFFCURVE",
"165 1100 CURVE SMOOTH",
"165 400 LINE SMOOTH",
"165 140 OFFCURVE",
"315 0 OFFCURVE",
"575 0 CURVE SMOOTH"
);
},
{
closed = 1;
nodes = (
"1914 1301 OFFCURVE",
"2108 1564 OFFCURVE",
"2108 1790 CURVE SMOOTH",
"2108 1948 OFFCURVE",
"2013 2060 OFFCURVE",
"1858 2060 CURVE SMOOTH",
"1738 2060 OFFCURVE",
"1622 1992 OFFCURVE",
"1622 1843 CURVE SMOOTH",
"1622 1637 OFFCURVE",
"1845 1675 OFFCURVE",
"1845 1484 CURVE SMOOTH",
"1845 1404 OFFCURVE",
"1806 1304 OFFCURVE",
"1711 1173 CURVE",
"1776 1128 LINE"
);
}
);
width = 2080;
}
);
leftKerningGroup = o;
unicode = 010F;
},
{
glyphname = dcroat;
lastChange = "2021-12-17 23:42:19 +0000";
layers = (
{
layerId = "E4BC606E-CD30-42C5-8BF2-1DD2ABB89119";
paths = (
{
closed = 1;
nodes = (
"1755 0 LINE",
"1755 80 LINE",
"1561 80 OFFCURVE",
"1555 112 OFFCURVE",
"1555 400 CURVE SMOOTH",
"1555 1650 LINE SMOOTH",
"1555 1863 OFFCURVE",
"1635 1970 OFFCURVE",
"1778 1970 CURVE",
"1778 2050 LINE",
"1638 2050 LINE SMOOTH",
"1524 2050 OFFCURVE",
"1430 2019 OFFCURVE",
"1353 1947 CURVE",
"1282 2019 OFFCURVE",
"1190 2050 OFFCURVE",
"1088 2050 CURVE SMOOTH",
"918 2050 LINE",
"918 1970 LINE",
"1064 1970 OFFCURVE",
"1145 1863 OFFCURVE",
"1145 1650 CURVE SMOOTH",
"1145 370 LINE SMOOTH",
"1145 100 OFFCURVE",
"1145 100 OFFCURVE",
"865 100 CURVE SMOOTH",
"633 100 OFFCURVE",
"575 160 OFFCURVE",
"575 400 CURVE SMOOTH",
"575 950 LINE SMOOTH",
"575 1190 OFFCURVE",
"640 1250 OFFCURVE",
"845 1250 CURVE SMOOTH",
"1285 1250 LINE",
"1285 1350 LINE",
"575 1350 LINE SMOOTH",
"312 1350 OFFCURVE",
"165 1210 OFFCURVE",
"165 950 CURVE SMOOTH",
"165 400 LINE SMOOTH",
"165 140 OFFCURVE",
"315 0 OFFCURVE",
"575 0 CURVE SMOOTH"
);
},
{
closed = 1;
nodes = (
"1768 1534 LINE",
"1768 1654 LINE",
"546 1654 LINE",
"546 1534 LINE"
);
}
);
width = 1830;
}
);
leftKerningGroup = o;
unicode = 0111;
},
{
glyphname = e;
lastChange = "2021-12-17 23:42:19 +0000";
layers = (
{
anchors = (
{
name = bottom;
position = "{820, 0}";
},
{
name = ogonek;
position = "{1154, 10}";
},
{
name = top;
position = "{831, 1500}";
}
);
layerId = "E4BC606E-CD30-42C5-8BF2-1DD2ABB89119";
paths = (
{
closed = 1;
nodes = (
"1004 0 LINE SMOOTH",
"1323 0 OFFCURVE",
"1494 120 OFFCURVE",
"1494 342 CURVE SMOOTH",
"1494 466 OFFCURVE",
"1408 548 OFFCURVE",
"1278 548 CURVE SMOOTH",
"1160 548 OFFCURVE",
"1082 469 OFFCURVE",
"1082 351 CURVE SMOOTH",
"1082 224 OFFCURVE",
"1134 195 OFFCURVE",
"1134 150 CURVE SMOOTH",
"1134 94 OFFCURVE",
"1080 100 OFFCURVE",
"829 100 CURVE SMOOTH",
"637 100 OFFCURVE",
"575 160 OFFCURVE",
"575 400 CURVE SMOOTH",
"575 1100 LINE SMOOTH",
"575 1340 OFFCURVE",
"651 1400 OFFCURVE",
"829 1400 CURVE SMOOTH",
"1006 1400 OFFCURVE",
"1082 1340 OFFCURVE",
"1082 1100 CURVE SMOOTH",
"1082 749 LINE",
"1492 749 LINE",
"1492 1100 LINE SMOOTH",
"1492 1360 OFFCURVE",
"1342 1500 OFFCURVE",
"1082 1500 CURVE SMOOTH",
"575 1500 LINE SMOOTH",
"315 1500 OFFCURVE",
"165 1360 OFFCURVE",
"165 1100 CURVE SMOOTH",
"165 400 LINE SMOOTH",
"165 140 OFFCURVE",
"315 0 OFFCURVE",
"575 0 CURVE SMOOTH"
);
},
{
closed = 1;
nodes = (
"1492 749 LINE",
"1492 849 LINE",
"382 849 LINE",
"382 749 LINE"
);
}
);
userData = {
assembly = "PUSHW[ ]	/* 1 value pushed */
0 
CALL[ ]	/* CallFunction */
SVTCA[0]	/* SetFreedomAndProjectionVectorToAxis */
PUSHW[ ]	/* 1 value pushed */
0 
RCVT[ ]	/* ReadCVT */
IF[ ]	/* If */
PUSHW[ ]	/* 1 value pushed */
6 
MDAP[1]	/* MoveDirectAbsPt */
ELSE[ ]	/* Else */
PUSHW[ ]	/* 2 values pushed */
6 5 
MIAP[0]	/* MoveIndirectAbsPt */
EIF[ ]	/* EndIf */
PUSHW[ ]	/* 1 value pushed */
0 
RCVT[ ]	/* ReadCVT */
IF[ ]	/* If */
PUSHW[ ]	/* 1 value pushed */
25 
MDAP[1]	/* MoveDirectAbsPt */
ELSE[ ]	/* Else */
PUSHW[ ]	/* 2 values pushed */
25 1 
MIAP[0]	/* MoveIndirectAbsPt */
EIF[ ]	/* EndIf */
PUSHW[ ]	/* 3 values pushed */
32 13 3 
CALL[ ]	/* CallFunction */
PUSHW[ ]	/* 1 value pushed */
25 
SRP0[ ]	/* SetRefPoint0 */
PUSHW[ ]	/* 1 value pushed */
17 
MDRP[11100]	/* MoveDirectRelPt */
NPUSHW[ ]	/* 27 values pushed */
7 17 23 17 39 17 55 17 71 17 87 17 103 17 119 17 135 17 151 17 167 17 183 17 199 17 13 
DELTAP1[ ]	/* DeltaExceptionP1 */
NPUSHW[ ]	/* 5 values pushed */
214 17 230 17 2 
DELTAP1[ ]	/* DeltaExceptionP1 */
PUSHW[ ]	/* 1 value pushed */
6 
SRP0[ ]	/* SetRefPoint0 */
PUSHW[ ]	/* 1 value pushed */
35 
MDRP[11100]	/* MoveDirectRelPt */
NPUSHW[ ]	/* 5 values pushed */
217 35 233 35 2 
DELTAP1[ ]	/* DeltaExceptionP1 */
NPUSHW[ ]	/* 27 values pushed */
8 35 24 35 40 35 56 35 72 35 88 35 104 35 120 35 136 35 152 35 168 35 184 35 200 35 13 
DELTAP1[ ]	/* DeltaExceptionP1 */
IUP[0]	/* InterpolateUntPts */
IUP[1]	/* InterpolateUntPts */";
};
width = 1640;
}
);
leftKerningGroup = o;
note = e;
rightKerningGroup = uni043E;
unicode = 0065;
},
{
glyphname = eogonek;
lastChange = "2021-12-17 23:42:19 +0000";
layers = (
{
anchors = (
{
name = bottom;
position = "{820, 0}";
},
{
name = ogonek;
position = "{1154, 10}";
},
{
name = top;
position = "{831, 1500}";
}
);
layerId = "E4BC606E-CD30-42C5-8BF2-1DD2ABB89119";
paths = (
{
closed = 1;
nodes = (
"766 0 LINE",
"766 -258 LINE SMOOTH",
"766 -533 OFFCURVE",
"916 -700 OFFCURVE",
"1177 -700 CURVE SMOOTH",
"1409 -700 OFFCURVE",
"1474 -567 OFFCURVE",
"1474 -444 CURVE SMOOTH",
"1474 -300 OFFCURVE",
"1384 -217 OFFCURVE",
"1254 -217 CURVE SMOOTH",
"1130 -217 OFFCURVE",
"1048 -296 OFFCURVE",
"1048 -414 CURVE SMOOTH",
"1048 -465 OFFCURVE",
"1034 -485 OFFCURVE",
"1000 -485 CURVE SMOOTH",
"915 -485 OFFCURVE",
"866 -394 OFFCURVE",
"866 -288 CURVE SMOOTH",
"866 -77 OFFCURVE",
"1016 -35 OFFCURVE",
"1169 8 CURVE SMOOTH",
"1329 53 OFFCURVE",
"1494 98 OFFCURVE",
"1494 342 CURVE SMOOTH",
"1494 466 OFFCURVE",
"1408 548 OFFCURVE",
"1278 548 CURVE SMOOTH",
"1160 548 OFFCURVE",
"1082 469 OFFCURVE",
"1082 351 CURVE SMOOTH",
"1082 224 OFFCURVE",
"1134 195 OFFCURVE",
"1134 150 CURVE SMOOTH",
"1134 94 OFFCURVE",
"1080 100 OFFCURVE",
"829 100 CURVE SMOOTH",
"637 100 OFFCURVE",
"575 160 OFFCURVE",
"575 400 CURVE SMOOTH",
"575 749 LINE",
"1492 749 LINE",
"1492 1100 LINE SMOOTH",
"1492 1360 OFFCURVE",
"1342 1500 OFFCURVE",
"1082 1500 CURVE SMOOTH",
"575 1500 LINE SMOOTH",
"315 1500 OFFCURVE",
"165 1360 OFFCURVE",
"165 1100 CURVE SMOOTH",
"165 400 LINE SMOOTH",
"165 140 OFFCURVE",
"315 0 OFFCURVE",
"575 0 CURVE SMOOTH"
);
},
{
closed = 1;
nodes = (
"575 1100 LINE SMOOTH",
"575 1340 OFFCURVE",
"651 1400 OFFCURVE",
"829 1400 CURVE SMOOTH",
"1006 1400 OFFCURVE",
"1082 1340 OFFCURVE",
"1082 1100 CURVE SMOOTH",
"1082 849 LINE",
"575 849 LINE"
);
}
);
width = 1640;
}
);
leftKerningGroup = o;
unicode = 0119;
},
{
glyphname = f;
lastChange = "2021-12-17 23:42:19 +0000";
layers = (
{
anchors = (
{
name = bottom;
position = "{947, 0}";
}
);
associatedMasterId = "E4BC606E-CD30-42C5-8BF2-1DD2ABB89119";
layerId = "FE89C0ED-E1C4-41EF-9122-DF6D56C788BD";
name = "12 Dec 21, 18:46";
paths = (
{
closed = 1;
nodes = (
"679 900 LINE SMOOTH",
"679 1180 OFFCURVE",
"704 1220 OFFCURVE",
"874 1220 CURVE",
"874 1300 LINE",
"84 1300 LINE",
"84 1220 LINE",
"254 1220 OFFCURVE",
"279 1180 OFFCURVE",
"279 900 CURVE SMOOTH",
"279 -300 LINE SMOOTH",
"279 -513 OFFCURVE",
"198 -620 OFFCURVE",
"52 -620 CURVE",
"52 -700 LINE",
"222 -700 LINE SMOOTH",
"326 -700 OFFCURVE",
"410 -669 OFFCURVE",
"482 -597 CURVE",
"558 -669 OFFCURVE",
"650 -700 OFFCURVE",
"762 -700 CURVE SMOOTH",
"902 -700 LINE",
"902 -620 LINE",
"759 -620 OFFCURVE",
"679 -513 OFFCURVE",
"679 -300 CURVE SMOOTH"
);
},
{
closed = 1;
nodes = (
"679 1800 LINE SMOOTH",
"679 2040 OFFCURVE",
"729 2100 OFFCURVE",
"833 2100 CURVE SMOOTH",
"891 2100 OFFCURVE",
"918 2084 OFFCURVE",
"918 2050 CURVE SMOOTH",
"918 2005 OFFCURVE",
"876 1976 OFFCURVE",
"876 1849 CURVE SMOOTH",
"876 1743 OFFCURVE",
"958 1672 OFFCURVE",
"1082 1672 CURVE SMOOTH",
"1206 1672 OFFCURVE",
"1288 1762 OFFCURVE",
"1288 1898 CURVE SMOOTH",
"1288 2094 OFFCURVE",
"1116 2200 OFFCURVE",
"798 2200 CURVE SMOOTH",
"442 2200 OFFCURVE",
"279 2060 OFFCURVE",
"279 1800 CURVE SMOOTH",
"279 1100 LINE",
"679 1100 LINE"
);
}
);
userData = {
assembly = "PUSHW[ ]	/* 1 value pushed */
0 
CALL[ ]	/* CallFunction */
SVTCA[0]	/* SetFreedomAndProjectionVectorToAxis */
PUSHW[ ]	/* 1 value pushed */
0 
RCVT[ ]	/* ReadCVT */
IF[ ]	/* If */
PUSHW[ ]	/* 1 value pushed */
27 
MDAP[1]	/* MoveDirectAbsPt */
ELSE[ ]	/* Else */
PUSHW[ ]	/* 2 values pushed */
27 1 
MIAP[0]	/* MoveIndirectAbsPt */
EIF[ ]	/* EndIf */
PUSHW[ ]	/* 1 value pushed */
0 
RCVT[ ]	/* ReadCVT */
IF[ ]	/* If */
PUSHW[ ]	/* 1 value pushed */
34 
MDAP[1]	/* MoveDirectAbsPt */
ELSE[ ]	/* Else */
PUSHW[ ]	/* 2 values pushed */
34 1 
MIAP[0]	/* MoveIndirectAbsPt */
EIF[ ]	/* EndIf */
PUSHW[ ]	/* 3 values pushed */
8 17 3 
CALL[ ]	/* CallFunction */
PUSHW[ ]	/* 3 values pushed */
1 0 3 
CALL[ ]	/* CallFunction */
PUSHW[ ]	/* 1 value pushed */
1 
SRP0[ ]	/* SetRefPoint0 */
PUSHW[ ]	/* 1 value pushed */
20 
MDRP[10000]	/* MoveDirectRelPt */
PUSHW[ ]	/* 1 value pushed */
0 
SRP0[ ]	/* SetRefPoint0 */
PUSHW[ ]	/* 1 value pushed */
22 
MDRP[10000]	/* MoveDirectRelPt */
PUSHW[ ]	/* 1 value pushed */
27 
SRP0[ ]	/* SetRefPoint0 */
PUSHW[ ]	/* 1 value pushed */
26 
MDRP[11100]	/* MoveDirectRelPt */
PUSHW[ ]	/* 1 value pushed */
36 
MDRP[10000]	/* MoveDirectRelPt */
IUP[0]	/* InterpolateUntPts */
IUP[1]	/* InterpolateUntPts */";
};
width = 954;
},
{
anchors = (
{
name = bottom;
position = "{947, 0}";
}
);
associatedMasterId = "E4BC606E-CD30-42C5-8BF2-1DD2ABB89119";
background = {
paths = (
{
closed = 1;
nodes = (
"679 900 LINE SMOOTH",
"679 1180 OFFCURVE",
"704 1220 OFFCURVE",
"874 1220 CURVE",
"874 1300 LINE",
"84 1300 LINE",
"84 1220 LINE",
"254 1220 OFFCURVE",
"279 1180 OFFCURVE",
"279 900 CURVE SMOOTH",
"279 -300 LINE SMOOTH",
"279 -513 OFFCURVE",
"198 -620 OFFCURVE",
"52 -620 CURVE",
"52 -700 LINE",
"222 -700 LINE SMOOTH",
"326 -700 OFFCURVE",
"410 -669 OFFCURVE",
"482 -597 CURVE",
"558 -669 OFFCURVE",
"650 -700 OFFCURVE",
"762 -700 CURVE SMOOTH",
"902 -700 LINE",
"902 -620 LINE",
"759 -620 OFFCURVE",
"679 -513 OFFCURVE",
"679 -300 CURVE SMOOTH"
);
},
{
closed = 1;
nodes = (
"679 1800 LINE SMOOTH",
"679 2040 OFFCURVE",
"729 2100 OFFCURVE",
"833 2100 CURVE SMOOTH",
"891 2100 OFFCURVE",
"918 2084 OFFCURVE",
"918 2050 CURVE SMOOTH",
"918 2005 OFFCURVE",
"876 1976 OFFCURVE",
"876 1849 CURVE SMOOTH",
"876 1743 OFFCURVE",
"958 1672 OFFCURVE",
"1082 1672 CURVE SMOOTH",
"1206 1672 OFFCURVE",
"1288 1762 OFFCURVE",
"1288 1898 CURVE SMOOTH",
"1288 2094 OFFCURVE",
"1116 2200 OFFCURVE",
"798 2200 CURVE SMOOTH",
"442 2200 OFFCURVE",
"279 2060 OFFCURVE",
"279 1800 CURVE SMOOTH",
"279 1100 LINE",
"679 1100 LINE"
);
}
);
};
layerId = "805CAA9D-CC7E-4B10-80CD-D134FF558EDD";
name = "12 Dec 21, 18:57";
paths = (
{
closed = 1;
nodes = (
"874 0 LINE",
"874 80 LINE",
"704 80 OFFCURVE",
"679 120 OFFCURVE",
"679 400 CURVE SMOOTH",
"679 1100 LINE SMOOTH",
"679 1380 OFFCURVE",
"713 1420 OFFCURVE",
"944 1420 CURVE",
"944 1500 LINE",
"84 1500 LINE",
"84 1420 LINE",
"254 1420 OFFCURVE",
"279 1380 OFFCURVE",
"279 1100 CURVE SMOOTH",
"279 400 LINE SMOOTH",
"279 120 OFFCURVE",
"254 80 OFFCURVE",
"84 80 CURVE",
"84 0 LINE"
);
},
{
closed = 1;
nodes = (
"679 1300 LINE",
"749 1500 LINE",
"515 1504 OFFCURVE",
"379 1599 OFFCURVE",
"379 1788 CURVE SMOOTH",
"379 1894 OFFCURVE",
"428 1985 OFFCURVE",
"513 1985 CURVE SMOOTH",
"547 1985 OFFCURVE",
"561 1965 OFFCURVE",
"561 1914 CURVE SMOOTH",
"561 1796 OFFCURVE",
"643 1717 OFFCURVE",
"767 1717 CURVE SMOOTH",
"897 1717 OFFCURVE",
"987 1800 OFFCURVE",
"987 1944 CURVE SMOOTH",
"987 2067 OFFCURVE",
"922 2200 OFFCURVE",
"690 2200 CURVE SMOOTH",
"429 2200 OFFCURVE",
"279 2033 OFFCURVE",
"279 1758 CURVE SMOOTH",
"279 1300 LINE"
);
}
);
userData = {
assembly = "PUSHW[ ]	/* 1 value pushed */
0 
CALL[ ]	/* CallFunction */
SVTCA[0]	/* SetFreedomAndProjectionVectorToAxis */
PUSHW[ ]	/* 1 value pushed */
0 
RCVT[ ]	/* ReadCVT */
IF[ ]	/* If */
PUSHW[ ]	/* 1 value pushed */
27 
MDAP[1]	/* MoveDirectAbsPt */
ELSE[ ]	/* Else */
PUSHW[ ]	/* 2 values pushed */
27 1 
MIAP[0]	/* MoveIndirectAbsPt */
EIF[ ]	/* EndIf */
PUSHW[ ]	/* 1 value pushed */
0 
RCVT[ ]	/* ReadCVT */
IF[ ]	/* If */
PUSHW[ ]	/* 1 value pushed */
34 
MDAP[1]	/* MoveDirectAbsPt */
ELSE[ ]	/* Else */
PUSHW[ ]	/* 2 values pushed */
34 1 
MIAP[0]	/* MoveIndirectAbsPt */
EIF[ ]	/* EndIf */
PUSHW[ ]	/* 3 values pushed */
8 17 3 
CALL[ ]	/* CallFunction */
PUSHW[ ]	/* 3 values pushed */
1 0 3 
CALL[ ]	/* CallFunction */
PUSHW[ ]	/* 1 value pushed */
1 
SRP0[ ]	/* SetRefPoint0 */
PUSHW[ ]	/* 1 value pushed */
20 
MDRP[10000]	/* MoveDirectRelPt */
PUSHW[ ]	/* 1 value pushed */
0 
SRP0[ ]	/* SetRefPoint0 */
PUSHW[ ]	/* 1 value pushed */
22 
MDRP[10000]	/* MoveDirectRelPt */
PUSHW[ ]	/* 1 value pushed */
27 
SRP0[ ]	/* SetRefPoint0 */
PUSHW[ ]	/* 1 value pushed */
26 
MDRP[11100]	/* MoveDirectRelPt */
PUSHW[ ]	/* 1 value pushed */
36 
MDRP[10000]	/* MoveDirectRelPt */
IUP[0]	/* InterpolateUntPts */
IUP[1]	/* InterpolateUntPts */";
};
width = 994;
},
{
anchors = (
{
name = bottom;
position = "{947, 0}";
}
);
background = {
paths = (
{
closed = 1;
nodes = (
"679 900 LINE SMOOTH",
"679 1180 OFFCURVE",
"704 1220 OFFCURVE",
"874 1220 CURVE",
"874 1300 LINE",
"84 1300 LINE",
"84 1220 LINE",
"254 1220 OFFCURVE",
"279 1180 OFFCURVE",
"279 900 CURVE SMOOTH",
"279 -300 LINE SMOOTH",
"279 -513 OFFCURVE",
"198 -620 OFFCURVE",
"52 -620 CURVE",
"52 -700 LINE",
"222 -700 LINE SMOOTH",
"326 -700 OFFCURVE",
"410 -669 OFFCURVE",
"482 -597 CURVE",
"558 -669 OFFCURVE",
"650 -700 OFFCURVE",
"762 -700 CURVE SMOOTH",
"902 -700 LINE",
"902 -620 LINE",
"759 -620 OFFCURVE",
"679 -513 OFFCURVE",
"679 -300 CURVE SMOOTH"
);
},
{
closed = 1;
nodes = (
"679 1800 LINE SMOOTH",
"679 2040 OFFCURVE",
"729 2100 OFFCURVE",
"833 2100 CURVE SMOOTH",
"891 2100 OFFCURVE",
"918 2084 OFFCURVE",
"918 2050 CURVE SMOOTH",
"918 2005 OFFCURVE",
"876 1976 OFFCURVE",
"876 1849 CURVE SMOOTH",
"876 1743 OFFCURVE",
"958 1672 OFFCURVE",
"1082 1672 CURVE SMOOTH",
"1206 1672 OFFCURVE",
"1288 1762 OFFCURVE",
"1288 1898 CURVE SMOOTH",
"1288 2094 OFFCURVE",
"1116 2200 OFFCURVE",
"798 2200 CURVE SMOOTH",
"442 2200 OFFCURVE",
"279 2060 OFFCURVE",
"279 1800 CURVE SMOOTH",
"279 1100 LINE",
"679 1100 LINE"
);
}
);
};
layerId = "E4BC606E-CD30-42C5-8BF2-1DD2ABB89119";
name = Regular;
paths = (
{
closed = 1;
nodes = (
"679 1100 LINE SMOOTH",
"679 1380 OFFCURVE",
"713 1420 OFFCURVE",
"944 1420 CURVE",
"944 1500 LINE",
"84 1500 LINE",
"84 1420 LINE",
"254 1420 OFFCURVE",
"279 1380 OFFCURVE",
"279 1100 CURVE SMOOTH",
"279 -300 LINE SMOOTH",
"279 -513 OFFCURVE",
"198 -620 OFFCURVE",
"52 -620 CURVE",
"52 -700 LINE",
"222 -700 LINE SMOOTH",
"326 -700 OFFCURVE",
"410 -669 OFFCURVE",
"482 -597 CURVE",
"558 -669 OFFCURVE",
"650 -700 OFFCURVE",
"762 -700 CURVE SMOOTH",
"902 -700 LINE",
"902 -620 LINE",
"759 -620 OFFCURVE",
"679 -513 OFFCURVE",
"679 -300 CURVE SMOOTH"
);
},
{
closed = 1;
nodes = (
"515 1504 OFFCURVE",
"379 1599 OFFCURVE",
"379 1788 CURVE SMOOTH",
"379 1894 OFFCURVE",
"428 1985 OFFCURVE",
"513 1985 CURVE SMOOTH",
"547 1985 OFFCURVE",
"561 1965 OFFCURVE",
"561 1914 CURVE SMOOTH",
"561 1796 OFFCURVE",
"643 1717 OFFCURVE",
"767 1717 CURVE SMOOTH",
"897 1717 OFFCURVE",
"987 1800 OFFCURVE",
"987 1944 CURVE SMOOTH",
"987 2067 OFFCURVE",
"922 2200 OFFCURVE",
"690 2200 CURVE SMOOTH",
"429 2200 OFFCURVE",
"279 2033 OFFCURVE",
"279 1758 CURVE SMOOTH",
"279 1300 LINE",
"679 1300 LINE",
"749 1500 LINE"
);
}
);
userData = {
assembly = "PUSHW[ ]	/* 1 value pushed */
0 
CALL[ ]	/* CallFunction */
SVTCA[0]	/* SetFreedomAndProjectionVectorToAxis */
PUSHW[ ]	/* 1 value pushed */
0 
RCVT[ ]	/* ReadCVT */
IF[ ]	/* If */
PUSHW[ ]	/* 1 value pushed */
27 
MDAP[1]	/* MoveDirectAbsPt */
ELSE[ ]	/* Else */
PUSHW[ ]	/* 2 values pushed */
27 1 
MIAP[0]	/* MoveIndirectAbsPt */
EIF[ ]	/* EndIf */
PUSHW[ ]	/* 1 value pushed */
0 
RCVT[ ]	/* ReadCVT */
IF[ ]	/* If */
PUSHW[ ]	/* 1 value pushed */
34 
MDAP[1]	/* MoveDirectAbsPt */
ELSE[ ]	/* Else */
PUSHW[ ]	/* 2 values pushed */
34 1 
MIAP[0]	/* MoveIndirectAbsPt */
EIF[ ]	/* EndIf */
PUSHW[ ]	/* 3 values pushed */
8 17 3 
CALL[ ]	/* CallFunction */
PUSHW[ ]	/* 3 values pushed */
1 0 3 
CALL[ ]	/* CallFunction */
PUSHW[ ]	/* 1 value pushed */
1 
SRP0[ ]	/* SetRefPoint0 */
PUSHW[ ]	/* 1 value pushed */
20 
MDRP[10000]	/* MoveDirectRelPt */
PUSHW[ ]	/* 1 value pushed */
0 
SRP0[ ]	/* SetRefPoint0 */
PUSHW[ ]	/* 1 value pushed */
22 
MDRP[10000]	/* MoveDirectRelPt */
PUSHW[ ]	/* 1 value pushed */
27 
SRP0[ ]	/* SetRefPoint0 */
PUSHW[ ]	/* 1 value pushed */
26 
MDRP[11100]	/* MoveDirectRelPt */
PUSHW[ ]	/* 1 value pushed */
36 
MDRP[10000]	/* MoveDirectRelPt */
IUP[0]	/* InterpolateUntPts */
IUP[1]	/* InterpolateUntPts */";
};
width = 984;
}
);
leftKerningGroup = uni0432;
note = f;
rightKerningGroup = f;
unicode = 0066;
},
{
glyphname = g;
lastChange = "2021-12-17 23:42:19 +0000";
layers = (
{
anchors = (
{
name = bottom;
position = "{865, -700}";
},
{
name = top;
position = "{865, 1500}";
}
);
layerId = "E4BC606E-CD30-42C5-8BF2-1DD2ABB89119";
paths = (
{
closed = 1;
nodes = (
"1135 -700 LINE SMOOTH",
"1407 -700 OFFCURVE",
"1565 -536 OFFCURVE",
"1565 -230 CURVE SMOOTH",
"1565 1130 LINE SMOOTH",
"1565 1371 OFFCURVE",
"1415 1500 OFFCURVE",
"1155 1500 CURVE SMOOTH",
"575 1500 LINE SMOOTH",
"315 1500 OFFCURVE",
"165 1360 OFFCURVE",
"165 1100 CURVE SMOOTH",
"165 400 LINE SMOOTH",
"165 140 OFFCURVE",
"312 0 OFFCURVE",
"575 0 CURVE SMOOTH",
"1295 0 LINE",
"1295 100 LINE",
"845 100 LINE SMOOTH",
"640 100 OFFCURVE",
"575 160 OFFCURVE",
"575 400 CURVE SMOOTH",
"575 1100 LINE SMOOTH",
"575 1340 OFFCURVE",
"633 1400 OFFCURVE",
"865 1400 CURVE SMOOTH",
"1103 1400 OFFCURVE",
"1155 1356 OFFCURVE",
"1155 1130 CURVE SMOOTH",
"1155 -230 LINE SMOOTH",
"1155 -526 OFFCURVE",
"1091 -600 OFFCURVE",
"881 -600 CURVE SMOOTH",
"677 -600 OFFCURVE",
"626 -606 OFFCURVE",
"626 -550 CURVE SMOOTH",
"626 -516 OFFCURVE",
"678 -494 OFFCURVE",
"678 -399 CURVE SMOOTH",
"678 -269 OFFCURVE",
"588 -182 OFFCURVE",
"452 -182 CURVE SMOOTH",
"322 -182 OFFCURVE",
"232 -272 OFFCURVE",
"232 -408 CURVE SMOOTH",
"232 -598 OFFCURVE",
"328 -700 OFFCURVE",
"726 -700 CURVE SMOOTH"
);
}
);
userData = {
assembly = "PUSHW[ ]	/* 1 value pushed */
0 
CALL[ ]	/* CallFunction */
SVTCA[0]	/* SetFreedomAndProjectionVectorToAxis */
PUSHW[ ]	/* 1 value pushed */
0 
RCVT[ ]	/* ReadCVT */
IF[ ]	/* If */
PUSHW[ ]	/* 1 value pushed */
6 
MDAP[1]	/* MoveDirectAbsPt */
ELSE[ ]	/* Else */
PUSHW[ ]	/* 2 values pushed */
6 5 
MIAP[0]	/* MoveIndirectAbsPt */
EIF[ ]	/* EndIf */
PUSHW[ ]	/* 1 value pushed */
0 
RCVT[ ]	/* ReadCVT */
IF[ ]	/* If */
PUSHW[ ]	/* 1 value pushed */
13 
MDAP[1]	/* MoveDirectAbsPt */
ELSE[ ]	/* Else */
PUSHW[ ]	/* 2 values pushed */
13 5 
MIAP[0]	/* MoveIndirectAbsPt */
EIF[ ]	/* EndIf */
PUSHW[ ]	/* 1 value pushed */
0 
RCVT[ ]	/* ReadCVT */
IF[ ]	/* If */
PUSHW[ ]	/* 1 value pushed */
23 
MDAP[1]	/* MoveDirectAbsPt */
ELSE[ ]	/* Else */
PUSHW[ ]	/* 2 values pushed */
23 3 
MIAP[0]	/* MoveIndirectAbsPt */
EIF[ ]	/* EndIf */
PUSHW[ ]	/* 1 value pushed */
0 
RCVT[ ]	/* ReadCVT */
IF[ ]	/* If */
PUSHW[ ]	/* 1 value pushed */
35 
MDAP[1]	/* MoveDirectAbsPt */
ELSE[ ]	/* Else */
PUSHW[ ]	/* 2 values pushed */
35 1 
MIAP[0]	/* MoveIndirectAbsPt */
EIF[ ]	/* EndIf */
PUSHW[ ]	/* 1 value pushed */
13 
SRP0[ ]	/* SetRefPoint0 */
PUSHW[ ]	/* 1 value pushed */
15 
MDRP[11100]	/* MoveDirectRelPt */
PUSHW[ ]	/* 1 value pushed */
23 
SRP0[ ]	/* SetRefPoint0 */
PUSHW[ ]	/* 1 value pushed */
32 
MDRP[11100]	/* MoveDirectRelPt */
NPUSHW[ ]	/* 27 values pushed */
7 32 23 32 39 32 55 32 71 32 87 32 103 32 119 32 135 32 151 32 167 32 183 32 199 32 13 
DELTAP1[ ]	/* DeltaExceptionP1 */
NPUSHW[ ]	/* 5 values pushed */
214 32 230 32 2 
DELTAP1[ ]	/* DeltaExceptionP1 */
PUSHW[ ]	/* 1 value pushed */
35 
SRP0[ ]	/* SetRefPoint0 */
PUSHW[ ]	/* 1 value pushed */
41 
MDRP[11100]	/* MoveDirectRelPt */
NPUSHW[ ]	/* 27 values pushed */
7 41 23 41 39 41 55 41 71 41 87 41 103 41 119 41 135 41 151 41 167 41 183 41 199 41 13 
DELTAP1[ ]	/* DeltaExceptionP1 */
NPUSHW[ ]	/* 5 values pushed */
214 41 230 41 2 
DELTAP1[ ]	/* DeltaExceptionP1 */
PUSHW[ ]	/* 1 value pushed */
15 
SRP0[ ]	/* SetRefPoint0 */
PUSHW[ ]	/* 1 value pushed */
46 
MDRP[10000]	/* MoveDirectRelPt */
IUP[0]	/* InterpolateUntPts */
IUP[1]	/* InterpolateUntPts */";
};
width = 1730;
},
{
anchors = (
{
name = bottom;
position = "{865, -700}";
},
{
name = top;
position = "{865, 1500}";
}
);
associatedMasterId = "E4BC606E-CD30-42C5-8BF2-1DD2ABB89119";
layerId = "21E13407-5C7C-4BEC-A85E-67F962567322";
name = "17 Dec 21, 00:06";
paths = (
{
closed = 1;
nodes = (
"1135 -700 LINE SMOOTH",
"1407 -700 OFFCURVE",
"1565 -536 OFFCURVE",
"1565 -230 CURVE SMOOTH",
"1565 1130 LINE SMOOTH",
"1565 1371 OFFCURVE",
"1415 1500 OFFCURVE",
"1155 1500 CURVE SMOOTH",
"575 1500 LINE SMOOTH",
"315 1500 OFFCURVE",
"165 1360 OFFCURVE",
"165 1100 CURVE SMOOTH",
"165 400 LINE SMOOTH",
"165 140 OFFCURVE",
"312 0 OFFCURVE",
"575 0 CURVE SMOOTH",
"1295 0 LINE",
"1295 100 LINE",
"845 100 LINE SMOOTH",
"640 100 OFFCURVE",
"575 160 OFFCURVE",
"575 400 CURVE SMOOTH",
"575 1100 LINE SMOOTH",
"575 1340 OFFCURVE",
"633 1400 OFFCURVE",
"865 1400 CURVE SMOOTH",
"1103 1400 OFFCURVE",
"1155 1356 OFFCURVE",
"1155 1130 CURVE SMOOTH",
"1155 -230 LINE SMOOTH",
"1155 -526 OFFCURVE",
"1091 -600 OFFCURVE",
"881 -600 CURVE SMOOTH",
"677 -600 OFFCURVE",
"626 -606 OFFCURVE",
"626 -550 CURVE SMOOTH",
"626 -516 OFFCURVE",
"678 -494 OFFCURVE",
"678 -399 CURVE SMOOTH",
"678 -269 OFFCURVE",
"588 -182 OFFCURVE",
"452 -182 CURVE SMOOTH",
"322 -182 OFFCURVE",
"232 -272 OFFCURVE",
"232 -408 CURVE SMOOTH",
"232 -598 OFFCURVE",
"328 -700 OFFCURVE",
"726 -700 CURVE SMOOTH"
);
}
);
userData = {
assembly = "PUSHW[ ]	/* 1 value pushed */
0 
CALL[ ]	/* CallFunction */
SVTCA[0]	/* SetFreedomAndProjectionVectorToAxis */
PUSHW[ ]	/* 1 value pushed */
0 
RCVT[ ]	/* ReadCVT */
IF[ ]	/* If */
PUSHW[ ]	/* 1 value pushed */
6 
MDAP[1]	/* MoveDirectAbsPt */
ELSE[ ]	/* Else */
PUSHW[ ]	/* 2 values pushed */
6 5 
MIAP[0]	/* MoveIndirectAbsPt */
EIF[ ]	/* EndIf */
PUSHW[ ]	/* 1 value pushed */
0 
RCVT[ ]	/* ReadCVT */
IF[ ]	/* If */
PUSHW[ ]	/* 1 value pushed */
13 
MDAP[1]	/* MoveDirectAbsPt */
ELSE[ ]	/* Else */
PUSHW[ ]	/* 2 values pushed */
13 5 
MIAP[0]	/* MoveIndirectAbsPt */
EIF[ ]	/* EndIf */
PUSHW[ ]	/* 1 value pushed */
0 
RCVT[ ]	/* ReadCVT */
IF[ ]	/* If */
PUSHW[ ]	/* 1 value pushed */
23 
MDAP[1]	/* MoveDirectAbsPt */
ELSE[ ]	/* Else */
PUSHW[ ]	/* 2 values pushed */
23 3 
MIAP[0]	/* MoveIndirectAbsPt */
EIF[ ]	/* EndIf */
PUSHW[ ]	/* 1 value pushed */
0 
RCVT[ ]	/* ReadCVT */
IF[ ]	/* If */
PUSHW[ ]	/* 1 value pushed */
35 
MDAP[1]	/* MoveDirectAbsPt */
ELSE[ ]	/* Else */
PUSHW[ ]	/* 2 values pushed */
35 1 
MIAP[0]	/* MoveIndirectAbsPt */
EIF[ ]	/* EndIf */
PUSHW[ ]	/* 1 value pushed */
13 
SRP0[ ]	/* SetRefPoint0 */
PUSHW[ ]	/* 1 value pushed */
15 
MDRP[11100]	/* MoveDirectRelPt */
PUSHW[ ]	/* 1 value pushed */
23 
SRP0[ ]	/* SetRefPoint0 */
PUSHW[ ]	/* 1 value pushed */
32 
MDRP[11100]	/* MoveDirectRelPt */
NPUSHW[ ]	/* 27 values pushed */
7 32 23 32 39 32 55 32 71 32 87 32 103 32 119 32 135 32 151 32 167 32 183 32 199 32 13 
DELTAP1[ ]	/* DeltaExceptionP1 */
NPUSHW[ ]	/* 5 values pushed */
214 32 230 32 2 
DELTAP1[ ]	/* DeltaExceptionP1 */
PUSHW[ ]	/* 1 value pushed */
35 
SRP0[ ]	/* SetRefPoint0 */
PUSHW[ ]	/* 1 value pushed */
41 
MDRP[11100]	/* MoveDirectRelPt */
NPUSHW[ ]	/* 27 values pushed */
7 41 23 41 39 41 55 41 71 41 87 41 103 41 119 41 135 41 151 41 167 41 183 41 199 41 13 
DELTAP1[ ]	/* DeltaExceptionP1 */
NPUSHW[ ]	/* 5 values pushed */
214 41 230 41 2 
DELTAP1[ ]	/* DeltaExceptionP1 */
PUSHW[ ]	/* 1 value pushed */
15 
SRP0[ ]	/* SetRefPoint0 */
PUSHW[ ]	/* 1 value pushed */
46 
MDRP[10000]	/* MoveDirectRelPt */
IUP[0]	/* InterpolateUntPts */
IUP[1]	/* InterpolateUntPts */";
};
width = 1730;
},
{
anchors = (
{
name = bottom;
position = "{865, -700}";
},
{
name = top;
position = "{865, 1500}";
}
);
associatedMasterId = "E4BC606E-CD30-42C5-8BF2-1DD2ABB89119";
layerId = "884D1CA3-B795-433F-9BCF-1F540DC64DB3";
name = "17 Dec 21, 00:10";
paths = (
{
closed = 1;
nodes = (
"1171 729 LINE SMOOTH",
"1442 729 OFFCURVE",
"1565 829 OFFCURVE",
"1565 1050 CURVE SMOOTH",
"1565 1200 LINE",
"1565 1398 OFFCURVE",
"1571 1420 OFFCURVE",
"1765 1420 CURVE",
"1765 1500 LINE",
"595 1500 LINE SMOOTH",
"376 1500 OFFCURVE",
"238 1396 OFFCURVE",
"238 1202 CURVE SMOOTH",
"238 1050 LINE SMOOTH",
"238 829 OFFCURVE",
"361 729 OFFCURVE",
"632 729 CURVE SMOOTH"
);
},
{
closed = 1;
nodes = (
"1135 -700 LINE SMOOTH",
"1407 -700 OFFCURVE",
"1565 -536 OFFCURVE",
"1565 -230 CURVE SMOOTH",
"1565 100 LINE",
"1155 100 LINE",
"1155 -230 LINE SMOOTH",
"1155 -526 OFFCURVE",
"1091 -600 OFFCURVE",
"881 -600 CURVE SMOOTH",
"677 -600 OFFCURVE",
"626 -606 OFFCURVE",
"626 -550 CURVE SMOOTH",
"626 -516 OFFCURVE",
"678 -494 OFFCURVE",
"678 -399 CURVE SMOOTH",
"678 -269 OFFCURVE",
"588 -182 OFFCURVE",
"452 -182 CURVE SMOOTH",
"322 -182 OFFCURVE",
"232 -272 OFFCURVE",
"232 -408 CURVE SMOOTH",
"232 -598 OFFCURVE",
"328 -700 OFFCURVE",
"726 -700 CURVE SMOOTH"
);
},
{
closed = 1;
nodes = (
"1295 0 LINE",
"1295 100 LINE",
"845 100 LINE SMOOTH",
"616 100 OFFCURVE",
"647 160 OFFCURVE",
"647 400 CURVE SMOOTH",
"647 1067 LINE",
"237 1067 LINE",
"237 400 LINE SMOOTH",
"237 140 OFFCURVE",
"295 0 OFFCURVE",
"575 0 CURVE SMOOTH"
);
},
{
closed = 1;
nodes = (
"679 829 OFFCURVE",
"648 858 OFFCURVE",
"648 1060 CURVE SMOOTH",
"648 1175 LINE SMOOTH",
"648 1354 OFFCURVE",
"702 1400 OFFCURVE",
"885 1400 CURVE SMOOTH",
"1165 1400 OFFCURVE",
"1155 1399 OFFCURVE",
"1155 1200 CURVE SMOOTH",
"1155 1060 LINE SMOOTH",
"1155 858 OFFCURVE",
"1122 829 OFFCURVE",
"895 829 CURVE SMOOTH"
);
}
);
userData = {
assembly = "PUSHW[ ]	/* 1 value pushed */
0 
CALL[ ]	/* CallFunction */
SVTCA[0]	/* SetFreedomAndProjectionVectorToAxis */
PUSHW[ ]	/* 1 value pushed */
0 
RCVT[ ]	/* ReadCVT */
IF[ ]	/* If */
PUSHW[ ]	/* 1 value pushed */
6 
MDAP[1]	/* MoveDirectAbsPt */
ELSE[ ]	/* Else */
PUSHW[ ]	/* 2 values pushed */
6 5 
MIAP[0]	/* MoveIndirectAbsPt */
EIF[ ]	/* EndIf */
PUSHW[ ]	/* 1 value pushed */
0 
RCVT[ ]	/* ReadCVT */
IF[ ]	/* If */
PUSHW[ ]	/* 1 value pushed */
13 
MDAP[1]	/* MoveDirectAbsPt */
ELSE[ ]	/* Else */
PUSHW[ ]	/* 2 values pushed */
13 5 
MIAP[0]	/* MoveIndirectAbsPt */
EIF[ ]	/* EndIf */
PUSHW[ ]	/* 1 value pushed */
0 
RCVT[ ]	/* ReadCVT */
IF[ ]	/* If */
PUSHW[ ]	/* 1 value pushed */
23 
MDAP[1]	/* MoveDirectAbsPt */
ELSE[ ]	/* Else */
PUSHW[ ]	/* 2 values pushed */
23 3 
MIAP[0]	/* MoveIndirectAbsPt */
EIF[ ]	/* EndIf */
PUSHW[ ]	/* 1 value pushed */
0 
RCVT[ ]	/* ReadCVT */
IF[ ]	/* If */
PUSHW[ ]	/* 1 value pushed */
35 
MDAP[1]	/* MoveDirectAbsPt */
ELSE[ ]	/* Else */
PUSHW[ ]	/* 2 values pushed */
35 1 
MIAP[0]	/* MoveIndirectAbsPt */
EIF[ ]	/* EndIf */
PUSHW[ ]	/* 1 value pushed */
13 
SRP0[ ]	/* SetRefPoint0 */
PUSHW[ ]	/* 1 value pushed */
15 
MDRP[11100]	/* MoveDirectRelPt */
PUSHW[ ]	/* 1 value pushed */
23 
SRP0[ ]	/* SetRefPoint0 */
PUSHW[ ]	/* 1 value pushed */
32 
MDRP[11100]	/* MoveDirectRelPt */
NPUSHW[ ]	/* 27 values pushed */
7 32 23 32 39 32 55 32 71 32 87 32 103 32 119 32 135 32 151 32 167 32 183 32 199 32 13 
DELTAP1[ ]	/* DeltaExceptionP1 */
NPUSHW[ ]	/* 5 values pushed */
214 32 230 32 2 
DELTAP1[ ]	/* DeltaExceptionP1 */
PUSHW[ ]	/* 1 value pushed */
35 
SRP0[ ]	/* SetRefPoint0 */
PUSHW[ ]	/* 1 value pushed */
41 
MDRP[11100]	/* MoveDirectRelPt */
NPUSHW[ ]	/* 27 values pushed */
7 41 23 41 39 41 55 41 71 41 87 41 103 41 119 41 135 41 151 41 167 41 183 41 199 41 13 
DELTAP1[ ]	/* DeltaExceptionP1 */
NPUSHW[ ]	/* 5 values pushed */
214 41 230 41 2 
DELTAP1[ ]	/* DeltaExceptionP1 */
PUSHW[ ]	/* 1 value pushed */
15 
SRP0[ ]	/* SetRefPoint0 */
PUSHW[ ]	/* 1 value pushed */
46 
MDRP[10000]	/* MoveDirectRelPt */
IUP[0]	/* InterpolateUntPts */
IUP[1]	/* InterpolateUntPts */";
};
width = 1730;
},
{
anchors = (
{
name = bottom;
position = "{818, -700}";
},
{
name = top;
position = "{818, 1500}";
}
);
associatedMasterId = "E4BC606E-CD30-42C5-8BF2-1DD2ABB89119";
layerId = "72A13300-1E3A-4145-9314-EB8922CBD7D9";
name = "17 Dec 21, 00:13";
paths = (
{
closed = 1;
nodes = (
"1088 -700 LINE SMOOTH",
"1360 -700 OFFCURVE",
"1518 -536 OFFCURVE",
"1518 -230 CURVE SMOOTH",
"1518 100 LINE",
"798 100 LINE SMOOTH",
"569 100 OFFCURVE",
"600 160 OFFCURVE",
"600 400 CURVE SMOOTH",
"600 459 LINE",
"1124 459 LINE SMOOTH",
"1395 459 OFFCURVE",
"1518 559 OFFCURVE",
"1518 780 CURVE SMOOTH",
"1518 1200 LINE SMOOTH",
"1518 1398 OFFCURVE",
"1524 1420 OFFCURVE",
"1718 1420 CURVE",
"1718 1500 LINE",
"548 1500 LINE SMOOTH",
"329 1500 OFFCURVE",
"191 1396 OFFCURVE",
"191 1202 CURVE SMOOTH",
"191 400 LINE SMOOTH",
"191 140 OFFCURVE",
"248 0 OFFCURVE",
"528 0 CURVE SMOOTH",
"1108 0 LINE",
"1108 -230 LINE SMOOTH",
"1108 -526 OFFCURVE",
"1044 -600 OFFCURVE",
"834 -600 CURVE SMOOTH",
"630 -600 OFFCURVE",
"579 -606 OFFCURVE",
"579 -550 CURVE SMOOTH",
"579 -516 OFFCURVE",
"631 -494 OFFCURVE",
"631 -399 CURVE SMOOTH",
"631 -269 OFFCURVE",
"541 -182 OFFCURVE",
"405 -182 CURVE SMOOTH",
"275 -182 OFFCURVE",
"185 -272 OFFCURVE",
"185 -408 CURVE SMOOTH",
"185 -598 OFFCURVE",
"281 -700 OFFCURVE",
"679 -700 CURVE SMOOTH"
);
},
{
closed = 1;
nodes = (
"600 1175 LINE SMOOTH",
"600 1354 OFFCURVE",
"655 1400 OFFCURVE",
"838 1400 CURVE SMOOTH",
"1118 1400 OFFCURVE",
"1108 1399 OFFCURVE",
"1108 1200 CURVE SMOOTH",
"1108 790 LINE SMOOTH",
"1108 588 OFFCURVE",
"1075 559 OFFCURVE",
"848 559 CURVE SMOOTH",
"600 559 LINE"
);
}
);
userData = {
assembly = "PUSHW[ ]	/* 1 value pushed */
0 
CALL[ ]	/* CallFunction */
SVTCA[0]	/* SetFreedomAndProjectionVectorToAxis */
PUSHW[ ]	/* 1 value pushed */
0 
RCVT[ ]	/* ReadCVT */
IF[ ]	/* If */
PUSHW[ ]	/* 1 value pushed */
6 
MDAP[1]	/* MoveDirectAbsPt */
ELSE[ ]	/* Else */
PUSHW[ ]	/* 2 values pushed */
6 5 
MIAP[0]	/* MoveIndirectAbsPt */
EIF[ ]	/* EndIf */
PUSHW[ ]	/* 1 value pushed */
0 
RCVT[ ]	/* ReadCVT */
IF[ ]	/* If */
PUSHW[ ]	/* 1 value pushed */
13 
MDAP[1]	/* MoveDirectAbsPt */
ELSE[ ]	/* Else */
PUSHW[ ]	/* 2 values pushed */
13 5 
MIAP[0]	/* MoveIndirectAbsPt */
EIF[ ]	/* EndIf */
PUSHW[ ]	/* 1 value pushed */
0 
RCVT[ ]	/* ReadCVT */
IF[ ]	/* If */
PUSHW[ ]	/* 1 value pushed */
23 
MDAP[1]	/* MoveDirectAbsPt */
ELSE[ ]	/* Else */
PUSHW[ ]	/* 2 values pushed */
23 3 
MIAP[0]	/* MoveIndirectAbsPt */
EIF[ ]	/* EndIf */
PUSHW[ ]	/* 1 value pushed */
0 
RCVT[ ]	/* ReadCVT */
IF[ ]	/* If */
PUSHW[ ]	/* 1 value pushed */
35 
MDAP[1]	/* MoveDirectAbsPt */
ELSE[ ]	/* Else */
PUSHW[ ]	/* 2 values pushed */
35 1 
MIAP[0]	/* MoveIndirectAbsPt */
EIF[ ]	/* EndIf */
PUSHW[ ]	/* 1 value pushed */
13 
SRP0[ ]	/* SetRefPoint0 */
PUSHW[ ]	/* 1 value pushed */
15 
MDRP[11100]	/* MoveDirectRelPt */
PUSHW[ ]	/* 1 value pushed */
23 
SRP0[ ]	/* SetRefPoint0 */
PUSHW[ ]	/* 1 value pushed */
32 
MDRP[11100]	/* MoveDirectRelPt */
NPUSHW[ ]	/* 27 values pushed */
7 32 23 32 39 32 55 32 71 32 87 32 103 32 119 32 135 32 151 32 167 32 183 32 199 32 13 
DELTAP1[ ]	/* DeltaExceptionP1 */
NPUSHW[ ]	/* 5 values pushed */
214 32 230 32 2 
DELTAP1[ ]	/* DeltaExceptionP1 */
PUSHW[ ]	/* 1 value pushed */
35 
SRP0[ ]	/* SetRefPoint0 */
PUSHW[ ]	/* 1 value pushed */
41 
MDRP[11100]	/* MoveDirectRelPt */
NPUSHW[ ]	/* 27 values pushed */
7 41 23 41 39 41 55 41 71 41 87 41 103 41 119 41 135 41 151 41 167 41 183 41 199 41 13 
DELTAP1[ ]	/* DeltaExceptionP1 */
NPUSHW[ ]	/* 5 values pushed */
214 41 230 41 2 
DELTAP1[ ]	/* DeltaExceptionP1 */
PUSHW[ ]	/* 1 value pushed */
15 
SRP0[ ]	/* SetRefPoint0 */
PUSHW[ ]	/* 1 value pushed */
46 
MDRP[10000]	/* MoveDirectRelPt */
IUP[0]	/* InterpolateUntPts */
IUP[1]	/* InterpolateUntPts */";
};
width = 1743;
}
);
leftKerningGroup = g;
note = g;
rightKerningGroup = uni0443;
unicode = 0067;
},
{
glyphname = h;
lastChange = "2021-12-17 23:42:19 +0000";
layers = (
{
anchors = (
{
name = bottom;
position = "{1929, 0}";
},
{
name = top;
position = "{1929, 1500}";
}
);
background = {
paths = (
{
closed = 1;
nodes = (
"79 1420 LINE",
"273 1420 OFFCURVE",
"279 1388 OFFCURVE",
"279 1100 CURVE SMOOTH",
"279 400 LINE SMOOTH",
"279 120 OFFCURVE",
"256 80 OFFCURVE",
"99 80 CURVE",
"99 0 LINE",
"889 0 LINE",
"889 80 LINE",
"705 80 OFFCURVE",
"679 120 OFFCURVE",
"679 400 CURVE SMOOTH",
"679 1100 LINE SMOOTH",
"679 1370 OFFCURVE",
"726 1400 OFFCURVE",
"978 1400 CURVE SMOOTH",
"1188 1400 OFFCURVE",
"1248 1340 OFFCURVE",
"1248 1100 CURVE SMOOTH",
"1248 400 LINE SMOOTH",
"1248 40 OFFCURVE",
"1288 0 OFFCURVE",
"1648 0 CURVE SMOOTH",
"1857 0 LINE",
"1857 80 LINE",
"1838 80 LINE",
"1708 80 OFFCURVE",
"1648 144 OFFCURVE",
"1648 400 CURVE SMOOTH",
"1648 1100 LINE SMOOTH",
"1648 1360 OFFCURVE",
"1508 1500 OFFCURVE",
"1248 1500 CURVE SMOOTH",
"79 1500 LINE"
);
}
);
};
layerId = "E4BC606E-CD30-42C5-8BF2-1DD2ABB89119";
paths = (
{
closed = 1;
nodes = (
"679 1863 OFFCURVE",
"759 1970 OFFCURVE",
"902 1970 CURVE",
"902 2050 LINE",
"762 2050 LINE SMOOTH",
"650 2050 OFFCURVE",
"558 2019 OFFCURVE",
"482 1947 CURVE",
"410 2019 OFFCURVE",
"326 2050 OFFCURVE",
"222 2050 CURVE SMOOTH",
"52 2050 LINE",
"52 1970 LINE",
"198 1970 OFFCURVE",
"279 1863 OFFCURVE",
"279 1650 CURVE SMOOTH",
"279 400 LINE SMOOTH",
"279 120 OFFCURVE",
"254 80 OFFCURVE",
"84 80 CURVE",
"84 0 LINE",
"874 0 LINE",
"874 80 LINE",
"704 80 OFFCURVE",
"679 120 OFFCURVE",
"679 400 CURVE SMOOTH",
"679 1650 LINE SMOOTH"
);
},
{
closed = 1;
nodes = (
"556 1400 LINE",
"968 1400 LINE",
"1178 1400 OFFCURVE",
"1238 1340 OFFCURVE",
"1238 1100 CURVE SMOOTH",
"1238 400 LINE SMOOTH",
"1238 40 OFFCURVE",
"1278 0 OFFCURVE",
"1638 0 CURVE SMOOTH",
"1847 0 LINE",
"1847 80 LINE",
"1828 80 LINE",
"1698 80 OFFCURVE",
"1638 144 OFFCURVE",
"1638 400 CURVE SMOOTH",
"1638 1100 LINE SMOOTH",
"1638 1360 OFFCURVE",
"1498 1500 OFFCURVE",
"1238 1500 CURVE SMOOTH",
"556 1500 LINE"
);
}
);
userData = {
assembly = "PUSHW[ ]	/* 1 value pushed */
0 
CALL[ ]	/* CallFunction */
SVTCA[0]	/* SetFreedomAndProjectionVectorToAxis */
PUSHW[ ]	/* 1 value pushed */
0 
RCVT[ ]	/* ReadCVT */
IF[ ]	/* If */
PUSHW[ ]	/* 1 value pushed */
14 
MDAP[1]	/* MoveDirectAbsPt */
ELSE[ ]	/* Else */
PUSHW[ ]	/* 2 values pushed */
14 5 
MIAP[0]	/* MoveIndirectAbsPt */
EIF[ ]	/* EndIf */
PUSHW[ ]	/* 1 value pushed */
0 
RCVT[ ]	/* ReadCVT */
IF[ ]	/* If */
PUSHW[ ]	/* 1 value pushed */
0 
MDAP[1]	/* MoveDirectAbsPt */
ELSE[ ]	/* Else */
PUSHW[ ]	/* 2 values pushed */
0 1 
MIAP[0]	/* MoveIndirectAbsPt */
EIF[ ]	/* EndIf */
PUSHW[ ]	/* 1 value pushed */
0 
RCVT[ ]	/* ReadCVT */
IF[ ]	/* If */
PUSHW[ ]	/* 1 value pushed */
24 
MDAP[1]	/* MoveDirectAbsPt */
ELSE[ ]	/* Else */
PUSHW[ ]	/* 2 values pushed */
24 1 
MIAP[0]	/* MoveIndirectAbsPt */
EIF[ ]	/* EndIf */
PUSHW[ ]	/* 1 value pushed */
0 
RCVT[ ]	/* ReadCVT */
IF[ ]	/* If */
PUSHW[ ]	/* 1 value pushed */
38 
MDAP[1]	/* MoveDirectAbsPt */
ELSE[ ]	/* Else */
PUSHW[ ]	/* 2 values pushed */
38 1 
MIAP[0]	/* MoveIndirectAbsPt */
EIF[ ]	/* EndIf */
PUSHW[ ]	/* 3 values pushed */
7 6 3 
CALL[ ]	/* CallFunction */
PUSHW[ ]	/* 1 value pushed */
0 
SRP0[ ]	/* SetRefPoint0 */
PUSHW[ ]	/* 1 value pushed */
1 
MDRP[11100]	/* MoveDirectRelPt */
PUSHW[ ]	/* 1 value pushed */
23 
MDRP[10000]	/* MoveDirectRelPt */
PUSHW[ ]	/* 1 value pushed */
14 
SRP0[ ]	/* SetRefPoint0 */
PUSHW[ ]	/* 1 value pushed */
33 
MDRP[11100]	/* MoveDirectRelPt */
PUSHW[ ]	/* 1 value pushed */
23 
SRP0[ ]	/* SetRefPoint0 */
PUSHW[ ]	/* 1 value pushed */
37 
MDRP[10000]	/* MoveDirectRelPt */
IUP[0]	/* InterpolateUntPts */
IUP[1]	/* InterpolateUntPts */";
};
width = 1899;
}
);
leftKerningGroup = uni0412;
note = h;
rightKerningGroup = uni0430;
rightMetricsKey = n;
unicode = 0068;
},
{
glyphname = i;
lastChange = "2021-12-17 23:42:19 +0000";
layers = (
{
anchors = (
{
name = bottom;
position = "{947, 0}";
}
);
background = {
paths = (
{
closed = 1;
nodes = (
"444 2300 OFFCURVE",
"352 2264 OFFCURVE",
"286 2198 OFFCURVE",
"250 2106 OFFCURVE",
"250 2050 QCURVE SMOOTH",
"250 1994 OFFCURVE",
"286 1902 OFFCURVE",
"352 1836 OFFCURVE",
"444 1800 OFFCURVE",
"500 1800 QCURVE SMOOTH",
"556 1800 OFFCURVE",
"648 1836 OFFCURVE",
"714 1902 OFFCURVE",
"750 1994 OFFCURVE",
"750 2050 QCURVE SMOOTH",
"750 2106 OFFCURVE",
"714 2198 OFFCURVE",
"648 2264 OFFCURVE",
"556 2300 OFFCURVE",
"500 2300 QCURVE SMOOTH"
);
}
);
};
components = (
{
name = idotless;
},
{
name = dotaccentcomb;
transform = "{1, 0, 0, 1, 20, 0}";
}
);
layerId = "E4BC606E-CD30-42C5-8BF2-1DD2ABB89119";
userData = {
assembly = "PUSHW[ ]	/* 1 value pushed */
0 
CALL[ ]	/* CallFunction */
SVTCA[0]	/* SetFreedomAndProjectionVectorToAxis */
PUSHW[ ]	/* 1 value pushed */
0 
RCVT[ ]	/* ReadCVT */
IF[ ]	/* If */
PUSHW[ ]	/* 1 value pushed */
7 
MDAP[1]	/* MoveDirectAbsPt */
ELSE[ ]	/* Else */
PUSHW[ ]	/* 2 values pushed */
7 5 
MIAP[0]	/* MoveIndirectAbsPt */
EIF[ ]	/* EndIf */
PUSHW[ ]	/* 1 value pushed */
0 
RCVT[ ]	/* ReadCVT */
IF[ ]	/* If */
PUSHW[ ]	/* 1 value pushed */
14 
MDAP[1]	/* MoveDirectAbsPt */
ELSE[ ]	/* Else */
PUSHW[ ]	/* 2 values pushed */
14 5 
MIAP[0]	/* MoveIndirectAbsPt */
EIF[ ]	/* EndIf */
PUSHW[ ]	/* 1 value pushed */
0 
RCVT[ ]	/* ReadCVT */
IF[ ]	/* If */
PUSHW[ ]	/* 1 value pushed */
0 
MDAP[1]	/* MoveDirectAbsPt */
ELSE[ ]	/* Else */
PUSHW[ ]	/* 2 values pushed */
0 1 
MIAP[0]	/* MoveIndirectAbsPt */
EIF[ ]	/* EndIf */
PUSHW[ ]	/* 1 value pushed */
0 
RCVT[ ]	/* ReadCVT */
IF[ ]	/* If */
PUSHW[ ]	/* 1 value pushed */
22 
MDAP[1]	/* MoveDirectAbsPt */
ELSE[ ]	/* Else */
PUSHW[ ]	/* 2 values pushed */
22 1 
MIAP[0]	/* MoveIndirectAbsPt */
EIF[ ]	/* EndIf */
PUSHW[ ]	/* 1 value pushed */
0 
SRP0[ ]	/* SetRefPoint0 */
PUSHW[ ]	/* 1 value pushed */
1 
MDRP[11100]	/* MoveDirectRelPt */
PUSHW[ ]	/* 1 value pushed */
7 
SRP0[ ]	/* SetRefPoint0 */
PUSHW[ ]	/* 1 value pushed */
6 
MDRP[11100]	/* MoveDirectRelPt */
PUSHW[ ]	/* 1 value pushed */
16 
MDRP[10000]	/* MoveDirectRelPt */
PUSHW[ ]	/* 1 value pushed */
1 
SRP0[ ]	/* SetRefPoint0 */
PUSHW[ ]	/* 1 value pushed */
21 
MDRP[10000]	/* MoveDirectRelPt */
IUP[0]	/* InterpolateUntPts */
IUP[1]	/* InterpolateUntPts */";
};
width = 994;
}
);
leftKerningGroup = uni0432;
note = i;
rightKerningGroup = uni044F;
unicode = 0069;
},
{
glyphname = idotless;
lastChange = "2021-12-17 23:42:19 +0000";
layers = (
{
anchors = (
{
name = bottom;
position = "{497, 0}";
},
{
name = ogonek;
position = "{879, 10}";
},
{
name = top;
position = "{499, 1500}";
}
);
background = {
paths = (
{
closed = 1;
nodes = (
"699 1310 OFFCURVE",
"772 1417 OFFCURVE",
"902 1417 CURVE",
"902 1497 LINE",
"782 1497 LINE SMOOTH",
"670 1497 OFFCURVE",
"575 1466 OFFCURVE",
"499 1394 CURVE",
"427 1466 OFFCURVE",
"346 1497 OFFCURVE",
"242 1497 CURVE SMOOTH",
"92 1497 LINE",
"92 1417 LINE",
"225 1417 OFFCURVE",
"299 1310 OFFCURVE",
"299 1097 CURVE SMOOTH",
"299 400 LINE SMOOTH",
"299 120 OFFCURVE",
"274 80 OFFCURVE",
"104 80 CURVE",
"104 0 LINE",
"894 0 LINE",
"894 80 LINE",
"724 80 OFFCURVE",
"699 120 OFFCURVE",
"699 400 CURVE SMOOTH",
"699 1097 LINE SMOOTH"
);
}
);
};
layerId = "E4BC606E-CD30-42C5-8BF2-1DD2ABB89119";
paths = (
{
closed = 1;
nodes = (
"894 0 LINE",
"894 80 LINE",
"724 80 OFFCURVE",
"699 120 OFFCURVE",
"699 400 CURVE SMOOTH",
"699 1100 LINE SMOOTH",
"699 1380 OFFCURVE",
"724 1420 OFFCURVE",
"894 1420 CURVE",
"894 1500 LINE",
"104 1500 LINE",
"104 1420 LINE",
"274 1420 OFFCURVE",
"299 1380 OFFCURVE",
"299 1100 CURVE SMOOTH",
"299 400 LINE SMOOTH",
"299 120 OFFCURVE",
"274 80 OFFCURVE",
"104 80 CURVE",
"104 0 LINE"
);
}
);
userData = {
assembly = "PUSHW[ ]	/* 1 value pushed */
0 
CALL[ ]	/* CallFunction */
SVTCA[0]	/* SetFreedomAndProjectionVectorToAxis */
PUSHW[ ]	/* 1 value pushed */
0 
RCVT[ ]	/* ReadCVT */
IF[ ]	/* If */
PUSHW[ ]	/* 1 value pushed */
7 
MDAP[1]	/* MoveDirectAbsPt */
ELSE[ ]	/* Else */
PUSHW[ ]	/* 2 values pushed */
7 5 
MIAP[0]	/* MoveIndirectAbsPt */
EIF[ ]	/* EndIf */
PUSHW[ ]	/* 1 value pushed */
0 
RCVT[ ]	/* ReadCVT */
IF[ ]	/* If */
PUSHW[ ]	/* 1 value pushed */
14 
MDAP[1]	/* MoveDirectAbsPt */
ELSE[ ]	/* Else */
PUSHW[ ]	/* 2 values pushed */
14 5 
MIAP[0]	/* MoveIndirectAbsPt */
EIF[ ]	/* EndIf */
PUSHW[ ]	/* 1 value pushed */
0 
RCVT[ ]	/* ReadCVT */
IF[ ]	/* If */
PUSHW[ ]	/* 1 value pushed */
0 
MDAP[1]	/* MoveDirectAbsPt */
ELSE[ ]	/* Else */
PUSHW[ ]	/* 2 values pushed */
0 1 
MIAP[0]	/* MoveIndirectAbsPt */
EIF[ ]	/* EndIf */
PUSHW[ ]	/* 1 value pushed */
0 
RCVT[ ]	/* ReadCVT */
IF[ ]	/* If */
PUSHW[ ]	/* 1 value pushed */
22 
MDAP[1]	/* MoveDirectAbsPt */
ELSE[ ]	/* Else */
PUSHW[ ]	/* 2 values pushed */
22 1 
MIAP[0]	/* MoveIndirectAbsPt */
EIF[ ]	/* EndIf */
PUSHW[ ]	/* 1 value pushed */
0 
SRP0[ ]	/* SetRefPoint0 */
PUSHW[ ]	/* 1 value pushed */
1 
MDRP[11100]	/* MoveDirectRelPt */
PUSHW[ ]	/* 1 value pushed */
7 
SRP0[ ]	/* SetRefPoint0 */
PUSHW[ ]	/* 1 value pushed */
6 
MDRP[11100]	/* MoveDirectRelPt */
PUSHW[ ]	/* 1 value pushed */
16 
MDRP[10000]	/* MoveDirectRelPt */
PUSHW[ ]	/* 1 value pushed */
1 
SRP0[ ]	/* SetRefPoint0 */
PUSHW[ ]	/* 1 value pushed */
21 
MDRP[10000]	/* MoveDirectRelPt */
IUP[0]	/* InterpolateUntPts */
IUP[1]	/* InterpolateUntPts */";
};
width = 994;
},
{
anchors = (
{
name = bottom;
position = "{497, 0}";
},
{
name = ogonek;
position = "{879, 10}";
},
{
name = top;
position = "{499, 1500}";
}
);
associatedMasterId = "E4BC606E-CD30-42C5-8BF2-1DD2ABB89119";
background = {
paths = (
{
closed = 1;
nodes = (
"699 1310 OFFCURVE",
"772 1417 OFFCURVE",
"902 1417 CURVE",
"902 1497 LINE",
"782 1497 LINE SMOOTH",
"670 1497 OFFCURVE",
"575 1466 OFFCURVE",
"499 1394 CURVE",
"427 1466 OFFCURVE",
"346 1497 OFFCURVE",
"242 1497 CURVE SMOOTH",
"92 1497 LINE",
"92 1417 LINE",
"225 1417 OFFCURVE",
"299 1310 OFFCURVE",
"299 1097 CURVE SMOOTH",
"299 400 LINE SMOOTH",
"299 120 OFFCURVE",
"274 80 OFFCURVE",
"104 80 CURVE",
"104 0 LINE",
"894 0 LINE",
"894 80 LINE",
"724 80 OFFCURVE",
"699 120 OFFCURVE",
"699 400 CURVE SMOOTH",
"699 1097 LINE SMOOTH"
);
}
);
};
layerId = "5538025E-CC2C-4FEC-A0A1-DAD7144F8BDF";
name = "17 Dec 21, 17:17";
paths = (
{
closed = 1;
nodes = (
"699 1310 OFFCURVE",
"772 1417 OFFCURVE",
"902 1417 CURVE",
"902 1497 LINE",
"782 1497 LINE SMOOTH",
"670 1497 OFFCURVE",
"575 1466 OFFCURVE",
"499 1394 CURVE",
"427 1466 OFFCURVE",
"346 1497 OFFCURVE",
"242 1497 CURVE SMOOTH",
"92 1497 LINE",
"92 1417 LINE",
"225 1417 OFFCURVE",
"299 1310 OFFCURVE",
"299 1097 CURVE SMOOTH",
"299 400 LINE SMOOTH",
"299 120 OFFCURVE",
"274 80 OFFCURVE",
"104 80 CURVE",
"104 0 LINE",
"894 0 LINE",
"894 80 LINE",
"724 80 OFFCURVE",
"699 120 OFFCURVE",
"699 400 CURVE SMOOTH",
"699 1097 LINE SMOOTH"
);
}
);
userData = {
assembly = "PUSHW[ ]	/* 1 value pushed */
0 
CALL[ ]	/* CallFunction */
SVTCA[0]	/* SetFreedomAndProjectionVectorToAxis */
PUSHW[ ]	/* 1 value pushed */
0 
RCVT[ ]	/* ReadCVT */
IF[ ]	/* If */
PUSHW[ ]	/* 1 value pushed */
7 
MDAP[1]	/* MoveDirectAbsPt */
ELSE[ ]	/* Else */
PUSHW[ ]	/* 2 values pushed */
7 5 
MIAP[0]	/* MoveIndirectAbsPt */
EIF[ ]	/* EndIf */
PUSHW[ ]	/* 1 value pushed */
0 
RCVT[ ]	/* ReadCVT */
IF[ ]	/* If */
PUSHW[ ]	/* 1 value pushed */
14 
MDAP[1]	/* MoveDirectAbsPt */
ELSE[ ]	/* Else */
PUSHW[ ]	/* 2 values pushed */
14 5 
MIAP[0]	/* MoveIndirectAbsPt */
EIF[ ]	/* EndIf */
PUSHW[ ]	/* 1 value pushed */
0 
RCVT[ ]	/* ReadCVT */
IF[ ]	/* If */
PUSHW[ ]	/* 1 value pushed */
0 
MDAP[1]	/* MoveDirectAbsPt */
ELSE[ ]	/* Else */
PUSHW[ ]	/* 2 values pushed */
0 1 
MIAP[0]	/* MoveIndirectAbsPt */
EIF[ ]	/* EndIf */
PUSHW[ ]	/* 1 value pushed */
0 
RCVT[ ]	/* ReadCVT */
IF[ ]	/* If */
PUSHW[ ]	/* 1 value pushed */
22 
MDAP[1]	/* MoveDirectAbsPt */
ELSE[ ]	/* Else */
PUSHW[ ]	/* 2 values pushed */
22 1 
MIAP[0]	/* MoveIndirectAbsPt */
EIF[ ]	/* EndIf */
PUSHW[ ]	/* 1 value pushed */
0 
SRP0[ ]	/* SetRefPoint0 */
PUSHW[ ]	/* 1 value pushed */
1 
MDRP[11100]	/* MoveDirectRelPt */
PUSHW[ ]	/* 1 value pushed */
7 
SRP0[ ]	/* SetRefPoint0 */
PUSHW[ ]	/* 1 value pushed */
6 
MDRP[11100]	/* MoveDirectRelPt */
PUSHW[ ]	/* 1 value pushed */
16 
MDRP[10000]	/* MoveDirectRelPt */
PUSHW[ ]	/* 1 value pushed */
1 
SRP0[ ]	/* SetRefPoint0 */
PUSHW[ ]	/* 1 value pushed */
21 
MDRP[10000]	/* MoveDirectRelPt */
IUP[0]	/* InterpolateUntPts */
IUP[1]	/* InterpolateUntPts */";
};
width = 994;
}
);
leftKerningGroup = uni0432;
note = i;
rightKerningGroup = uni044F;
unicode = 0131;
},
{
glyphname = jdotless;
lastChange = "2021-12-17 23:42:19 +0000";
layers = (
{
anchors = (
{
name = bottom;
position = "{947, 0}";
},
{
name = top;
position = "{497, 1500}";
}
);
layerId = "E4BC606E-CD30-42C5-8BF2-1DD2ABB89119";
paths = (
{
closed = 1;
nodes = (
"379 -700 LINE SMOOTH",
"617 -700 OFFCURVE",
"699 -603 OFFCURVE",
"699 -300 CURVE SMOOTH",
"699 1100 LINE SMOOTH",
"699 1380 OFFCURVE",
"724 1420 OFFCURVE",
"894 1420 CURVE",
"894 1500 LINE",
"104 1500 LINE",
"104 1420 LINE",
"274 1420 OFFCURVE",
"299 1380 OFFCURVE",
"299 1100 CURVE SMOOTH",
"299 -300 LINE SMOOTH",
"299 -513 OFFCURVE",
"226 -620 OFFCURVE",
"79 -620 CURVE",
"79 -700 LINE"
);
}
);
userData = {
assembly = "PUSHW[ ]	/* 1 value pushed */
0 
CALL[ ]	/* CallFunction */
SVTCA[0]	/* SetFreedomAndProjectionVectorToAxis */
PUSHW[ ]	/* 1 value pushed */
0 
RCVT[ ]	/* ReadCVT */
IF[ ]	/* If */
PUSHW[ ]	/* 1 value pushed */
0 
MDAP[1]	/* MoveDirectAbsPt */
ELSE[ ]	/* Else */
PUSHW[ ]	/* 2 values pushed */
0 5 
MIAP[0]	/* MoveIndirectAbsPt */
EIF[ ]	/* EndIf */
PUSHW[ ]	/* 1 value pushed */
0 
RCVT[ ]	/* ReadCVT */
IF[ ]	/* If */
PUSHW[ ]	/* 1 value pushed */
6 
MDAP[1]	/* MoveDirectAbsPt */
ELSE[ ]	/* Else */
PUSHW[ ]	/* 2 values pushed */
6 5 
MIAP[0]	/* MoveIndirectAbsPt */
EIF[ ]	/* EndIf */
PUSHW[ ]	/* 1 value pushed */
0 
RCVT[ ]	/* ReadCVT */
IF[ ]	/* If */
PUSHW[ ]	/* 1 value pushed */
16 
MDAP[1]	/* MoveDirectAbsPt */
ELSE[ ]	/* Else */
PUSHW[ ]	/* 2 values pushed */
16 3 
MIAP[0]	/* MoveIndirectAbsPt */
EIF[ ]	/* EndIf */
PUSHW[ ]	/* 1 value pushed */
6 
SRP0[ ]	/* SetRefPoint0 */
PUSHW[ ]	/* 1 value pushed */
8 
MDRP[11100]	/* MoveDirectRelPt */
PUSHW[ ]	/* 1 value pushed */
16 
SRP0[ ]	/* SetRefPoint0 */
PUSHW[ ]	/* 1 value pushed */
18 
MDRP[11100]	/* MoveDirectRelPt */
PUSHW[ ]	/* 1 value pushed */
8 
SRP0[ ]	/* SetRefPoint0 */
PUSHW[ ]	/* 1 value pushed */
23 
MDRP[10000]	/* MoveDirectRelPt */
IUP[0]	/* InterpolateUntPts */
IUP[1]	/* InterpolateUntPts */";
};
width = 981;
}
);
leftKerningGroup = uni0443;
note = j;
rightKerningGroup = uni0443;
unicode = 0237;
},
{
glyphname = k;
lastChange = "2021-12-17 23:42:19 +0000";
layers = (
{
anchors = (
{
name = bottom;
position = "{947, 0}";
},
{
name = top;
position = "{482, 2048}";
}
);
background = {
paths = (
{
closed = 1;
nodes = (
"1100 730 LINE",
"1400 730 OFFCURVE",
"1510 810 OFFCURVE",
"1510 1050 CURVE SMOOTH",
"1510 1401 OFFCURVE",
"1521 1420 OFFCURVE",
"1700 1420 CURVE",
"1700 1500 LINE",
"1420 1500 LINE SMOOTH",
"1182 1500 OFFCURVE",
"1100 1391 OFFCURVE",
"1100 1050 CURVE SMOOTH",
"1100 825 OFFCURVE",
"1077 800 OFFCURVE",
"890 800 CURVE SMOOTH",
"693 800 OFFCURVE",
"680 825 OFFCURVE",
"680 1050 CURVE SMOOTH",
"680 1391 OFFCURVE",
"598 1500 OFFCURVE",
"360 1500 CURVE SMOOTH",
"80 1500 LINE",
"80 1420 LINE",
"259 1420 OFFCURVE",
"270 1401 OFFCURVE",
"270 1050 CURVE SMOOTH",
"270 810 OFFCURVE",
"380 730 OFFCURVE",
"680 730 CURVE"
);
},
{
closed = 1;
nodes = (
"360 0 LINE SMOOTH",
"598 0 OFFCURVE",
"680 109 OFFCURVE",
"680 450 CURVE SMOOTH",
"680 674 OFFCURVE",
"693 700 OFFCURVE",
"890 700 CURVE SMOOTH",
"1077 700 OFFCURVE",
"1100 675 OFFCURVE",
"1100 450 CURVE SMOOTH",
"1100 109 OFFCURVE",
"1182 0 OFFCURVE",
"1420 0 CURVE SMOOTH",
"1700 0 LINE",
"1700 80 LINE",
"1521 80 OFFCURVE",
"1510 99 OFFCURVE",
"1510 450 CURVE SMOOTH",
"1510 690 OFFCURVE",
"1400 770 OFFCURVE",
"1100 770 CURVE",
"680 770 LINE",
"380 770 OFFCURVE",
"270 690 OFFCURVE",
"270 450 CURVE SMOOTH",
"270 99 OFFCURVE",
"259 80 OFFCURVE",
"80 80 CURVE",
"80 0 LINE"
);
}
);
};
layerId = "E4BC606E-CD30-42C5-8BF2-1DD2ABB89119";
paths = (
{
closed = 1;
nodes = (
"679 1863 OFFCURVE",
"759 1970 OFFCURVE",
"902 1970 CURVE",
"902 2050 LINE",
"762 2050 LINE SMOOTH",
"650 2050 OFFCURVE",
"558 2019 OFFCURVE",
"482 1947 CURVE",
"410 2019 OFFCURVE",
"326 2050 OFFCURVE",
"222 2050 CURVE SMOOTH",
"52 2050 LINE",
"52 1970 LINE",
"198 1970 OFFCURVE",
"279 1863 OFFCURVE",
"279 1650 CURVE SMOOTH",
"279 400 LINE SMOOTH",
"279 120 OFFCURVE",
"254 80 OFFCURVE",
"84 80 CURVE",
"84 0 LINE",
"874 0 LINE",
"874 80 LINE",
"704 80 OFFCURVE",
"679 120 OFFCURVE",
"679 400 CURVE SMOOTH",
"679 1650 LINE SMOOTH"
);
},
{
closed = 1;
nodes = (
"490 800 LINE",
"490 700 LINE",
"960 700 LINE",
"1147 700 OFFCURVE",
"1170 675 OFFCURVE",
"1170 450 CURVE SMOOTH",
"1170 109 OFFCURVE",
"1252 0 OFFCURVE",
"1490 0 CURVE SMOOTH",
"1770 0 LINE",
"1770 80 LINE",
"1591 80 OFFCURVE",
"1580 99 OFFCURVE",
"1580 450 CURVE SMOOTH",
"1580 624 OFFCURVE",
"1522 714 OFFCURVE",
"1377 750 CURVE",
"1522 786 OFFCURVE",
"1570 876 OFFCURVE",
"1570 1050 CURVE SMOOTH",
"1570 1401 OFFCURVE",
"1581 1420 OFFCURVE",
"1760 1420 CURVE",
"1760 1500 LINE",
"1480 1500 LINE SMOOTH",
"1242 1500 OFFCURVE",
"1160 1391 OFFCURVE",
"1160 1050 CURVE SMOOTH",
"1160 825 OFFCURVE",
"1147 800 OFFCURVE",
"960 800 CURVE"
);
}
);
userData = {
assembly = "PUSHW[ ]	/* 1 value pushed */
0 
CALL[ ]	/* CallFunction */
SVTCA[0]	/* SetFreedomAndProjectionVectorToAxis */
PUSHW[ ]	/* 1 value pushed */
0 
RCVT[ ]	/* ReadCVT */
IF[ ]	/* If */
PUSHW[ ]	/* 1 value pushed */
22 
MDAP[1]	/* MoveDirectAbsPt */
ELSE[ ]	/* Else */
PUSHW[ ]	/* 2 values pushed */
22 5 
MIAP[0]	/* MoveIndirectAbsPt */
EIF[ ]	/* EndIf */
PUSHW[ ]	/* 1 value pushed */
0 
RCVT[ ]	/* ReadCVT */
IF[ ]	/* If */
PUSHW[ ]	/* 1 value pushed */
0 
MDAP[1]	/* MoveDirectAbsPt */
ELSE[ ]	/* Else */
PUSHW[ ]	/* 2 values pushed */
0 1 
MIAP[0]	/* MoveIndirectAbsPt */
EIF[ ]	/* EndIf */
PUSHW[ ]	/* 1 value pushed */
0 
RCVT[ ]	/* ReadCVT */
IF[ ]	/* If */
PUSHW[ ]	/* 1 value pushed */
35 
MDAP[1]	/* MoveDirectAbsPt */
ELSE[ ]	/* Else */
PUSHW[ ]	/* 2 values pushed */
35 1 
MIAP[0]	/* MoveIndirectAbsPt */
EIF[ ]	/* EndIf */
PUSHW[ ]	/* 1 value pushed */
0 
RCVT[ ]	/* ReadCVT */
IF[ ]	/* If */
PUSHW[ ]	/* 1 value pushed */
48 
MDAP[1]	/* MoveDirectAbsPt */
ELSE[ ]	/* Else */
PUSHW[ ]	/* 2 values pushed */
48 1 
MIAP[0]	/* MoveIndirectAbsPt */
EIF[ ]	/* EndIf */
PUSHW[ ]	/* 3 values pushed */
7 6 3 
CALL[ ]	/* CallFunction */
PUSHW[ ]	/* 3 values pushed */
15 43 3 
CALL[ ]	/* CallFunction */
PUSHW[ ]	/* 1 value pushed */
0 
SRP0[ ]	/* SetRefPoint0 */
PUSHW[ ]	/* 1 value pushed */
1 
MDRP[11100]	/* MoveDirectRelPt */
PUSHW[ ]	/* 1 value pushed */
22 
SRP0[ ]	/* SetRefPoint0 */
PUSHW[ ]	/* 1 value pushed */
24 
MDRP[11100]	/* MoveDirectRelPt */
PUSHW[ ]	/* 3 values pushed */
29 43 15 
SRP1[ ]	/* SetRefPoint1 */
SRP2[ ]	/* SetRefPoint2 */
IP[ ]	/* InterpolatePts */
PUSHW[ ]	/* 1 value pushed */
1 
SRP0[ ]	/* SetRefPoint0 */
PUSHW[ ]	/* 1 value pushed */
34 
MDRP[10000]	/* MoveDirectRelPt */
PUSHW[ ]	/* 1 value pushed */
47 
MDRP[10000]	/* MoveDirectRelPt */
IUP[0]	/* InterpolateUntPts */
IUP[1]	/* InterpolateUntPts */";
};
width = 1830;
}
);
leftKerningGroup = uni0412;
note = k;
rightKerningGroup = uni044F;
unicode = 006B;
},
